{
customParameters = (
{
name = glyphOrder;
value = (
    ".notdef",
    B,
    C,
    D,
    E,
    V,
    I,
    O,
    P,
    S,
    N,
    space,
    F,
    G,
    H,
    U,
    M,
    L,
    "L_I",
    "L_A",
    R,
    T,
    "T_A",
    "T_E",
    "T_I",
    K,
    J,
    Q,
    W,
    X,
    Y,
    Z,
    o,
    a,
    b,
    c,
    d,
    e,
    f,
    g,
    h,
    i,
    l,
    j,
    k,
    n,
    m,
    p,
    q,
    r,
    s,
    t,
    u,
    v,
    w,
    x,
    y,
    z,
    acute,
    "a_peq",
    aacute,
    "e_peq",
    eacute,
    dotlessi,
    iacute,
    oacute,
    "o_peq",
    "u_peq",
    uacute,
    dotaccent,
    edotaccent,
    one,
    seven,
    A,
    six,
    zero,
    period,
    two,
    three,
    four,
    five,
    eight,
    nine,
    comma,
    grave,
    agrave,
    egrave,
    igrave,
    ograve,
    ugrave,
    breve,
    caron,
    circumflex,
    abreve,
    acircumflex,
    ccaron,
    ebreve,
    ecaron,
    ecircumflex,
    "c.peq",
    cacute,
    ccircumflex,
    cdotaccent,
    dieresis,
    macron,
    amacron,
    emacron,
    imacron,
    omacron,
    edieresis,
    adieresis,
    idieresis,
    icircumflex,
    ibreve,
    obreve,
    ocircumflex,
    odieresis,
    ubreve,
    ucircumflex,
    udieresis,
    umacron,
    Eacute,
    tilde,
    ring,
    aring,
    uring,
    atilde,
    itilde,
    otilde,
    utilde,
    cedilla,
    ccedilla,
    fi,
    ff,
    ffi,
    oe,
    "T_O",
    ogonek,
    eogonek,
    hungarumlaut,
    uhungarumlaut,
    uogonek,
    iogonek,
    Eogonek,
    Iogonek,
    Uogonek,
    hyphen,
    parenleft,
    parenright,
    endash,
    emdash,
    minus,
    "A.peq",
    Aacute,
    Abreve,
    Acircumflex,
    Agrave,
    Adieresis,
    Amacron,
    Aogonek,
    Aring,
    Atilde,
    AE,
    Cacute,
    "C.peq",
    Ccaron,
    Ccedilla,
    Ccircumflex,
    Cdotaccent,
    "E.peq",
    Ebreve,
    Ecaron,
    Ecircumflex,
    Edieresis,
    Edotaccent,
    Egrave,

glyphs = (
{
glyphname = B;
lastChange = "2015-10-17 22:56:41 +0000";
layers = (
{
layerId = "7A0FC40B-77F8-4D14-AD08-D047673E78CB";
name = Regular;
paths = (
{
closed = 1;
nodes = (
"218 568 OFFCURVE",
"274 575 OFFCURVE",
"331 579 CURVE SMOOTH",
"387 583 OFFCURVE",
"443 586 OFFCURVE",
"492 586 CURVE SMOOTH",
"587 586 OFFCURVE",
"666 581 OFFCURVE",
"725 564 CURVE",
"772 528 OFFCURVE",
"791 480 OFFCURVE",
"791 433 CURVE SMOOTH",
"791 401 OFFCURVE",
"779 361 OFFCURVE",
"753 334 CURVE",
"783 319 OFFCURVE",
"804 303 OFFCURVE",
"817 281 CURVE SMOOTH",
"829 258 OFFCURVE",
"835 230 OFFCURVE",
"835 191 CURVE SMOOTH",
"835 123 OFFCURVE",
"807 67 OFFCURVE",
"754 25 CURVE",
"678 -4 OFFCURVE",
"575 -12 OFFCURVE",
"466 -12 CURVE SMOOTH",
"421 -12 OFFCURVE",
"361 -10 OFFCURVE",
"303 -5 CURVE SMOOTH",
"245 -1 OFFCURVE",
"190 4 OFFCURVE",
"153 10 CURVE",
"166 132 OFFCURVE",
"172 243 OFFCURVE",
"172 372 CURVE SMOOTH",
"172 433 OFFCURVE",
"171 491 OFFCURVE",
"169 561 CURVE"
);
},
{
closed = 1;
nodes = (
"444 416 OFFCURVE",
"444 370 OFFCURVE",
"447 339 CURVE",
"493 342 OFFCURVE",
"516 371 OFFCURVE",
"516 418 CURVE SMOOTH",
"516 465 OFFCURVE",
"495 476 OFFCURVE",
"468 476 CURVE SMOOTH",
"459 476 OFFCURVE",
"452 475 OFFCURVE",
"444 472 CURVE"
);
},
{
closed = 1;
nodes = (
"435 180 OFFCURVE",
"438 119 OFFCURVE",
"442 79 CURVE",
"514 79 OFFCURVE",
"540 103 OFFCURVE",
"540 166 CURVE SMOOTH",
"540 215 OFFCURVE",
"514 240 OFFCURVE",
"475 240 CURVE SMOOTH",
"462 240 OFFCURVE",
"449 238 OFFCURVE",
"435 233 CURVE"
);
}
);
width = 850;
}
);
unicode = 0042;
},
{
glyphname = C;
lastChange = "2015-10-17 22:56:41 +0000";
layers = (
{
layerId = "7A0FC40B-77F8-4D14-AD08-D047673E78CB";
name = Regular;
paths = (
{
closed = 1;
nodes = (
"664 3 LINE",
"637 -1 OFFCURVE",
"608 -5 OFFCURVE",
"579 -7 CURVE SMOOTH",
"551 -10 OFFCURVE",
"523 -12 OFFCURVE",
"500 -12 CURVE SMOOTH",
"441 -12 OFFCURVE",
"394 -10 OFFCURVE",
"350 -3 CURVE SMOOTH",
"306 3 OFFCURVE",
"265 13 OFFCURVE",
"222 27 CURVE",
"189 60 OFFCURVE",
"164 94 OFFCURVE",
"147 135 CURVE SMOOTH",
"130 176 OFFCURVE",
"122 225 OFFCURVE",
"122 290 CURVE SMOOTH",
"122 357 OFFCURVE",
"131 409 OFFCURVE",
"151 452 CURVE SMOOTH",
"170 495 OFFCURVE",
"197 528 OFFCURVE",
"233 558 CURVE",
"270 568 OFFCURVE",
"305 575 OFFCURVE",
"345 580 CURVE SMOOTH",
"384 585 OFFCURVE",
"426 586 OFFCURVE",
"475 586 CURVE SMOOTH",
"560 586 OFFCURVE",
"623 576 OFFCURVE",
"677 559 CURVE",
"648 414 LINE",
"616 424 OFFCURVE",
"584 428 OFFCURVE",
"555 428 CURVE SMOOTH",
"521 428 OFFCURVE",
"490 424 OFFCURVE",
"467 421 CURVE",
"441 395 OFFCURVE",
"427 354 OFFCURVE",
"427 292 CURVE SMOOTH",
"427 215 OFFCURVE",
"446 167 OFFCURVE",
"479 141 CURVE",
"508 135 OFFCURVE",
"545 132 OFFCURVE",
"587 132 CURVE SMOOTH",
"607 132 OFFCURVE",
"629 133 OFFCURVE",
"652 137 CURVE"
);
}
);
width = 692;
}
);
unicode = 0043;
},
{
glyphname = D;
lastChange = "2015-10-17 22:56:41 +0000";
layers = (
{
layerId = "7A0FC40B-77F8-4D14-AD08-D047673E78CB";
name = Regular;
paths = (
{
closed = 1;
nodes = (
"526 367 OFFCURVE",
"526 414 OFFCURVE",
"509 443 CURVE",
"498 455 OFFCURVE",
"483 459 OFFCURVE",
"467 459 CURVE SMOOTH",
"458 459 OFFCURVE",
"441 458 OFFCURVE",
"430 456 CURVE",
"431 421 OFFCURVE",
"432 389 OFFCURVE",
"433 360 CURVE SMOOTH",
"435 301 OFFCURVE",
"437 247 OFFCURVE",
"439 189 CURVE SMOOTH",
"439 160 OFFCURVE",
"440 128 OFFCURVE",
"441 95 CURVE",
"472 95 OFFCURVE",
"495 105 OFFCURVE",
"509 126 CURVE",
"520 162 OFFCURVE",
"526 218 OFFCURVE",
"526 288 CURVE SMOOTH"
);
},
{
closed = 1;
nodes = (
"406 -12 OFFCURVE",
"348 -10 OFFCURVE",
"294 -5 CURVE SMOOTH",
"239 -1 OFFCURVE",
"186 4 OFFCURVE",
"152 10 CURVE",
"165 132 OFFCURVE",
"171 243 OFFCURVE",
"171 372 CURVE SMOOTH",
"171 433 OFFCURVE",
"170 491 OFFCURVE",
"167 561 CURVE",
"214 568 OFFCURVE",
"267 575 OFFCURVE",
"321 579 CURVE SMOOTH",
"375 583 OFFCURVE",
"429 586 OFFCURVE",
"474 586 CURVE SMOOTH",
"591 586 OFFCURVE",
"684 571 OFFCURVE",
"750 539 CURVE",
"800 490 OFFCURVE",
"827 410 OFFCURVE",
"827 290 CURVE SMOOTH",
"827 181 OFFCURVE",
"806 103 OFFCURVE",
"763 51 CURVE",
"694 9 OFFCURVE",
"588 -12 OFFCURVE",
"448 -12 CURVE SMOOTH"
);
}
);
width = 852;
}
);
unicode = 0044;
},
{
glyphname = E;
lastChange = "2015-10-17 22:56:41 +0000";
layers = (
{
layerId = "7A0FC40B-77F8-4D14-AD08-D047673E78CB";
name = Regular;
paths = (
{
closed = 1;
nodes = (
"693 130 LINE",
"681 -1 LINE",
"497 -4 OFFCURVE",
"317 -6 OFFCURVE",
"129 -12 CURVE",
"135 186 OFFCURVE",
"138 381 OFFCURVE",
"138 576 CURVE",
"322 579 OFFCURVE",
"503 582 OFFCURVE",
"682 586 CURVE",
"672 443 LINE",
"591 446 OFFCURVE",
"510 448 OFFCURVE",
"419 448 CURVE",
"419 364 LINE",
"491 365 OFFCURVE",
"562 367 OFFCURVE",
"637 369 CURVE",
"623 238 LINE",
"410 230 LINE",
"419 121 LINE"
);
}
);
width = 708;
}
);
unicode = 0045;
},
{
glyphname = V;
lastChange = "2015-10-17 22:56:41 +0000";
layers = (
{
layerId = "7A0FC40B-77F8-4D14-AD08-D047673E78CB";
name = Regular;
paths = (
{
closed = 1;
nodes = (
"490 442 OFFCURVE",
"516 306 OFFCURVE",
"547 168 CURVE",
"576 305 OFFCURVE",
"603 442 OFFCURVE",
"628 585 CURVE",
"845 575 LINE",
"781 384 OFFCURVE",
"741 195 OFFCURVE",
"705 0 CURVE",
"639 0 OFFCURVE",
"563 -1 OFFCURVE",
"488 -3 CURVE SMOOTH",
"413 -5 OFFCURVE",
"338 -9 OFFCURVE",
"278 -12 CURVE",
"251 183 OFFCURVE",
"211 381 OFFCURVE",
"151 576 CURVE",
"257 578 OFFCURVE",
"366 581 OFFCURVE",
"476 586 CURVE"
);
}
);
width = 850;
}
);
unicode = 0056;
},
{
glyphname = I;
lastChange = "2015-10-17 22:56:41 +0000";
layers = (
{
layerId = "7A0FC40B-77F8-4D14-AD08-D047673E78CB";
name = Regular;
paths = (
{
closed = 1;
nodes = (
"376 -1 LINE",
"74 -12 LINE",
"93 576 LINE",
"367 586 LINE"
);
}
);
width = 386;
}
);
unicode = 0049;
},
{
glyphname = O;
lastChange = "2015-10-17 22:56:41 +0000";
layers = (
{
layerId = "7A0FC40B-77F8-4D14-AD08-D047673E78CB";
name = Regular;
paths = (
{
closed = 1;
nodes = (
"387 -12 OFFCURVE",
"301 0 OFFCURVE",
"240 25 CURVE",
"185 84 OFFCURVE",
"157 159 OFFCURVE",
"157 284 CURVE SMOOTH",
"157 341 OFFCURVE",
"163 389 OFFCURVE",
"175 429 CURVE SMOOTH",
"187 469 OFFCURVE",
"204 503 OFFCURVE",
"227 533 CURVE",
"293 569 OFFCURVE",
"391 586 OFFCURVE",
"520 586 CURVE SMOOTH",
"643 586 OFFCURVE",
"736 569 OFFCURVE",
"798 530 CURVE",
"817 496 OFFCURVE",
"831 463 OFFCURVE",
"841 426 CURVE SMOOTH",
"851 389 OFFCURVE",
"856 346 OFFCURVE",
"856 290 CURVE SMOOTH",
"856 238 OFFCURVE",
"851 195 OFFCURVE",
"841 157 CURVE SMOOTH",
"831 119 OFFCURVE",
"816 86 OFFCURVE",
"797 50 CURVE",
"731 8 OFFCURVE",
"634 -12 OFFCURVE",
"494 -12 CURVE SMOOTH"
);
},
{
closed = 1;
nodes = (
"513 95 OFFCURVE",
"527 100 OFFCURVE",
"536 110 CURVE",
"550 144 OFFCURVE",
"555 202 OFFCURVE",
"555 288 CURVE SMOOTH",
"555 357 OFFCURVE",
"550 401 OFFCURVE",
"543 428 CURVE",
"536 438 OFFCURVE",
"526 443 OFFCURVE",
"512 443 CURVE SMOOTH",
"495 443 OFFCURVE",
"482 438 OFFCURVE",
"473 430 CURVE",
"463 403 OFFCURVE",
"457 352 OFFCURVE",
"457 278 CURVE SMOOTH",
"457 196 OFFCURVE",
"459 147 OFFCURVE",
"466 114 CURVE",
"472 102 OFFCURVE",
"481 95 OFFCURVE",
"495 95 CURVE SMOOTH"
);
}
);
width = 866;
}
);
unicode = 004F;
},
{
glyphname = P;
lastChange = "2015-10-17 22:56:41 +0000";
layers = (
{
layerId = "7A0FC40B-77F8-4D14-AD08-D047673E78CB";
name = Regular;
paths = (
{
closed = 1;
nodes = (
"516 401 OFFCURVE",
"512 430 OFFCURVE",
"506 448 CURVE",
"496 455 OFFCURVE",
"482 459 OFFCURVE",
"465 459 CURVE SMOOTH",
"456 459 OFFCURVE",
"439 458 OFFCURVE",
"429 456 CURVE",
"432 377 OFFCURVE",
"434 318 OFFCURVE",
"439 244 CURVE",
"468 244 OFFCURVE",
"487 250 OFFCURVE",
"501 262 CURVE",
"510 283 OFFCURVE",
"516 314 OFFCURVE",
"516 354 CURVE SMOOTH"
);
},
{
closed = 1;
nodes = (
"447 -12 LINE",
"404 -12 OFFCURVE",
"347 -10 OFFCURVE",
"292 -5 CURVE SMOOTH",
"238 -1 OFFCURVE",
"184 4 OFFCURVE",
"150 10 CURVE",
"163 132 OFFCURVE",
"169 243 OFFCURVE",
"169 372 CURVE SMOOTH",
"169 433 OFFCURVE",
"168 491 OFFCURVE",
"166 561 CURVE",
"212 568 OFFCURVE",
"266 575 OFFCURVE",
"319 579 CURVE SMOOTH",
"373 583 OFFCURVE",
"427 586 OFFCURVE",
"472 586 CURVE SMOOTH",
"598 586 OFFCURVE",
"693 571 OFFCURVE",
"756 538 CURVE",
"796 499 OFFCURVE",
"817 438 OFFCURVE",
"817 357 CURVE SMOOTH",
"817 285 OFFCURVE",
"798 232 OFFCURVE",
"765 193 CURVE",
"700 156 OFFCURVE",
"595 137 OFFCURVE",
"447 137 CURVE"
);
}
);
width = 822;
}
);
unicode = 0050;
},
{
glyphname = S;
lastChange = "2015-10-17 22:56:41 +0000";
layers = (
{
layerId = "7A0FC40B-77F8-4D14-AD08-D047673E78CB";
name = Regular;
paths = (
{
closed = 1;
nodes = (
"130 137 LINE",
"154 133 OFFCURVE",
"201 128 OFFCURVE",
"237 128 CURVE SMOOTH",
"282 128 OFFCURVE",
"316 133 OFFCURVE",
"341 142 CURVE",
"352 151 OFFCURVE",
"357 165 OFFCURVE",
"357 183 CURVE SMOOTH",
"357 197 OFFCURVE",
"349 208 OFFCURVE",
"335 218 CURVE",
"313 222 OFFCURVE",
"284 228 OFFCURVE",
"254 236 CURVE SMOOTH",
"224 243 OFFCURVE",
"192 252 OFFCURVE",
"166 262 CURVE",
"140 291 OFFCURVE",
"119 332 OFFCURVE",
"119 398 CURVE SMOOTH",
"119 471 OFFCURVE",
"140 521 OFFCURVE",
"179 554 CURVE",
"240 577 OFFCURVE",
"332 586 OFFCURVE",
"447 586 CURVE SMOOTH",
"529 586 OFFCURVE",
"589 580 OFFCURVE",
"641 567 CURVE",
"612 435 LINE",
"600 441 OFFCURVE",
"582 444 OFFCURVE",
"564 448 CURVE",
"546 450 OFFCURVE",
"527 451 OFFCURVE",
"516 451 CURVE SMOOTH",
"483 451 OFFCURVE",
"456 448 OFFCURVE",
"435 441 CURVE",
"427 433 OFFCURVE",
"424 423 OFFCURVE",
"424 408 CURVE SMOOTH",
"424 395 OFFCURVE",
"429 385 OFFCURVE",
"440 374 CURVE",
"450 371 OFFCURVE",
"463 367 OFFCURVE",
"479 364 CURVE SMOOTH",
"510 357 OFFCURVE",
"544 350 OFFCURVE",
"579 341 CURVE SMOOTH",
"597 336 OFFCURVE",
"612 330 OFFCURVE",
"628 324 CURVE",
"647 299 OFFCURVE",
"661 264 OFFCURVE",
"661 208 CURVE SMOOTH",
"661 133 OFFCURVE",
"645 76 OFFCURVE",
"613 37 CURVE",
"550 5 OFFCURVE",
"449 -12 OFFCURVE",
"316 -12 CURVE SMOOTH",
"288 -12 OFFCURVE",
"255 -10 OFFCURVE",
"221 -7 CURVE SMOOTH",
"186 -5 OFFCURVE",
"149 -1 OFFCURVE",
"119 3 CURVE"
);
}
);
width = 666;
}
);
unicode = 0053;
},
{
glyphname = N;
lastChange = "2015-10-17 22:56:41 +0000";
layers = (
{
layerId = "7A0FC40B-77F8-4D14-AD08-D047673E78CB";
name = Regular;
paths = (
{
closed = 1;
nodes = (
"744 -1 LINE",
"475 -12 LINE",
"484 117 LINE",
"384 217 LINE",
"394 -3 LINE",
"133 -12 LINE",
"146 176 OFFCURVE",
"151 371 OFFCURVE",
"151 576 CURVE",
"348 584 LINE",
"517 389 LINE",
"510 576 LINE",
"735 586 LINE"
);
}
);
width = 749;
}
);
unicode = 004E;
},
{
glyphname = F;
lastChange = "2015-10-17 22:56:41 +0000";
layers = (
{
layerId = "7A0FC40B-77F8-4D14-AD08-D047673E78CB";
name = Regular;
paths = (
{
closed = 1;
nodes = (
"418 -1 LINE",
"126 -12 LINE",
"132 186 OFFCURVE",
"135 379 OFFCURVE",
"135 576 CURVE",
"318 579 OFFCURVE",
"497 582 OFFCURVE",
"680 586 CURVE",
"670 443 LINE",
"587 447 OFFCURVE",
"503 448 OFFCURVE",
"417 448 CURVE",
"417 339 LINE",
"489 340 OFFCURVE",
"561 342 OFFCURVE",
"635 344 CURVE",
"620 214 LINE",
"408 205 LINE"
);
}
);
width = 685;
}
);
unicode = 0046;
},
{
glyphname = G;
lastChange = "2015-10-17 22:56:41 +0000";
layers = (
{
layerId = "7A0FC40B-77F8-4D14-AD08-D047673E78CB";
name = Regular;
paths = (
{
closed = 1;
nodes = (
"801 24 LINE",
"701 -5 OFFCURVE",
"604 -12 OFFCURVE",
"524 -12 CURVE SMOOTH",
"413 -12 OFFCURVE",
"324 0 OFFCURVE",
"257 25 CURVE",
"220 58 OFFCURVE",
"193 91 OFFCURVE",
"174 133 CURVE SMOOTH",
"155 176 OFFCURVE",
"146 225 OFFCURVE",
"146 290 CURVE SMOOTH",
"146 423 OFFCURVE",
"186 501 OFFCURVE",
"261 557 CURVE",
"327 576 OFFCURVE",
"412 586 OFFCURVE",
"515 586 CURVE SMOOTH",
"630 586 OFFCURVE",
"716 580 OFFCURVE",
"792 567 CURVE",
"755 410 LINE",
"703 421 OFFCURVE",
"643 426 OFFCURVE",
"593 426 CURVE SMOOTH",
"551 426 OFFCURVE",
"515 419 OFFCURVE",
"486 409 CURVE",
"462 386 OFFCURVE",
"451 348 OFFCURVE",
"451 292 CURVE SMOOTH",
"451 227 OFFCURVE",
"462 181 OFFCURVE",
"486 155 CURVE",
"505 146 OFFCURVE",
"529 139 OFFCURVE",
"558 136 CURVE",
"543 287 LINE",
"817 297 LINE"
);
}
);
width = 842;
}
);
unicode = 0047;
},
{
glyphname = H;
lastChange = "2015-10-17 22:56:41 +0000";
layers = (
{
layerId = "7A0FC40B-77F8-4D14-AD08-D047673E78CB";
name = Regular;
paths = (
{
closed = 1;
nodes = (
"779 -1 LINE",
"503 -12 LINE",
"503 221 LINE",
"409 227 LINE",
"420 -3 LINE",
"143 -12 LINE",
"156 176 OFFCURVE",
"162 371 OFFCURVE",
"162 576 CURVE",
"458 586 LINE",
"440 384 LINE",
"527 388 LINE",
"520 576 LINE",
"770 586 LINE"
);
}
);
width = 789;
}
);
unicode = 0048;
},
{
glyphname = U;
lastChange = "2015-10-17 22:56:41 +0000";
layers = (
{
layerId = "7A0FC40B-77F8-4D14-AD08-D047673E78CB";
name = Regular;
paths = (
{
closed = 1;
nodes = (
"442 586 LINE",
"438 533 OFFCURVE",
"433 486 OFFCURVE",
"431 436 CURVE SMOOTH",
"428 386 OFFCURVE",
"427 335 OFFCURVE",
"427 278 CURVE SMOOTH",
"427 238 OFFCURVE",
"428 205 OFFCURVE",
"429 182 CURVE",
"430 158 OFFCURVE",
"433 141 OFFCURVE",
"436 130 CURVE",
"445 120 OFFCURVE",
"457 120 OFFCURVE",
"473 120 CURVE SMOOTH",
"490 120 OFFCURVE",
"506 124 OFFCURVE",
"519 129 CURVE",
"536 153 OFFCURVE",
"542 205 OFFCURVE",
"542 288 CURVE SMOOTH",
"542 388 OFFCURVE",
"536 475 OFFCURVE",
"528 576 CURVE",
"786 586 LINE",
"800 480 OFFCURVE",
"802 373 OFFCURVE",
"802 261 CURVE SMOOTH",
"802 158 OFFCURVE",
"780 86 OFFCURVE",
"739 38 CURVE",
"677 5 OFFCURVE",
"585 -12 OFFCURVE",
"472 -12 CURVE SMOOTH",
"352 -12 OFFCURVE",
"262 5 OFFCURVE",
"202 43 CURVE",
"169 93 OFFCURVE",
"152 165 OFFCURVE",
"152 267 CURVE SMOOTH",
"152 370 OFFCURVE",
"155 468 OFFCURVE",
"168 576 CURVE"
);
}
);
width = 817;
}
);
unicode = 0055;
},
{
glyphname = M;
lastChange = "2015-10-17 22:56:41 +0000";
layers = (
{
layerId = "7A0FC40B-77F8-4D14-AD08-D047673E78CB";
name = Regular;
paths = (
{
closed = 1;
nodes = (
"613 78 LINE",
"464 70 LINE",
"411 257 LINE",
"405 250 LINE",
"423 -3 LINE",
"163 -12 LINE",
"175 176 OFFCURVE",
"181 371 OFFCURVE",
"181 576 CURVE",
"477 586 LINE",
"536 400 LINE",
"597 576 LINE",
"905 586 LINE",
"905 387 OFFCURVE",
"907 194 OFFCURVE",
"914 -1 CURVE",
"653 -12 LINE",
"669 257 LINE",
"663 259 LINE"
);
}
);
width = 919;
}
);
unicode = 004D;
},
{
glyphname = L;
lastChange = "2015-10-17 22:56:41 +0000";
layers = (
{
layerId = "7A0FC40B-77F8-4D14-AD08-D047673E78CB";
name = Regular;
paths = (
{
closed = 1;
nodes = (
"429 138 LINE",
"693 147 LINE",
"681 -1 LINE",
"494 -4 OFFCURVE",
"311 -6 OFFCURVE",
"129 -12 CURVE",
"148 576 LINE",
"422 586 LINE"
);
}
);
width = 708;
}
);
unicode = 004C;
},
{
glyphname = L_I;
lastChange = "2015-10-17 22:56:41 +0000";
layers = (
{
layerId = "7A0FC40B-77F8-4D14-AD08-D047673E78CB";
name = Regular;
paths = (
{
closed = 1;
nodes = (
"463 138 LINE",
"889 152 LINE",
"877 -1 LINE",
"847 -2 OFFCURVE",
"811 -2 OFFCURVE",
"772 -2 CURVE SMOOTH",
"734 -3 OFFCURVE",
"692 -3 OFFCURVE",
"650 -4 CURVE SMOOTH",
"607 -5 OFFCURVE",
"563 -5 OFFCURVE",
"519 -5 CURVE SMOOTH",
"429 -6 OFFCURVE",
"343 -8 OFFCURVE",
"266 -10 CURVE SMOOTH",
"227 -10 OFFCURVE",
"193 -11 OFFCURVE",
"163 -12 CURVE",
"182 576 LINE",
"456 586 LINE"
);
},
{
closed = 1;
nodes = (
"878 189 LINE",
"576 178 LINE",
"595 576 LINE",
"869 586 LINE"
);
}
);
width = 899;
}
);
},
{
glyphname = L_A;
lastChange = "2015-10-17 22:56:41 +0000";
layers = (
{
layerId = "7A0FC40B-77F8-4D14-AD08-D047673E78CB";
name = Regular;
paths = (
{
closed = 1;
nodes = (
"561 173 LINE",
"627 306 OFFCURVE",
"672 437 OFFCURVE",
"709 571 CURVE",
"775 571 OFFCURVE",
"851 573 OFFCURVE",
"926 576 CURVE SMOOTH",
"1001 578 OFFCURVE",
"1076 582 OFFCURVE",
"1136 586 CURVE",
"1162 391 OFFCURVE",
"1199 198 OFFCURVE",
"1255 3 CURVE",
"1148 0 OFFCURVE",
"1041 -5 OFFCURVE",
"929 -12 CURVE",
"897 205 LINE",
"804 205 LINE",
"796 174 LINE"
);
},
{
closed = 1;
nodes = (
"886 330 LINE",
"870 424 LINE",
"857 421 LINE",
"834 324 LINE"
);
},
{
closed = 1;
nodes = (
"526 138 LINE",
"791 147 LINE",
"779 -1 LINE",
"591 -4 OFFCURVE",
"409 -6 OFFCURVE",
"226 -12 CURVE",
"245 576 LINE",
"519 586 LINE"
);
}
);
width = 1260;
}
);
},
{
glyphname = R;
lastChange = "2015-10-17 22:56:41 +0000";
layers = (
{
layerId = "7A0FC40B-77F8-4D14-AD08-D047673E78CB";
name = Regular;
paths = (
{
closed = 1;
nodes = (
"452 -12 LINE",
"409 -12 OFFCURVE",
"352 -10 OFFCURVE",
"297 -5 CURVE SMOOTH",
"243 -1 OFFCURVE",
"189 4 OFFCURVE",
"155 10 CURVE",
"168 132 OFFCURVE",
"174 243 OFFCURVE",
"174 372 CURVE SMOOTH",
"174 433 OFFCURVE",
"173 491 OFFCURVE",
"171 561 CURVE",
"217 568 OFFCURVE",
"271 575 OFFCURVE",
"324 579 CURVE SMOOTH",
"378 583 OFFCURVE",
"432 586 OFFCURVE",
"477 586 CURVE SMOOTH",
"622 586 OFFCURVE",
"724 568 OFFCURVE",
"787 528 CURVE",
"816 490 OFFCURVE",
"830 438 OFFCURVE",
"830 369 CURVE SMOOTH",
"830 309 OFFCURVE",
"819 262 OFFCURVE",
"795 226 CURVE",
"776 219 OFFCURVE",
"754 213 OFFCURVE",
"728 207 CURVE",
"755 138 OFFCURVE",
"799 69 OFFCURVE",
"845 3 CURVE",
"746 0 OFFCURVE",
"647 -5 OFFCURVE",
"544 -12 CURVE",
"527 67 OFFCURVE",
"502 119 OFFCURVE",
"473 162 CURVE",
"452 162 LINE"
);
},
{
closed = 1;
nodes = (
"529 407 OFFCURVE",
"527 432 OFFCURVE",
"521 448 CURVE",
"509 455 OFFCURVE",
"492 459 OFFCURVE",
"470 459 CURVE SMOOTH",
"461 459 OFFCURVE",
"444 458 OFFCURVE",
"433 456 CURVE",
"436 396 OFFCURVE",
"438 351 OFFCURVE",
"444 294 CURVE",
"476 294 OFFCURVE",
"500 300 OFFCURVE",
"516 310 CURVE",
"525 323 OFFCURVE",
"529 342 OFFCURVE",
"529 367 CURVE SMOOTH"
);
}
);
width = 850;
}
);
unicode = 0052;
},
{
glyphname = T;
lastChange = "2015-10-17 22:56:41 +0000";
layers = (
{
layerId = "7A0FC40B-77F8-4D14-AD08-D047673E78CB";
name = Regular;
paths = (
{
closed = 1;
nodes = (
"570 407 LINE",
"584 -1 LINE",
"281 -12 LINE",
"295 418 LINE",
"133 425 LINE",
"133 576 LINE",
"336 579 OFFCURVE",
"540 582 OFFCURVE",
"744 586 CURVE",
"744 401 LINE"
);
}
);
width = 749;
}
);
unicode = 0054;
},
{
glyphname = T_A;
lastChange = "2015-10-17 22:56:41 +0000";
layers = (
{
layerId = "7A0FC40B-77F8-4D14-AD08-D047673E78CB";
name = Regular;
paths = (
{
closed = 1;
nodes = (
"692 415 LINE",
"709 -1 LINE",
"403 -12 LINE",
"417 418 LINE",
"255 425 LINE",
"255 576 LINE",
"305 577 OFFCURVE",
"385 578 OFFCURVE",
"479 579 CURVE SMOOTH",
"525 579 OFFCURVE",
"575 579 OFFCURVE",
"628 580 CURVE SMOOTH",
"733 580 OFFCURVE",
"841 581 OFFCURVE",
"947 582 CURVE SMOOTH",
"999 583 OFFCURVE",
"1048 583 OFFCURVE",
"1095 584 CURVE SMOOTH",
"1189 584 OFFCURVE",
"1269 586 OFFCURVE",
"1319 586 CURVE",
"1325 434 LINE"
);
},
{
closed = 1;
nodes = (
"751 8 LINE",
"784 76 OFFCURVE",
"812 139 OFFCURVE",
"836 202 CURVE SMOOTH",
"859 265 OFFCURVE",
"880 328 OFFCURVE",
"899 398 CURVE",
"965 398 OFFCURVE",
"1041 400 OFFCURVE",
"1116 402 CURVE SMOOTH",
"1191 405 OFFCURVE",
"1266 409 OFFCURVE",
"1326 413 CURVE",
"1339 341 OFFCURVE",
"1354 274 OFFCURVE",
"1374 208 CURVE SMOOTH",
"1394 142 OFFCURVE",
"1416 75 OFFCURVE",
"1445 3 CURVE",
"1338 0 OFFCURVE",
"1235 -5 OFFCURVE",
"1124 -12 CURVE",
"1105 81 LINE",
"992 81 LINE",
"967 -8 LINE"
);
},
{
closed = 1;
nodes = (
"1051 239 LINE",
"1029 184 LINE",
"1082 190 LINE",
"1062 242 LINE"
);
}
);
width = 1450;
}
);
},
{
glyphname = T_E;
lastChange = "2015-10-17 22:56:41 +0000";
layers = (
{
layerId = "7A0FC40B-77F8-4D14-AD08-D047673E78CB";
name = Regular;
paths = (
{
closed = 1;
nodes = (
"671 451 LINE",
"688 -1 LINE",
"382 -12 LINE",
"396 418 LINE",
"234 425 LINE",
"234 576 LINE",
"284 577 OFFCURVE",
"364 578 OFFCURVE",
"458 579 CURVE SMOOTH",
"504 579 OFFCURVE",
"554 579 OFFCURVE",
"606 580 CURVE SMOOTH",
"711 580 OFFCURVE",
"820 581 OFFCURVE",
"925 582 CURVE SMOOTH",
"978 583 OFFCURVE",
"1027 583 OFFCURVE",
"1074 584 CURVE SMOOTH",
"1168 584 OFFCURVE",
"1248 586 OFFCURVE",
"1298 586 CURVE",
"1304 470 LINE"
);
},
{
closed = 1;
nodes = (
"1323 130 LINE",
"1311 -1 LINE",
"1126 -1 OFFCURVE",
"944 -5 OFFCURVE",
"759 -12 CURVE",
"768 127 OFFCURVE",
"768 276 OFFCURVE",
"768 421 CURVE",
"1312 440 LINE",
"1302 295 LINE",
"1261 297 OFFCURVE",
"1220 298 OFFCURVE",
"1178 298 CURVE SMOOTH",
"1135 298 OFFCURVE",
"1093 298 OFFCURVE",
"1049 299 CURVE",
"1049 257 LINE",
"1267 257 LINE",
"1253 160 LINE",
"1040 152 LINE",
"1049 121 LINE"
);
}
);
width = 1338;
}
);
},
{
glyphname = T_I;
lastChange = "2015-10-17 22:56:41 +0000";
layers = (
{
layerId = "7A0FC40B-77F8-4D14-AD08-D047673E78CB";
name = Regular;
paths = (
{
closed = 1;
nodes = (
"619 415 LINE",
"636 -1 LINE",
"330 -12 LINE",
"344 418 LINE",
"182 425 LINE",
"182 576 LINE",
"216 577 OFFCURVE",
"255 577 OFFCURVE",
"300 578 CURVE SMOOTH",
"345 578 OFFCURVE",
"393 578 OFFCURVE",
"444 579 CURVE SMOOTH",
"494 580 OFFCURVE",
"546 580 OFFCURVE",
"600 581 CURVE SMOOTH",
"707 581 OFFCURVE",
"809 583 OFFCURVE",
"899 585 CURVE SMOOTH",
"945 586 OFFCURVE",
"984 586 OFFCURVE",
"1018 586 CURVE",
"1024 434 LINE"
);
},
{
closed = 1;
nodes = (
"1017 -1 LINE",
"715 -12 LINE",
"734 386 LINE",
"1008 396 LINE"
);
}
);
width = 1034;
}
);
},
{
glyphname = K;
lastChange = "2015-10-17 22:56:41 +0000";
layers = (
{
layerId = "7A0FC40B-77F8-4D14-AD08-D047673E78CB";
name = Regular;
paths = (
{
closed = 1;
nodes = (
"693 305 LINE",
"789 -1 LINE",
"513 -12 LINE",
"430 221 LINE",
"410 227 LINE",
"422 -3 LINE",
"145 -12 LINE",
"158 176 OFFCURVE",
"163 371 OFFCURVE",
"163 576 CURVE",
"459 586 LINE",
"442 384 LINE",
"454 388 LINE",
"530 586 LINE",
"788 576 LINE"
);
}
);
width = 789;
}
);
unicode = 004B;
},
{
glyphname = J;
lastChange = "2015-10-17 22:56:41 +0000";
layers = (
{
layerId = "7A0FC40B-77F8-4D14-AD08-D047673E78CB";
name = Regular;
paths = (
{
closed = 1;
nodes = (
"611 481 OFFCURVE",
"613 397 OFFCURVE",
"613 330 CURVE SMOOTH",
"613 274 OFFCURVE",
"611 227 OFFCURVE",
"604 181 CURVE SMOOTH",
"597 133 OFFCURVE",
"587 87 OFFCURVE",
"570 37 CURVE",
"511 5 OFFCURVE",
"424 -12 OFFCURVE",
"307 -12 CURVE SMOOTH",
"280 -12 OFFCURVE",
"247 -10 OFFCURVE",
"212 -7 CURVE SMOOTH",
"177 -5 OFFCURVE",
"141 -1 OFFCURVE",
"111 3 CURVE",
"122 137 LINE",
"145 133 OFFCURVE",
"192 128 OFFCURVE",
"229 128 CURVE SMOOTH",
"258 128 OFFCURVE",
"281 133 OFFCURVE",
"298 142 CURVE",
"307 151 OFFCURVE",
"313 164 OFFCURVE",
"314 183 CURVE SMOOTH",
"333 576 LINE",
"607 586 LINE"
);
}
);
width = 634;
}
);
unicode = 004A;
},
{
glyphname = Q;
lastChange = "2015-10-17 22:56:41 +0000";
layers = (
{
layerId = "7A0FC40B-77F8-4D14-AD08-D047673E78CB";
name = Regular;
paths = (
{
closed = 1;
nodes = (
"213 54 OFFCURVE",
"192 88 OFFCURVE",
"178 130 CURVE SMOOTH",
"164 171 OFFCURVE",
"157 220 OFFCURVE",
"157 282 CURVE SMOOTH",
"157 340 OFFCURVE",
"163 387 OFFCURVE",
"175 428 CURVE SMOOTH",
"187 468 OFFCURVE",
"204 501 OFFCURVE",
"227 532 CURVE",
"293 568 OFFCURVE",
"391 585 OFFCURVE",
"520 585 CURVE SMOOTH",
"643 585 OFFCURVE",
"736 568 OFFCURVE",
"798 529 CURVE",
"835 473 OFFCURVE",
"856 403 OFFCURVE",
"856 330 CURVE SMOOTH",
"856 288 OFFCURVE",
"854 254 OFFCURVE",
"848 225 CURVE SMOOTH",
"841 194 OFFCURVE",
"833 167 OFFCURVE",
"822 140 CURVE",
"815 132 OFFCURVE",
"798 125 OFFCURVE",
"773 116 CURVE SMOOTH",
"747 107 OFFCURVE",
"715 100 OFFCURVE",
"677 93 CURVE",
"832 93 LINE",
"813 46 OFFCURVE",
"794 13 OFFCURVE",
"773 -20 CURVE",
"694 -20 OFFCURVE",
"601 -15 OFFCURVE",
"506 -7 CURVE SMOOTH",
"412 1 OFFCURVE",
"317 11 OFFCURVE",
"240 23 CURVE"
);
},
{
closed = 1;
nodes = (
"461 386 OFFCURVE",
"457 336 OFFCURVE",
"457 277 CURVE SMOOTH",
"457 191 OFFCURVE",
"459 138 OFFCURVE",
"466 105 CURVE",
"470 100 OFFCURVE",
"476 97 OFFCURVE",
"482 95 CURVE",
"508 95 LINE",
"519 97 OFFCURVE",
"529 101 OFFCURVE",
"536 109 CURVE",
"550 168 OFFCURVE",
"555 226 OFFCURVE",
"555 287 CURVE SMOOTH",
"555 359 OFFCURVE",
"550 402 OFFCURVE",
"543 430 CURVE",
"535 437 OFFCURVE",
"525 441 OFFCURVE",
"512 441 CURVE SMOOTH",
"496 441 OFFCURVE",
"482 438 OFFCURVE",
"473 432 CURVE"
);
}
);
width = 866;
}
);
unicode = 0051;
},
{
glyphname = W;
lastChange = "2015-10-17 22:56:41 +0000";
layers = (
{
layerId = "7A0FC40B-77F8-4D14-AD08-D047673E78CB";
name = Regular;
paths = (
{
closed = 1;
nodes = (
"948 437 OFFCURVE",
"967 295 OFFCURVE",
"991 152 CURVE",
"1011 293 OFFCURVE",
"1031 437 OFFCURVE",
"1048 585 CURVE",
"1265 575 LINE",
"1220 384 OFFCURVE",
"1192 195 OFFCURVE",
"1167 0 CURVE",
"1110 0 OFFCURVE",
"1044 -1 OFFCURVE",
"978 -3 CURVE SMOOTH",
"913 -5 OFFCURVE",
"849 -9 OFFCURVE",
"797 -12 CURVE",
"790 48 OFFCURVE",
"782 107 OFFCURVE",
"772 167 CURVE",
"758 111 OFFCURVE",
"744 57 OFFCURVE",
"737 0 CURVE",
"576 0 OFFCURVE",
"438 -6 OFFCURVE",
"334 -12 CURVE",
"310 183 OFFCURVE",
"277 381 OFFCURVE",
"224 576 CURVE",
"330 578 OFFCURVE",
"439 581 OFFCURVE",
"549 586 CURVE",
"559 437 OFFCURVE",
"579 295 OFFCURVE",
"603 152 CURVE",
"622 248 OFFCURVE",
"638 335 OFFCURVE",
"648 428 CURVE",
"643 453 OFFCURVE",
"637 478 OFFCURVE",
"631 503 CURVE SMOOTH",
"625 527 OFFCURVE",
"619 552 OFFCURVE",
"612 576 CURVE",
"719 578 OFFCURVE",
"828 581 OFFCURVE",
"938 586 CURVE"
);
}
);
width = 1270;
}
);
unicode = 0057;
},
{
glyphname = X;
lastChange = "2015-10-17 22:56:41 +0000";
layers = (
{
layerId = "7A0FC40B-77F8-4D14-AD08-D047673E78CB";
name = Regular;
paths = (
{
closed = 1;
nodes = (
"497 533 OFFCURVE",
"508 483 OFFCURVE",
"524 433 CURVE",
"541 483 OFFCURVE",
"555 532 OFFCURVE",
"564 585 CURVE",
"772 575 LINE",
"719 475 OFFCURVE",
"680 377 OFFCURVE",
"648 277 CURVE",
"684 186 OFFCURVE",
"724 93 OFFCURVE",
"770 -1 CURVE",
"664 -1 OFFCURVE",
"566 -5 OFFCURVE",
"453 -12 CURVE",
"440 48 OFFCURVE",
"426 107 OFFCURVE",
"407 169 CURVE",
"380 109 OFFCURVE",
"359 48 OFFCURVE",
"343 -10 CURVE",
"274 -5 OFFCURVE",
"204 -2 OFFCURVE",
"138 -2 CURVE",
"165 52 OFFCURVE",
"188 103 OFFCURVE",
"208 154 CURVE SMOOTH",
"228 205 OFFCURVE",
"246 256 OFFCURVE",
"265 314 CURVE",
"235 403 OFFCURVE",
"196 490 OFFCURVE",
"152 576 CURVE",
"261 579 OFFCURVE",
"373 581 OFFCURVE",
"486 586 CURVE"
);
}
);
width = 777;
}
);
unicode = 0058;
},
{
glyphname = Y;
lastChange = "2015-10-17 22:56:41 +0000";
layers = (
{
layerId = "7A0FC40B-77F8-4D14-AD08-D047673E78CB";
name = Regular;
paths = (
{
closed = 1;
nodes = (
"485 524 OFFCURVE",
"499 463 OFFCURVE",
"518 404 CURVE",
"546 463 OFFCURVE",
"570 522 OFFCURVE",
"584 585 CURVE",
"792 575 LINE",
"712 450 OFFCURVE",
"653 331 OFFCURVE",
"608 205 CURVE",
"615 -1 LINE",
"311 -12 LINE",
"322 195 LINE",
"275 291 OFFCURVE",
"242 362 OFFCURVE",
"213 422 CURVE SMOOTH",
"185 481 OFFCURVE",
"162 529 OFFCURVE",
"139 576 CURVE",
"248 579 OFFCURVE",
"360 581 OFFCURVE",
"473 586 CURVE"
);
}
);
width = 794;
}
);
unicode = 0059;
},
{
glyphname = Z;
lastChange = "2015-10-17 22:56:41 +0000";
layers = (
{
layerId = "7A0FC40B-77F8-4D14-AD08-D047673E78CB";
name = Regular;
paths = (
{
closed = 1;
nodes = (
"322 576 OFFCURVE",
"476 581 OFFCURVE",
"621 586 CURVE",
"629 453 LINE",
"560 350 OFFCURVE",
"501 252 OFFCURVE",
"458 148 CURVE",
"637 157 LINE",
"620 -12 LINE",
"458 -5 OFFCURVE",
"301 -2 OFFCURVE",
"123 -2 CURVE",
"123 133 LINE",
"156 178 OFFCURVE",
"192 227 OFFCURVE",
"223 276 CURVE SMOOTH",
"254 325 OFFCURVE",
"281 375 OFFCURVE",
"297 421 CURVE",
"128 433 LINE",
"144 576 LINE"
);
}
);
width = 652;
}
);
unicode = 005A;
},
{
glyphname = o;
lastChange = "2015-10-17 22:56:41 +0000";
layers = (
{
layerId = "7A0FC40B-77F8-4D14-AD08-D047673E78CB";
name = Regular;
paths = (
{
closed = 1;
nodes = (
"360 -12 OFFCURVE",
"276 0 OFFCURVE",
"217 25 CURVE",
"194 51 OFFCURVE",
"179 78 OFFCURVE",
"167 114 CURVE SMOOTH",
"155 149 OFFCURVE",
"150 190 OFFCURVE",
"150 243 CURVE SMOOTH",
"150 329 OFFCURVE",
"168 386 OFFCURVE",
"203 434 CURVE",
"264 470 OFFCURVE",
"355 487 OFFCURVE",
"475 487 CURVE SMOOTH",
"597 487 OFFCURVE",
"689 470 OFFCURVE",
"750 431 CURVE",
"763 405 OFFCURVE",
"774 381 OFFCURVE",
"780 352 CURVE SMOOTH",
"787 323 OFFCURVE",
"791 290 OFFCURVE",
"791 249 CURVE SMOOTH",
"791 204 OFFCURVE",
"787 170 OFFCURVE",
"780 138 CURVE SMOOTH",
"773 107 OFFCURVE",
"762 79 OFFCURVE",
"749 50 CURVE",
"689 9 OFFCURVE",
"594 -12 OFFCURVE",
"466 -12 CURVE SMOOTH"
);
},
{
closed = 1;
nodes = (
"427 298 OFFCURVE",
"423 265 OFFCURVE",
"423 228 CURVE SMOOTH",
"423 178 OFFCURVE",
"423 145 OFFCURVE",
"432 126 CURVE",
"439 119 OFFCURVE",
"451 115 OFFCURVE",
"467 115 CURVE SMOOTH",
"493 115 OFFCURVE",
"508 136 OFFCURVE",
"513 173 CURVE SMOOTH",
"516 191 OFFCURVE",
"517 213 OFFCURVE",
"517 238 CURVE SMOOTH",
"517 286 OFFCURVE",
"512 319 OFFCURVE",
"504 338 CURVE",
"497 344 OFFCURVE",
"489 344 OFFCURVE",
"476 344 CURVE SMOOTH",
"459 344 OFFCURVE",
"450 341 OFFCURVE",
"440 332 CURVE"
);
}
);
width = 806;
}
);
unicode = 006F;
},
{
glyphname = a;
lastChange = "2015-10-17 22:56:41 +0000";
layers = (
{
layerId = "7A0FC40B-77F8-4D14-AD08-D047673E78CB";
name = Regular;
paths = (
{
closed = 1;
nodes = (
"212 299 OFFCURVE",
"236 307 OFFCURVE",
"262 311 CURVE SMOOTH",
"289 315 OFFCURVE",
"317 317 OFFCURVE",
"350 317 CURVE SMOOTH",
"399 317 OFFCURVE",
"449 309 OFFCURVE",
"486 294 CURVE",
"486 314 OFFCURVE",
"480 332 OFFCURVE",
"466 345 CURVE",
"437 351 OFFCURVE",
"401 354 OFFCURVE",
"375 354 CURVE SMOOTH",
"339 354 OFFCURVE",
"309 350 OFFCURVE",
"287 344 CURVE",
"274 342 OFFCURVE",
"262 338 OFFCURVE",
"251 335 CURVE",
"245 385 OFFCURVE",
"228 422 OFFCURVE",
"208 459 CURVE",
"242 470 OFFCURVE",
"281 478 OFFCURVE",
"332 485 CURVE SMOOTH",
"356 488 OFFCURVE",
"385 490 OFFCURVE",
"416 490 CURVE SMOOTH",
"468 490 OFFCURVE",
"520 487 OFFCURVE",
"570 480 CURVE SMOOTH",
"621 472 OFFCURVE",
"669 458 OFFCURVE",
"711 436 CURVE",
"734 413 OFFCURVE",
"747 375 OFFCURVE",
"756 328 CURVE SMOOTH",
"766 282 OFFCURVE",
"768 229 OFFCURVE",
"768 179 CURVE SMOOTH",
"768 140 OFFCURVE",
"766 104 OFFCURVE",
"764 73 CURVE SMOOTH",
"763 57 OFFCURVE",
"761 43 OFFCURVE",
"761 31 CURVE",
"759 19 OFFCURVE",
"758 8 OFFCURVE",
"757 0 CURVE",
"661 -1 OFFCURVE",
"566 -6 OFFCURVE",
"476 -14 CURVE",
"476 -7 LINE SMOOTH",
"476 -5 OFFCURVE",
"476 -2 OFFCURVE",
"476 1 CURVE SMOOTH",
"476 4 OFFCURVE",
"476 7 OFFCURVE",
"477 11 CURVE",
"451 -1 OFFCURVE",
"402 -17 OFFCURVE",
"323 -17 CURVE SMOOTH",
"270 -17 OFFCURVE",
"232 -10 OFFCURVE",
"186 6 CURVE",
"170 27 OFFCURVE",
"161 52 OFFCURVE",
"155 79 CURVE SMOOTH",
"148 105 OFFCURVE",
"146 132 OFFCURVE",
"146 157 CURVE SMOOTH",
"146 216 OFFCURVE",
"163 253 OFFCURVE",
"185 286 CURVE"
);
},
{
closed = 1;
nodes = (
"488 205 OFFCURVE",
"476 207 OFFCURVE",
"460 207 CURVE SMOOTH",
"450 207 OFFCURVE",
"435 205 OFFCURVE",
"424 202 CURVE",
"418 191 OFFCURVE",
"416 176 OFFCURVE",
"416 157 CURVE SMOOTH",
"416 144 OFFCURVE",
"417 133 OFFCURVE",
"423 125 CURVE",
"432 121 OFFCURVE",
"443 119 OFFCURVE",
"453 119 CURVE SMOOTH",
"461 119 OFFCURVE",
"468 120 OFFCURVE",
"474 121 CURVE SMOOTH",
"479 122 OFFCURVE",
"485 123 OFFCURVE",
"491 124 CURVE",
"500 151 OFFCURVE",
"502 176 OFFCURVE",
"504 201 CURVE"
);
}
);
width = 790;
}
);
unicode = 0061;
},
{
glyphname = b;
lastChange = "2015-10-17 22:56:41 +0000";
layers = (
{
layerId = "7A0FC40B-77F8-4D14-AD08-D047673E78CB";
name = Regular;
paths = (
{
closed = 1;
nodes = (
"411 35 LINE",
"409 -2 LINE",
"323 -3 OFFCURVE",
"244 -5 OFFCURVE",
"165 -12 CURVE",
"165 186 OFFCURVE",
"165 380 OFFCURVE",
"148 575 CURVE",
"446 586 LINE",
"441 487 LINE",
"470 490 OFFCURVE",
"496 491 OFFCURVE",
"519 491 CURVE SMOOTH",
"605 491 OFFCURVE",
"663 477 OFFCURVE",
"723 453 CURVE",
"746 421 OFFCURVE",
"759 390 OFFCURVE",
"768 356 CURVE SMOOTH",
"778 321 OFFCURVE",
"780 283 OFFCURVE",
"780 237 CURVE SMOOTH",
"780 162 OFFCURVE",
"766 88 OFFCURVE",
"740 35 CURVE",
"653 -7 OFFCURVE",
"551 -13 OFFCURVE",
"444 -13 CURVE"
);
},
{
closed = 1;
nodes = (
"415 274 OFFCURVE",
"416 212 OFFCURVE",
"428 142 CURVE",
"445 142 OFFCURVE",
"459 144 OFFCURVE",
"478 155 CURVE",
"487 181 OFFCURVE",
"498 224 OFFCURVE",
"498 274 CURVE SMOOTH",
"498 297 OFFCURVE",
"493 318 OFFCURVE",
"486 333 CURVE",
"462 342 OFFCURVE",
"437 347 OFFCURVE",
"415 347 CURVE"
);
}
);
width = 805;
}
);
unicode = 0062;
},
{
glyphname = c;
lastChange = "2015-10-17 22:56:41 +0000";
layers = (
{
layerId = "7A0FC40B-77F8-4D14-AD08-D047673E78CB";
name = Regular;
paths = (
{
closed = 1;
nodes = (
"244 479 OFFCURVE",
"322 490 OFFCURVE",
"412 490 CURVE SMOOTH",
"474 490 OFFCURVE",
"524 483 OFFCURVE",
"586 469 CURVE",
"571 422 OFFCURVE",
"564 368 OFFCURVE",
"564 329 CURVE",
"545 332 OFFCURVE",
"517 333 OFFCURVE",
"497 333 CURVE SMOOTH",
"467 333 OFFCURVE",
"443 331 OFFCURVE",
"408 320 CURVE",
"399 298 OFFCURVE",
"396 263 OFFCURVE",
"396 234 CURVE SMOOTH",
"396 199 OFFCURVE",
"405 170 OFFCURVE",
"417 144 CURVE",
"443 135 OFFCURVE",
"465 132 OFFCURVE",
"487 132 CURVE SMOOTH",
"517 132 OFFCURVE",
"545 134 OFFCURVE",
"566 140 CURVE",
"568 101 OFFCURVE",
"572 51 OFFCURVE",
"588 10 CURVE",
"528 -4 OFFCURVE",
"472 -13 OFFCURVE",
"400 -13 CURVE SMOOTH",
"314 -13 OFFCURVE",
"228 -7 OFFCURVE",
"155 35 CURVE",
"128 88 OFFCURVE",
"114 162 OFFCURVE",
"114 237 CURVE SMOOTH",
"114 313 OFFCURVE",
"126 378 OFFCURVE",
"171 450 CURVE"
);
}
);
width = 593;
}
);
unicode = 0063;
},
{
glyphname = d;
lastChange = "2015-10-17 22:56:41 +0000";
layers = (
{
layerId = "7A0FC40B-77F8-4D14-AD08-D047673E78CB";
name = Regular;
paths = (
{
closed = 1;
nodes = (
"420 -13 OFFCURVE",
"367 -10 OFFCURVE",
"318 -3 CURVE SMOOTH",
"269 4 OFFCURVE",
"226 13 OFFCURVE",
"196 25 CURVE",
"161 78 OFFCURVE",
"138 151 OFFCURVE",
"138 234 CURVE SMOOTH",
"138 317 OFFCURVE",
"156 383 OFFCURVE",
"191 438 CURVE",
"252 474 OFFCURVE",
"343 491 OFFCURVE",
"463 491 CURVE SMOOTH",
"479 491 LINE",
"472 575 LINE",
"770 586 LINE",
"733 -2 LINE",
"690 -2 OFFCURVE",
"656 -4 OFFCURVE",
"621 -5 CURVE SMOOTH",
"587 -6 OFFCURVE",
"553 -9 OFFCURVE",
"514 -12 CURVE",
"509 34 LINE",
"504 27 OFFCURVE",
"499 22 OFFCURVE",
"495 16 CURVE SMOOTH",
"491 10 OFFCURVE",
"487 4 OFFCURVE",
"483 0 CURVE SMOOTH",
"479 -5 OFFCURVE",
"476 -9 OFFCURVE",
"473 -13 CURVE"
);
},
{
closed = 1;
nodes = (
"481 355 OFFCURVE",
"456 351 OFFCURVE",
"432 342 CURVE",
"425 323 OFFCURVE",
"420 300 OFFCURVE",
"420 274 CURVE SMOOTH",
"420 224 OFFCURVE",
"430 181 OFFCURVE",
"440 155 CURVE",
"459 144 OFFCURVE",
"472 142 OFFCURVE",
"490 142 CURVE",
"502 214 OFFCURVE",
"503 281 OFFCURVE",
"503 355 CURVE"
);
}
);
width = 780;
}
);
unicode = 0064;
},
{
glyphname = e;
lastChange = "2015-10-17 22:56:41 +0000";
layers = (
{
layerId = "7A0FC40B-77F8-4D14-AD08-D047673E78CB";
name = Regular;
paths = (
{
closed = 1;
nodes = (
"475 181 OFFCURVE",
"450 181 OFFCURVE",
"426 185 CURVE",
"429 169 OFFCURVE",
"434 156 OFFCURVE",
"438 144 CURVE",
"483 135 OFFCURVE",
"520 132 OFFCURVE",
"557 132 CURVE SMOOTH",
"617 132 OFFCURVE",
"667 137 OFFCURVE",
"710 144 CURVE",
"713 105 OFFCURVE",
"719 55 OFFCURVE",
"733 14 CURVE",
"660 -2 OFFCURVE",
"592 -13 OFFCURVE",
"504 -13 CURVE SMOOTH",
"384 -13 OFFCURVE",
"272 -7 OFFCURVE",
"176 35 CURVE",
"149 88 OFFCURVE",
"135 162 OFFCURVE",
"135 237 CURVE SMOOTH",
"135 313 OFFCURVE",
"147 378 OFFCURVE",
"192 450 CURVE",
"275 479 OFFCURVE",
"362 490 OFFCURVE",
"466 490 CURVE SMOOTH",
"516 490 OFFCURVE",
"559 487 OFFCURVE",
"603 481 CURVE SMOOTH",
"646 475 OFFCURVE",
"689 466 OFFCURVE",
"739 452 CURVE",
"752 420 OFFCURVE",
"755 384 OFFCURVE",
"755 345 CURVE SMOOTH",
"755 289 OFFCURVE",
"747 231 OFFCURVE",
"731 192 CURVE",
"664 183 OFFCURVE",
"582 181 OFFCURVE",
"502 181 CURVE SMOOTH"
);
},
{
closed = 1;
nodes = (
"472 350 OFFCURVE",
"448 347 OFFCURVE",
"412 337 CURVE",
"408 321 OFFCURVE",
"405 305 OFFCURVE",
"403 289 CURVE",
"436 289 OFFCURVE",
"471 289 OFFCURVE",
"510 293 CURVE",
"510 301 OFFCURVE",
"509 310 OFFCURVE",
"508 319 CURVE SMOOTH",
"507 328 OFFCURVE",
"505 339 OFFCURVE",
"502 350 CURVE"
);
}
);
width = 770;
}
);
unicode = 0065;
},
{
glyphname = f;
lastChange = "2015-10-17 22:56:41 +0000";
layers = (
{
layerId = "7A0FC40B-77F8-4D14-AD08-D047673E78CB";
name = Regular;
paths = (
{
closed = 1;
nodes = (
"209 378 LINE",
"216 444 OFFCURVE",
"228 499 OFFCURVE",
"247 532 CURVE",
"322 569 OFFCURVE",
"416 586 OFFCURVE",
"509 586 CURVE SMOOTH",
"568 586 OFFCURVE",
"617 576 OFFCURVE",
"653 566 CURVE SMOOTH",
"673 561 OFFCURVE",
"691 554 OFFCURVE",
"708 547 CURVE",
"696 508 OFFCURVE",
"686 473 OFFCURVE",
"682 423 CURVE",
"666 426 OFFCURVE",
"648 428 OFFCURVE",
"627 429 CURVE",
"616 430 OFFCURVE",
"604 430 OFFCURVE",
"591 430 CURVE SMOOTH",
"559 430 OFFCURVE",
"518 427 OFFCURVE",
"484 417 CURVE",
"478 408 OFFCURVE",
"474 399 OFFCURVE",
"471 389 CURVE",
"666 396 LINE",
"666 219 LINE",
"479 227 LINE",
"480 194 OFFCURVE",
"480 158 OFFCURVE",
"481 119 CURVE SMOOTH",
"481 80 OFFCURVE",
"484 40 OFFCURVE",
"490 0 CURVE",
"393 -1 OFFCURVE",
"299 -6 OFFCURVE",
"209 -13 CURVE",
"206 0 OFFCURVE",
"203 24 OFFCURVE",
"200 54 CURVE SMOOTH",
"196 83 OFFCURVE",
"194 116 OFFCURVE",
"194 148 CURVE SMOOTH",
"194 166 OFFCURVE",
"194 184 OFFCURVE",
"194 201 CURVE SMOOTH",
"194 218 OFFCURVE",
"195 236 OFFCURVE",
"196 253 CURVE",
"150 255 LINE",
"143 375 LINE"
);
}
);
width = 683;
}
);
unicode = 0066;
},
{
glyphname = g;
lastChange = "2015-10-17 22:56:41 +0000";
layers = (
{
layerId = "7A0FC40B-77F8-4D14-AD08-D047673E78CB";
name = Regular;
paths = (
{
closed = 1;
nodes = (
"754 421 OFFCURVE",
"753 388 OFFCURVE",
"753 359 CURVE SMOOTH",
"753 310 OFFCURVE",
"755 269 OFFCURVE",
"756 230 CURVE SMOOTH",
"756 211 OFFCURVE",
"756 192 OFFCURVE",
"757 175 CURVE SMOOTH",
"758 157 OFFCURVE",
"758 139 OFFCURVE",
"758 120 CURVE SMOOTH",
"758 70 OFFCURVE",
"756 20 OFFCURVE",
"746 -25 CURVE SMOOTH",
"737 -70 OFFCURVE",
"724 -107 OFFCURVE",
"701 -129 CURVE",
"618 -171 OFFCURVE",
"516 -191 OFFCURVE",
"414 -191 CURVE SMOOTH",
"341 -191 OFFCURVE",
"283 -180 OFFCURVE",
"241 -168 CURVE SMOOTH",
"216 -161 OFFCURVE",
"194 -153 OFFCURVE",
"174 -144 CURVE",
"194 -107 OFFCURVE",
"210 -70 OFFCURVE",
"217 -20 CURVE",
"243 -27 OFFCURVE",
"274 -33 OFFCURVE",
"311 -36 CURVE SMOOTH",
"330 -38 OFFCURVE",
"351 -39 OFFCURVE",
"373 -39 CURVE SMOOTH",
"397 -39 OFFCURVE",
"429 -39 OFFCURVE",
"456 -30 CURVE",
"470 -9 OFFCURVE",
"476 13 OFFCURVE",
"476 39 CURVE",
"441 23 OFFCURVE",
"394 16 OFFCURVE",
"348 16 CURVE SMOOTH",
"281 16 OFFCURVE",
"236 21 OFFCURVE",
"184 46 CURVE",
"161 92 OFFCURVE",
"144 142 OFFCURVE",
"144 217 CURVE SMOOTH",
"144 253 OFFCURVE",
"146 292 OFFCURVE",
"153 330 CURVE SMOOTH",
"159 368 OFFCURVE",
"169 404 OFFCURVE",
"184 435 CURVE",
"230 450 OFFCURVE",
"269 458 OFFCURVE",
"322 458 CURVE SMOOTH",
"400 458 OFFCURVE",
"450 437 OFFCURVE",
"475 421 CURVE",
"475 426 OFFCURVE",
"475 429 OFFCURVE",
"475 432 CURVE SMOOTH",
"475 435 OFFCURVE",
"475 437 OFFCURVE",
"475 440 CURVE SMOOTH",
"475 446 LINE",
"565 452 OFFCURVE",
"659 458 OFFCURVE",
"756 458 CURVE"
);
},
{
closed = 1;
nodes = (
"496 186 OFFCURVE",
"497 210 OFFCURVE",
"497 235 CURVE SMOOTH",
"497 254 OFFCURVE",
"495 273 OFFCURVE",
"491 290 CURVE",
"459 297 OFFCURVE",
"432 298 OFFCURVE",
"405 298 CURVE",
"399 280 OFFCURVE",
"397 262 OFFCURVE",
"397 244 CURVE SMOOTH",
"397 217 OFFCURVE",
"407 194 OFFCURVE",
"421 168 CURVE",
"430 158 OFFCURVE",
"441 158 OFFCURVE",
"451 158 CURVE SMOOTH",
"460 158 OFFCURVE",
"467 159 OFFCURVE",
"474 160 CURVE",
"480 161 OFFCURVE",
"487 163 OFFCURVE",
"494 164 CURVE"
);
}
);
width = 790;
}
);
unicode = 0067;
},
{
glyphname = h;
lastChange = "2015-10-17 22:56:41 +0000";
layers = (
{
layerId = "7A0FC40B-77F8-4D14-AD08-D047673E78CB";
name = Regular;
paths = (
{
closed = 1;
nodes = (
"418 -2 LINE",
"329 -3 OFFCURVE",
"243 -5 OFFCURVE",
"162 -12 CURVE",
"162 186 OFFCURVE",
"162 380 OFFCURVE",
"144 576 CURVE",
"443 586 LINE",
"438 462 LINE",
"486 486 OFFCURVE",
"526 491 OFFCURVE",
"565 491 CURVE SMOOTH",
"631 491 OFFCURVE",
"674 477 OFFCURVE",
"720 453 CURVE",
"745 390 OFFCURVE",
"752 328 OFFCURVE",
"752 238 CURVE SMOOTH",
"752 200 OFFCURVE",
"753 153 OFFCURVE",
"754 108 CURVE SMOOTH",
"756 62 OFFCURVE",
"758 21 OFFCURVE",
"760 -5 CURVE",
"720 -5 OFFCURVE",
"680 -4 OFFCURVE",
"640 -4 CURVE SMOOTH",
"587 -4 OFFCURVE",
"534 -6 OFFCURVE",
"477 -12 CURVE",
"490 74 OFFCURVE",
"493 146 OFFCURVE",
"493 208 CURVE SMOOTH",
"493 254 OFFCURVE",
"486 294 OFFCURVE",
"476 328 CURVE",
"453 328 OFFCURVE",
"434 323 OFFCURVE",
"411 310 CURVE"
);
}
);
width = 780;
}
);
unicode = 0068;
},
{
glyphname = i;
lastChange = "2015-10-17 22:56:41 +0000";
layers = (
{
layerId = "7A0FC40B-77F8-4D14-AD08-D047673E78CB";
name = Regular;
paths = (
{
closed = 1;
nodes = (
"339 419 LINE",
"293 424 OFFCURVE",
"249 426 OFFCURVE",
"207 426 CURVE SMOOTH",
"165 426 OFFCURVE",
"126 424 OFFCURVE",
"88 422 CURVE",
"88 428 OFFCURVE",
"88 433 OFFCURVE",
"88 439 CURVE SMOOTH",
"88 444 OFFCURVE",
"88 449 OFFCURVE",
"88 454 CURVE SMOOTH",
"88 497 OFFCURVE",
"84 533 OFFCURVE",
"78 576 CURVE",
"376 586 LINE"
);
},
{
closed = 1;
nodes = (
"359 -2 LINE",
"271 -3 OFFCURVE",
"177 -5 OFFCURVE",
"95 -12 CURVE",
"95 121 OFFCURVE",
"95 253 OFFCURVE",
"89 386 CURVE",
"100 386 OFFCURVE",
"110 386 OFFCURVE",
"121 386 CURVE SMOOTH",
"131 386 OFFCURVE",
"142 386 OFFCURVE",
"153 386 CURVE SMOOTH",
"221 386 OFFCURVE",
"288 389 OFFCURVE",
"351 395 CURVE"
);
}
);
width = 401;
}
);
unicode = 0069;
},
{
glyphname = l;
lastChange = "2015-10-17 22:56:41 +0000";
layers = (
{
layerId = "7A0FC40B-77F8-4D14-AD08-D047673E78CB";
name = Regular;
paths = (
{
closed = 1;
nodes = (
"357 468 OFFCURVE",
"352 355 OFFCURVE",
"352 238 CURVE SMOOTH",
"352 158 OFFCURVE",
"354 78 OFFCURVE",
"358 -2 CURVE",
"269 -3 OFFCURVE",
"175 -5 OFFCURVE",
"93 -12 CURVE",
"93 9 OFFCURVE",
"93 36 OFFCURVE",
"93 68 CURVE SMOOTH",
"93 100 OFFCURVE",
"93 133 OFFCURVE",
"93 170 CURVE SMOOTH",
"93 243 OFFCURVE",
"92 323 OFFCURVE",
"92 395 CURVE SMOOTH",
"91 468 OFFCURVE",
"90 533 OFFCURVE",
"87 576 CURVE",
"98 576 OFFCURVE",
"108 576 OFFCURVE",
"119 576 CURVE SMOOTH",
"130 576 OFFCURVE",
"140 576 OFFCURVE",
"151 576 CURVE SMOOTH",
"220 576 OFFCURVE",
"303 576 OFFCURVE",
"366 585 CURVE"
);
}
);
width = 391;
}
);
unicode = 006C;
},
{
glyphname = j;
lastChange = "2015-10-17 22:56:41 +0000";
layers = (
{
layerId = "7A0FC40B-77F8-4D14-AD08-D047673E78CB";
name = Regular;
paths = (
{
closed = 1;
nodes = (
"78 545 LINE",
"376 555 LINE",
"369 512 OFFCURVE",
"365 466 OFFCURVE",
"365 423 CURVE SMOOTH",
"365 418 OFFCURVE",
"365 413 OFFCURVE",
"365 408 CURVE SMOOTH",
"365 402 OFFCURVE",
"365 397 OFFCURVE",
"366 391 CURVE",
"327 393 OFFCURVE",
"288 395 OFFCURVE",
"246 395 CURVE SMOOTH",
"204 395 OFFCURVE",
"147 389 OFFCURVE",
"97 380 CURVE"
);
},
{
closed = 1;
nodes = (
"100 354 OFFCURVE",
"110 354 OFFCURVE",
"121 354 CURVE SMOOTH",
"131 354 OFFCURVE",
"142 354 OFFCURVE",
"153 354 CURVE SMOOTH",
"221 354 OFFCURVE",
"288 358 OFFCURVE",
"351 364 CURVE",
"351 315 OFFCURVE",
"354 273 OFFCURVE",
"356 233 CURVE SMOOTH",
"357 213 OFFCURVE",
"359 194 OFFCURVE",
"359 176 CURVE SMOOTH",
"360 157 OFFCURVE",
"361 139 OFFCURVE",
"361 120 CURVE SMOOTH",
"361 70 OFFCURVE",
"359 20 OFFCURVE",
"350 -25 CURVE SMOOTH",
"340 -70 OFFCURVE",
"327 -107 OFFCURVE",
"304 -129 CURVE",
"221 -171 OFFCURVE",
"119 -191 OFFCURVE",
"17 -191 CURVE",
"15 -144 OFFCURVE",
"2 -93 OFFCURVE",
"-24 -47 CURVE",
"0 -47 OFFCURVE",
"32 -47 OFFCURVE",
"59 -38 CURVE",
"85 41 OFFCURVE",
"94 129 OFFCURVE",
"94 222 CURVE SMOOTH",
"94 264 OFFCURVE",
"93 309 OFFCURVE",
"89 355 CURVE"
);
}
);
width = 401;
}
);
unicode = 006A;
},
{
glyphname = k;
lastChange = "2015-10-17 22:56:41 +0000";
layers = (
{
layerId = "7A0FC40B-77F8-4D14-AD08-D047673E78CB";
name = Regular;
paths = (
{
closed = 1;
nodes = (
"456 220 OFFCURVE",
"437 215 OFFCURVE",
"415 203 CURVE",
"422 -2 LINE",
"334 -2 OFFCURVE",
"247 -5 OFFCURVE",
"165 -12 CURVE",
"165 186 OFFCURVE",
"165 380 OFFCURVE",
"148 576 CURVE",
"446 586 LINE",
"438 371 LINE",
"487 397 OFFCURVE",
"517 434 OFFCURVE",
"534 490 CURVE",
"614 483 OFFCURVE",
"694 479 OFFCURVE",
"777 479 CURVE",
"768 440 OFFCURVE",
"747 400 OFFCURVE",
"728 370 CURVE SMOOTH",
"717 352 OFFCURVE",
"705 334 OFFCURVE",
"692 319 CURVE",
"723 307 LINE",
"763 225 OFFCURVE",
"779 134 OFFCURVE",
"781 24 CURVE",
"532 -4 LINE",
"525 69 OFFCURVE",
"505 151 OFFCURVE",
"479 220 CURVE"
);
}
);
width = 780;
}
);
unicode = 006B;
},
{
glyphname = n;
lastChange = "2015-10-17 22:56:41 +0000";
layers = (
{
layerId = "7A0FC40B-77F8-4D14-AD08-D047673E78CB";
name = Regular;
paths = (
{
closed = 1;
nodes = (
"413 -2 LINE",
"325 -3 OFFCURVE",
"239 -5 OFFCURVE",
"157 -12 CURVE",
"157 30 OFFCURVE",
"157 71 OFFCURVE",
"157 112 CURVE SMOOTH",
"157 193 OFFCURVE",
"156 272 OFFCURVE",
"154 352 CURVE SMOOTH",
"152 392 OFFCURVE",
"150 433 OFFCURVE",
"148 475 CURVE",
"446 486 LINE",
"441 436 LINE",
"500 476 OFFCURVE",
"547 486 OFFCURVE",
"593 486 CURVE SMOOTH",
"656 486 OFFCURVE",
"698 468 OFFCURVE",
"740 439 CURVE",
"772 369 OFFCURVE",
"781 302 OFFCURVE",
"781 236 CURVE SMOOTH",
"781 196 OFFCURVE",
"779 157 OFFCURVE",
"774 118 CURVE SMOOTH",
"769 78 OFFCURVE",
"766 37 OFFCURVE",
"764 -5 CURVE",
"724 -5 OFFCURVE",
"683 -4 OFFCURVE",
"644 -4 CURVE SMOOTH",
"591 -4 OFFCURVE",
"537 -6 OFFCURVE",
"481 -12 CURVE",
"493 41 OFFCURVE",
"497 89 OFFCURVE",
"497 125 CURVE SMOOTH",
"497 188 OFFCURVE",
"489 240 OFFCURVE",
"479 286 CURVE",
"457 286 OFFCURVE",
"436 276 OFFCURVE",
"415 257 CURVE"
);
}
);
width = 801;
}
);
unicode = 006E;
},
{
glyphname = m;
lastChange = "2015-10-17 22:56:41 +0000";
layers = (
{
layerId = "7A0FC40B-77F8-4D14-AD08-D047673E78CB";
name = Regular;
paths = (
{
closed = 1;
nodes = (
"811 186 OFFCURVE",
"814 92 OFFCURVE",
"820 0 CURVE",
"780 0 OFFCURVE",
"729 1 OFFCURVE",
"689 1 CURVE SMOOTH",
"636 1 OFFCURVE",
"582 -1 OFFCURVE",
"526 -7 CURVE",
"539 46 OFFCURVE",
"542 89 OFFCURVE",
"542 125 CURVE SMOOTH",
"542 185 OFFCURVE",
"535 234 OFFCURVE",
"525 278 CURVE",
"506 278 OFFCURVE",
"489 271 OFFCURVE",
"473 257 CURVE",
"483 -2 LINE",
"395 -3 OFFCURVE",
"309 -5 OFFCURVE",
"227 -12 CURVE",
"227 157 OFFCURVE",
"227 321 OFFCURVE",
"210 489 CURVE",
"508 479 LINE",
"503 442 LINE",
"555 475 OFFCURVE",
"598 483 OFFCURVE",
"639 483 CURVE SMOOTH",
"692 483 OFFCURVE",
"725 476 OFFCURVE",
"747 468 CURVE SMOOTH",
"759 464 OFFCURVE",
"769 459 OFFCURVE",
"777 453 CURVE",
"802 467 OFFCURVE",
"830 477 OFFCURVE",
"866 486 CURVE SMOOTH",
"884 490 OFFCURVE",
"904 491 OFFCURVE",
"925 491 CURVE SMOOTH",
"1001 491 OFFCURVE",
"1053 477 OFFCURVE",
"1105 453 CURVE",
"1124 395 OFFCURVE",
"1130 312 OFFCURVE",
"1134 227 CURVE SMOOTH",
"1135 185 OFFCURVE",
"1135 143 OFFCURVE",
"1135 102 CURVE SMOOTH",
"1135 62 OFFCURVE",
"1136 25 OFFCURVE",
"1137 -5 CURVE",
"1097 -5 OFFCURVE",
"1057 -4 OFFCURVE",
"1017 -4 CURVE SMOOTH",
"964 -4 OFFCURVE",
"911 -6 OFFCURVE",
"854 -12 CURVE",
"867 41 OFFCURVE",
"870 89 OFFCURVE",
"870 125 CURVE SMOOTH",
"870 198 OFFCURVE",
"867 257 OFFCURVE",
"861 311 CURVE",
"843 311 OFFCURVE",
"825 304 OFFCURVE",
"809 290 CURVE"
);
}
);
width = 1157;
}
);
unicode = 006D;
},
{
glyphname = p;
lastChange = "2015-10-17 22:56:41 +0000";
layers = (
{
layerId = "7A0FC40B-77F8-4D14-AD08-D047673E78CB";
name = Regular;
paths = (
{
closed = 1;
nodes = (
"751 397 OFFCURVE",
"763 365 OFFCURVE",
"770 329 CURVE SMOOTH",
"778 292 OFFCURVE",
"780 253 OFFCURVE",
"780 206 CURVE SMOOTH",
"780 131 OFFCURVE",
"766 57 OFFCURVE",
"740 4 CURVE",
"653 -38 OFFCURVE",
"551 -44 OFFCURVE",
"444 -44 CURVE",
"411 -21 LINE",
"421 -182 LINE",
"333 -183 OFFCURVE",
"247 -185 OFFCURVE",
"165 -192 CURVE",
"165 -164 OFFCURVE",
"165 -132 OFFCURVE",
"165 -97 CURVE SMOOTH",
"165 -28 OFFCURVE",
"165 49 OFFCURVE",
"163 129 CURVE SMOOTH",
"162 209 OFFCURVE",
"159 287 OFFCURVE",
"155 356 CURVE SMOOTH",
"153 390 OFFCURVE",
"150 421 OFFCURVE",
"148 449 CURVE",
"446 460 LINE",
"441 410 LINE",
"500 450 OFFCURVE",
"547 460 OFFCURVE",
"593 460 CURVE SMOOTH",
"653 460 OFFCURVE",
"692 449 OFFCURVE",
"731 430 CURVE"
);
},
{
closed = 1;
nodes = (
"415 230 OFFCURVE",
"417 179 OFFCURVE",
"436 119 CURVE",
"450 119 OFFCURVE",
"462 121 OFFCURVE",
"478 132 CURVE",
"487 152 OFFCURVE",
"498 182 OFFCURVE",
"498 218 CURVE SMOOTH",
"498 241 OFFCURVE",
"493 262 OFFCURVE",
"486 277 CURVE",
"462 287 OFFCURVE",
"437 291 OFFCURVE",
"415 291 CURVE"
);
}
);
width = 805;
}
);
unicode = 0070;
},
{
glyphname = q;
lastChange = "2015-10-17 22:56:41 +0000";
layers = (
{
layerId = "7A0FC40B-77F8-4D14-AD08-D047673E78CB";
name = Regular;
paths = (
{
closed = 1;
nodes = (
"444 -35 OFFCURVE",
"397 -42 OFFCURVE",
"351 -42 CURVE SMOOTH",
"284 -42 OFFCURVE",
"239 -37 OFFCURVE",
"187 -12 CURVE",
"164 51 OFFCURVE",
"147 119 OFFCURVE",
"147 217 CURVE SMOOTH",
"147 253 OFFCURVE",
"149 291 OFFCURVE",
"156 329 CURVE SMOOTH",
"162 368 OFFCURVE",
"172 404 OFFCURVE",
"187 434 CURVE",
"233 450 OFFCURVE",
"272 458 OFFCURVE",
"325 458 CURVE SMOOTH",
"403 458 OFFCURVE",
"453 437 OFFCURVE",
"478 421 CURVE",
"477 425 OFFCURVE",
"477 429 OFFCURVE",
"477 432 CURVE SMOOTH",
"477 434 OFFCURVE",
"477 437 OFFCURVE",
"477 439 CURVE SMOOTH",
"477 446 LINE",
"573 452 OFFCURVE",
"673 458 OFFCURVE",
"775 458 CURVE",
"775 344 OFFCURVE",
"771 239 OFFCURVE",
"766 135 CURVE SMOOTH",
"763 83 OFFCURVE",
"760 31 OFFCURVE",
"758 -21 CURVE SMOOTH",
"755 -73 OFFCURVE",
"753 -127 OFFCURVE",
"751 -182 CURVE",
"663 -183 OFFCURVE",
"577 -185 OFFCURVE",
"495 -192 CURVE",
"494 -136 OFFCURVE",
"488 -80 OFFCURVE",
"479 -19 CURVE"
);
},
{
closed = 1;
nodes = (
"503 163 OFFCURVE",
"504 196 OFFCURVE",
"504 235 CURVE SMOOTH",
"504 244 OFFCURVE",
"503 253 OFFCURVE",
"502 263 CURVE",
"501 272 OFFCURVE",
"499 281 OFFCURVE",
"498 290 CURVE",
"475 296 OFFCURVE",
"454 298 OFFCURVE",
"433 298 CURVE",
"427 280 OFFCURVE",
"425 262 OFFCURVE",
"425 244 CURVE SMOOTH",
"425 207 OFFCURVE",
"435 171 OFFCURVE",
"449 134 CURVE",
"458 125 OFFCURVE",
"469 125 OFFCURVE",
"479 125 CURVE SMOOTH",
"483 125 OFFCURVE",
"487 125 OFFCURVE",
"491 127 CURVE",
"494 128 OFFCURVE",
"497 129 OFFCURVE",
"501 130 CURVE"
);
}
);
width = 790;
}
);
unicode = 0071;
},
{
glyphname = r;
lastChange = "2015-10-17 22:56:41 +0000";
layers = (
{
layerId = "7A0FC40B-77F8-4D14-AD08-D047673E78CB";
name = Regular;
paths = (
{
closed = 1;
nodes = (
"594 273 OFFCURVE",
"561 277 OFFCURVE",
"527 277 CURVE SMOOTH",
"478 277 OFFCURVE",
"431 271 OFFCURVE",
"389 257 CURVE",
"398 -2 LINE",
"309 -3 OFFCURVE",
"221 -5 OFFCURVE",
"139 -12 CURVE",
"139 71 OFFCURVE",
"139 154 OFFCURVE",
"137 235 CURVE SMOOTH",
"134 316 OFFCURVE",
"131 397 OFFCURVE",
"122 481 CURVE",
"420 491 LINE",
"415 442 LINE",
"457 481 OFFCURVE",
"493 491 OFFCURVE",
"526 491 CURVE SMOOTH",
"569 491 OFFCURVE",
"595 487 OFFCURVE",
"623 478 CURVE",
"620 452 OFFCURVE",
"618 425 OFFCURVE",
"618 396 CURVE SMOOTH",
"618 353 OFFCURVE",
"621 309 OFFCURVE",
"630 264 CURVE"
);
}
);
width = 635;
}
);
unicode = 0072;
},
{
glyphname = s;
lastChange = "2015-10-17 22:56:41 +0000";
layers = (
{
layerId = "7A0FC40B-77F8-4D14-AD08-D047673E78CB";
name = Regular;
paths = (
{
closed = 1;
nodes = (
"121 366 OFFCURVE",
"124 412 OFFCURVE",
"155 458 CURVE",
"233 487 OFFCURVE",
"315 499 OFFCURVE",
"412 499 CURVE SMOOTH",
"474 499 OFFCURVE",
"524 491 OFFCURVE",
"586 477 CURVE",
"579 454 OFFCURVE",
"573 426 OFFCURVE",
"570 399 CURVE SMOOTH",
"566 373 OFFCURVE",
"564 348 OFFCURVE",
"564 329 CURVE",
"545 332 OFFCURVE",
"517 333 OFFCURVE",
"497 333 CURVE SMOOTH",
"465 333 OFFCURVE",
"438 332 OFFCURVE",
"400 328 CURVE",
"400 316 OFFCURVE",
"401 311 OFFCURVE",
"404 305 CURVE",
"457 303 OFFCURVE",
"504 297 OFFCURVE",
"556 285 CURVE",
"585 242 OFFCURVE",
"588 199 OFFCURVE",
"588 163 CURVE SMOOTH",
"588 124 OFFCURVE",
"580 71 OFFCURVE",
"548 35 CURVE",
"475 -7 OFFCURVE",
"389 -13 OFFCURVE",
"302 -13 CURVE SMOOTH",
"230 -13 OFFCURVE",
"174 -4 OFFCURVE",
"114 10 CURVE",
"130 51 OFFCURVE",
"134 101 OFFCURVE",
"137 140 CURVE",
"157 134 OFFCURVE",
"186 132 OFFCURVE",
"215 132 CURVE SMOOTH",
"239 132 OFFCURVE",
"266 133 OFFCURVE",
"294 137 CURVE",
"294 149 OFFCURVE",
"290 161 OFFCURVE",
"284 170 CURVE",
"273 171 OFFCURVE",
"263 173 OFFCURVE",
"254 175 CURVE",
"235 177 OFFCURVE",
"216 180 OFFCURVE",
"193 187 CURVE",
"181 189 OFFCURVE",
"168 194 OFFCURVE",
"153 199 CURVE",
"128 232 OFFCURVE",
"121 279 OFFCURVE",
"121 328 CURVE SMOOTH"
);
}
);
width = 593;
}
);
unicode = 0073;
},
{
glyphname = t;
lastChange = "2015-10-17 22:56:41 +0000";
layers = (
{
layerId = "7A0FC40B-77F8-4D14-AD08-D047673E78CB";
name = Regular;
paths = (
{
closed = 1;
nodes = (
"118 256 LINE",
"126 403 LINE",
"175 404 LINE",
"175 427 OFFCURVE",
"179 461 OFFCURVE",
"193 494 CURVE",
"283 508 OFFCURVE",
"377 522 OFFCURVE",
"474 522 CURVE",
"463 489 OFFCURVE",
"463 456 OFFCURVE",
"463 430 CURVE",
"567 436 LINE",
"567 260 LINE",
"446 267 LINE",
"450 228 OFFCURVE",
"454 184 OFFCURVE",
"460 148 CURVE",
"479 134 OFFCURVE",
"501 131 OFFCURVE",
"517 131 CURVE SMOOTH",
"531 131 OFFCURVE",
"542 133 OFFCURVE",
"551 136 CURVE SMOOTH",
"557 137 OFFCURVE",
"562 139 OFFCURVE",
"566 142 CURVE",
"566 95 OFFCURVE",
"563 61 OFFCURVE",
"560 26 CURVE",
"541 12 OFFCURVE",
"522 0 OFFCURVE",
"495 -7 CURVE SMOOTH",
"482 -11 OFFCURVE",
"467 -13 OFFCURVE",
"451 -13 CURVE SMOOTH",
"369 -13 OFFCURVE",
"281 4 OFFCURVE",
"214 41 CURVE",
"198 87 OFFCURVE",
"190 164 OFFCURVE",
"184 253 CURVE"
);
}
);
width = 587;
}
);
unicode = 0074;
},
{
glyphname = u;
lastChange = "2015-10-17 22:56:41 +0000";
layers = (
{
layerId = "7A0FC40B-77F8-4D14-AD08-D047673E78CB";
name = Regular;
paths = (
{
closed = 1;
nodes = (
"482 486 LINE",
"576 486 OFFCURVE",
"665 488 OFFCURVE",
"751 495 CURVE",
"751 324 OFFCURVE",
"751 167 OFFCURVE",
"760 -1 CURVE",
"462 -12 LINE",
"467 38 LINE",
"408 -2 OFFCURVE",
"361 -12 OFFCURVE",
"315 -12 CURVE SMOOTH",
"258 -12 OFFCURVE",
"222 2 OFFCURVE",
"185 26 CURVE",
"159 90 OFFCURVE",
"153 152 OFFCURVE",
"153 242 CURVE SMOOTH",
"153 261 OFFCURVE",
"153 281 OFFCURVE",
"153 304 CURVE SMOOTH",
"153 349 OFFCURVE",
"153 395 OFFCURVE",
"156 435 CURVE SMOOTH",
"157 455 OFFCURVE",
"158 471 OFFCURVE",
"161 485 CURVE",
"196 484 OFFCURVE",
"233 483 OFFCURVE",
"268 483 CURVE SMOOTH",
"321 483 OFFCURVE",
"375 485 OFFCURVE",
"431 491 CURVE",
"425 441 OFFCURVE",
"424 394 OFFCURVE",
"424 358 CURVE SMOOTH",
"424 299 OFFCURVE",
"427 249 OFFCURVE",
"433 205 CURVE",
"454 205 OFFCURVE",
"474 214 OFFCURVE",
"493 231 CURVE"
);
}
);
width = 780;
}
);
unicode = 0075;
},
{
glyphname = v;
lastChange = "2015-10-17 22:56:41 +0000";
layers = (
{
layerId = "7A0FC40B-77F8-4D14-AD08-D047673E78CB";
name = Regular;
paths = (
{
closed = 1;
nodes = (
"288 -12 LINE",
"271 75 OFFCURVE",
"246 155 OFFCURVE",
"219 235 CURVE SMOOTH",
"205 275 OFFCURVE",
"191 315 OFFCURVE",
"177 357 CURVE SMOOTH",
"163 397 OFFCURVE",
"149 440 OFFCURVE",
"136 485 CURVE",
"171 484 OFFCURVE",
"208 483 OFFCURVE",
"243 483 CURVE SMOOTH",
"296 483 OFFCURVE",
"350 485 OFFCURVE",
"406 491 CURVE",
"409 399 OFFCURVE",
"419 308 OFFCURVE",
"449 222 CURVE",
"466 305 OFFCURVE",
"474 396 OFFCURVE",
"474 486 CURVE",
"572 486 OFFCURVE",
"667 488 OFFCURVE",
"759 495 CURVE",
"676 324 OFFCURVE",
"622 167 OFFCURVE",
"586 -1 CURVE"
);
}
);
width = 764;
}
);
unicode = 0076;
},
{
glyphname = w;
lastChange = "2015-10-17 22:56:41 +0000";
layers = (
{
layerId = "7A0FC40B-77F8-4D14-AD08-D047673E78CB";
name = Regular;
paths = (
{
closed = 1;
nodes = (
"693 -12 LINE",
"683 68 OFFCURVE",
"670 156 OFFCURVE",
"654 233 CURVE",
"637 157 OFFCURVE",
"623 75 OFFCURVE",
"611 -1 CURVE",
"337 -12 LINE",
"322 75 OFFCURVE",
"300 155 OFFCURVE",
"276 235 CURVE SMOOTH",
"264 275 OFFCURVE",
"251 315 OFFCURVE",
"239 357 CURVE SMOOTH",
"226 397 OFFCURVE",
"213 440 OFFCURVE",
"202 485 CURVE",
"237 484 OFFCURVE",
"274 483 OFFCURVE",
"309 483 CURVE SMOOTH",
"359 483 OFFCURVE",
"410 485 OFFCURVE",
"464 491 CURVE",
"466 399 OFFCURVE",
"473 308 OFFCURVE",
"499 222 CURVE",
"522 305 OFFCURVE",
"532 396 OFFCURVE",
"532 486 CURVE",
"570 484 OFFCURVE",
"606 483 OFFCURVE",
"640 483 CURVE SMOOTH",
"689 483 OFFCURVE",
"741 485 OFFCURVE",
"794 491 CURVE",
"797 399 OFFCURVE",
"803 308 OFFCURVE",
"829 222 CURVE",
"852 305 OFFCURVE",
"862 396 OFFCURVE",
"862 486 CURVE",
"958 486 OFFCURVE",
"1050 488 OFFCURVE",
"1139 495 CURVE",
"1056 324 OFFCURVE",
"1002 167 OFFCURVE",
"966 -1 CURVE"
);
}
);
width = 1144;
}
);
unicode = 0077;
},
{
glyphname = x;
lastChange = "2015-10-17 22:56:41 +0000";
layers = (
{
layerId = "7A0FC40B-77F8-4D14-AD08-D047673E78CB";
name = Regular;
paths = (
{
closed = 1;
nodes = (
"723 419 OFFCURVE",
"694 351 OFFCURVE",
"671 281 CURVE",
"684 233 OFFCURVE",
"698 186 OFFCURVE",
"714 141 CURVE SMOOTH",
"729 95 OFFCURVE",
"745 48 OFFCURVE",
"759 -1 CURVE",
"723 0 OFFCURVE",
"687 0 OFFCURVE",
"652 0 CURVE SMOOTH",
"599 0 OFFCURVE",
"545 -1 OFFCURVE",
"489 -8 CURVE",
"485 48 OFFCURVE",
"476 100 OFFCURVE",
"446 154 CURVE",
"428 104 OFFCURVE",
"421 55 OFFCURVE",
"421 -2 CURVE",
"323 -3 OFFCURVE",
"228 -5 OFFCURVE",
"136 -12 CURVE",
"171 64 OFFCURVE",
"200 131 OFFCURVE",
"223 203 CURVE",
"211 250 OFFCURVE",
"197 297 OFFCURVE",
"181 343 CURVE SMOOTH",
"166 388 OFFCURVE",
"150 435 OFFCURVE",
"136 485 CURVE",
"171 484 OFFCURVE",
"208 483 OFFCURVE",
"243 483 CURVE SMOOTH",
"296 483 OFFCURVE",
"350 485 OFFCURVE",
"406 491 CURVE",
"409 436 OFFCURVE",
"419 383 OFFCURVE",
"449 329 CURVE",
"466 380 OFFCURVE",
"474 428 OFFCURVE",
"474 486 CURVE",
"572 486 OFFCURVE",
"667 488 OFFCURVE",
"759 495 CURVE"
);
}
);
width = 764;
}
);
unicode = 0078;
},
{
glyphname = y;
lastChange = "2015-10-17 22:56:41 +0000";
layers = (
{
layerId = "7A0FC40B-77F8-4D14-AD08-D047673E78CB";
name = Regular;
paths = (
{
closed = 1;
nodes = (
"720 363 OFFCURVE",
"690 266 OFFCURVE",
"666 168 CURVE SMOOTH",
"642 69 OFFCURVE",
"623 -27 OFFCURVE",
"610 -129 CURVE",
"490 -171 OFFCURVE",
"351 -191 OFFCURVE",
"199 -191 CURVE",
"197 -138 OFFCURVE",
"190 -80 OFFCURVE",
"175 -31 CURVE",
"191 -31 OFFCURVE",
"209 -31 OFFCURVE",
"228 -31 CURVE SMOOTH",
"266 -31 OFFCURVE",
"304 -30 OFFCURVE",
"343 -27 CURVE",
"362 -26 OFFCURVE",
"380 -24 OFFCURVE",
"398 -22 CURVE",
"376 -16 OFFCURVE",
"351 -9 OFFCURVE",
"324 -3 CURVE SMOOTH",
"297 2 OFFCURVE",
"272 8 OFFCURVE",
"249 14 CURVE",
"233 88 OFFCURVE",
"216 158 OFFCURVE",
"197 229 CURVE SMOOTH",
"187 264 OFFCURVE",
"177 300 OFFCURVE",
"166 337 CURVE SMOOTH",
"156 374 OFFCURVE",
"146 413 OFFCURVE",
"136 454 CURVE",
"171 453 OFFCURVE",
"208 452 OFFCURVE",
"243 452 CURVE SMOOTH",
"296 452 OFFCURVE",
"350 454 OFFCURVE",
"406 460 CURVE",
"409 368 OFFCURVE",
"419 277 OFFCURVE",
"449 191 CURVE",
"466 273 OFFCURVE",
"474 365 OFFCURVE",
"474 454 CURVE",
"572 455 OFFCURVE",
"667 457 OFFCURVE",
"759 464 CURVE"
);
}
);
width = 764;
}
);
unicode = 0079;
},
{
glyphname = z;
lastChange = "2015-10-17 22:56:41 +0000";
layers = (
{
layerId = "7A0FC40B-77F8-4D14-AD08-D047673E78CB";
name = Regular;
paths = (
{
closed = 1;
nodes = (
"302 481 OFFCURVE",
"446 485 OFFCURVE",
"581 494 CURVE",
"589 358 LINE",
"527 286 OFFCURVE",
"474 221 OFFCURVE",
"435 148 CURVE",
"597 157 LINE",
"580 -12 LINE",
"428 -5 OFFCURVE",
"280 -2 OFFCURVE",
"116 -2 CURVE",
"116 133 LINE",
"143 162 OFFCURVE",
"175 194 OFFCURVE",
"202 227 CURVE SMOOTH",
"228 260 OFFCURVE",
"252 294 OFFCURVE",
"266 326 CURVE",
"121 338 LINE",
"137 481 LINE"
);
}
);
width = 617;
}
);
unicode = 007A;
},
{
glyphname = acute;
lastChange = "2015-10-17 22:56:41 +0000";
layers = (
{
layerId = "7A0FC40B-77F8-4D14-AD08-D047673E78CB";
name = Regular;
paths = (
{
closed = 1;
nodes = (
"113 664 OFFCURVE",
"179 672 OFFCURVE",
"243 682 CURVE SMOOTH",
"306 691 OFFCURVE",
"370 702 OFFCURVE",
"423 716 CURVE",
"426 662 OFFCURVE",
"435 622 OFFCURVE",
"446 577 CURVE",
"329 573 OFFCURVE",
"205 566 OFFCURVE",
"85 547 CURVE",
"82 584 OFFCURVE",
"72 620 OFFCURVE",
"56 659 CURVE"
);
}
);
width = 457;
}
);
unicode = 00B4;
},
{
glyphname = a_peq;
lastChange = "2015-10-17 22:56:41 +0000";
layers = (
{
layerId = "7A0FC40B-77F8-4D14-AD08-D047673E78CB";
name = Regular;
paths = (
{
closed = 1;
nodes = (
"224 271 OFFCURVE",
"274 276 OFFCURVE",
"346 276 CURVE SMOOTH",
"394 276 OFFCURVE",
"442 271 OFFCURVE",
"478 265 CURVE",
"478 277 OFFCURVE",
"474 287 OFFCURVE",
"466 295 CURVE",
"437 301 OFFCURVE",
"401 304 OFFCURVE",
"375 304 CURVE SMOOTH",
"335 304 OFFCURVE",
"300 301 OFFCURVE",
"275 299 CURVE SMOOTH",
"261 297 OFFCURVE",
"247 295 OFFCURVE",
"235 294 CURVE",
"229 343 OFFCURVE",
"212 381 OFFCURVE",
"192 418 CURVE",
"228 425 OFFCURVE",
"270 432 OFFCURVE",
"325 437 CURVE SMOOTH",
"352 439 OFFCURVE",
"382 440 OFFCURVE",
"416 440 CURVE SMOOTH",
"519 440 OFFCURVE",
"626 432 OFFCURVE",
"711 395 CURVE",
"734 375 OFFCURVE",
"747 339 OFFCURVE",
"756 298 CURVE SMOOTH",
"766 257 OFFCURVE",
"768 209 OFFCURVE",
"768 162 CURVE SMOOTH",
"768 93 OFFCURVE",
"761 28 OFFCURVE",
"757 0 CURVE",
"661 -1 OFFCURVE",
"566 -6 OFFCURVE",
"476 -14 CURVE",
"476 -7 LINE SMOOTH",
"476 -5 OFFCURVE",
"476 -2 OFFCURVE",
"476 1 CURVE SMOOTH",
"476 4 OFFCURVE",
"476 7 OFFCURVE",
"477 11 CURVE",
"451 -1 OFFCURVE",
"402 -17 OFFCURVE",
"323 -17 CURVE SMOOTH",
"270 -17 OFFCURVE",
"232 -10 OFFCURVE",
"186 6 CURVE",
"154 46 OFFCURVE",
"146 100 OFFCURVE",
"146 149 CURVE SMOOTH",
"146 198 OFFCURVE",
"156 226 OFFCURVE",
"169 253 CURVE"
);
},
{
closed = 1;
nodes = (
"488 172 OFFCURVE",
"476 174 OFFCURVE",
"460 174 CURVE SMOOTH",
"449 174 OFFCURVE",
"432 172 OFFCURVE",
"420 169 CURVE",
"417 163 OFFCURVE",
"415 156 OFFCURVE",
"415 148 CURVE SMOOTH",
"415 138 OFFCURVE",
"416 131 OFFCURVE",
"418 125 CURVE",
"428 121 OFFCURVE",
"441 119 OFFCURVE",
"453 119 CURVE SMOOTH",
"470 119 OFFCURVE",
"481 121 OFFCURVE",
"494 124 CURVE",
"501 140 OFFCURVE",
"502 152 OFFCURVE",
"504 168 CURVE"
);
}
);
width = 790;
}
);
},
{
glyphname = aacute;
lastChange = "2015-10-17 22:56:41 +0000";
layers = (
{
layerId = "7A0FC40B-77F8-4D14-AD08-D047673E78CB";
name = Regular;
paths = (
{
closed = 1;
nodes = (
"224 271 OFFCURVE",
"274 276 OFFCURVE",
"346 276 CURVE SMOOTH",
"394 276 OFFCURVE",
"442 271 OFFCURVE",
"478 265 CURVE",
"478 277 OFFCURVE",
"474 287 OFFCURVE",
"466 295 CURVE",
"437 301 OFFCURVE",
"401 304 OFFCURVE",
"375 304 CURVE SMOOTH",
"335 304 OFFCURVE",
"300 301 OFFCURVE",
"275 299 CURVE SMOOTH",
"261 297 OFFCURVE",
"247 295 OFFCURVE",
"235 294 CURVE",
"229 343 OFFCURVE",
"212 381 OFFCURVE",
"192 418 CURVE",
"228 425 OFFCURVE",
"270 432 OFFCURVE",
"325 437 CURVE SMOOTH",
"352 439 OFFCURVE",
"382 440 OFFCURVE",
"416 440 CURVE SMOOTH",
"519 440 OFFCURVE",
"626 432 OFFCURVE",
"711 395 CURVE",
"734 375 OFFCURVE",
"747 339 OFFCURVE",
"756 298 CURVE SMOOTH",
"766 257 OFFCURVE",
"768 209 OFFCURVE",
"768 162 CURVE SMOOTH",
"768 93 OFFCURVE",
"761 28 OFFCURVE",
"757 0 CURVE",
"661 -1 OFFCURVE",
"566 -6 OFFCURVE",
"476 -14 CURVE",
"476 -7 LINE SMOOTH",
"476 -5 OFFCURVE",
"476 -2 OFFCURVE",
"476 1 CURVE SMOOTH",
"476 4 OFFCURVE",
"476 7 OFFCURVE",
"477 11 CURVE",
"451 -1 OFFCURVE",
"402 -17 OFFCURVE",
"323 -17 CURVE SMOOTH",
"270 -17 OFFCURVE",
"232 -10 OFFCURVE",
"186 6 CURVE",
"154 46 OFFCURVE",
"146 100 OFFCURVE",
"146 149 CURVE SMOOTH",
"146 198 OFFCURVE",
"156 226 OFFCURVE",
"169 253 CURVE"
);
},
{
closed = 1;
nodes = (
"488 172 OFFCURVE",
"476 174 OFFCURVE",
"460 174 CURVE SMOOTH",
"449 174 OFFCURVE",
"432 172 OFFCURVE",
"420 169 CURVE",
"417 163 OFFCURVE",
"415 156 OFFCURVE",
"415 148 CURVE SMOOTH",
"415 138 OFFCURVE",
"416 131 OFFCURVE",
"418 125 CURVE",
"428 121 OFFCURVE",
"441 119 OFFCURVE",
"453 119 CURVE SMOOTH",
"470 119 OFFCURVE",
"481 121 OFFCURVE",
"494 124 CURVE",
"501 140 OFFCURVE",
"502 152 OFFCURVE",
"504 168 CURVE"
);
},
{
closed = 1;
nodes = (
"339 566 OFFCURVE",
"405 574 OFFCURVE",
"469 584 CURVE SMOOTH",
"532 593 OFFCURVE",
"596 604 OFFCURVE",
"649 618 CURVE",
"652 564 OFFCURVE",
"661 524 OFFCURVE",
"672 479 CURVE",
"556 475 OFFCURVE",
"431 468 OFFCURVE",
"311 449 CURVE",
"308 486 OFFCURVE",
"298 522 OFFCURVE",
"282 561 CURVE"
);
}
);
width = 790;
}
);
unicode = 00E1;
},
{
glyphname = e_peq;
lastChange = "2015-10-17 22:56:41 +0000";
layers = (
{
layerId = "7A0FC40B-77F8-4D14-AD08-D047673E78CB";
name = Regular;
paths = (
{
closed = 1;
nodes = (
"475 173 OFFCURVE",
"450 173 OFFCURVE",
"426 176 CURVE",
"429 164 OFFCURVE",
"434 154 OFFCURVE",
"438 144 CURVE",
"483 135 OFFCURVE",
"520 132 OFFCURVE",
"557 132 CURVE SMOOTH",
"617 132 OFFCURVE",
"667 137 OFFCURVE",
"710 144 CURVE",
"713 105 OFFCURVE",
"719 55 OFFCURVE",
"733 14 CURVE",
"660 -2 OFFCURVE",
"592 -13 OFFCURVE",
"504 -13 CURVE SMOOTH",
"384 -13 OFFCURVE",
"272 -7 OFFCURVE",
"176 35 CURVE",
"149 85 OFFCURVE",
"135 157 OFFCURVE",
"135 229 CURVE SMOOTH",
"135 293 OFFCURVE",
"145 350 OFFCURVE",
"184 413 CURVE",
"270 436 OFFCURVE",
"359 445 OFFCURVE",
"466 445 CURVE SMOOTH",
"515 445 OFFCURVE",
"556 442 OFFCURVE",
"599 437 CURVE SMOOTH",
"641 432 OFFCURVE",
"682 425 OFFCURVE",
"731 415 CURVE",
"750 383 OFFCURVE",
"755 347 OFFCURVE",
"755 312 CURVE SMOOTH",
"755 266 OFFCURVE",
"747 216 OFFCURVE",
"731 184 CURVE",
"664 175 OFFCURVE",
"582 173 OFFCURVE",
"502 173 CURVE SMOOTH"
);
},
{
closed = 1;
nodes = (
"472 325 OFFCURVE",
"448 323 OFFCURVE",
"412 312 CURVE",
"408 303 OFFCURVE",
"405 292 OFFCURVE",
"403 280 CURVE",
"436 280 OFFCURVE",
"471 281 OFFCURVE",
"510 285 CURVE",
"510 290 OFFCURVE",
"509 297 OFFCURVE",
"508 304 CURVE SMOOTH",
"507 310 OFFCURVE",
"505 318 OFFCURVE",
"502 325 CURVE"
);
}
);
width = 770;
}
);
},
{
glyphname = eacute;
lastChange = "2015-10-17 22:56:41 +0000";
layers = (
{
layerId = "7A0FC40B-77F8-4D14-AD08-D047673E78CB";
name = Regular;
paths = (
{
closed = 1;
nodes = (
"475 173 OFFCURVE",
"450 173 OFFCURVE",
"426 176 CURVE",
"429 164 OFFCURVE",
"434 154 OFFCURVE",
"438 144 CURVE",
"483 135 OFFCURVE",
"520 132 OFFCURVE",
"557 132 CURVE SMOOTH",
"617 132 OFFCURVE",
"667 137 OFFCURVE",
"710 144 CURVE",
"713 105 OFFCURVE",
"719 55 OFFCURVE",
"733 14 CURVE",
"660 -2 OFFCURVE",
"592 -13 OFFCURVE",
"504 -13 CURVE SMOOTH",
"384 -13 OFFCURVE",
"272 -7 OFFCURVE",
"176 35 CURVE",
"149 85 OFFCURVE",
"135 157 OFFCURVE",
"135 229 CURVE SMOOTH",
"135 293 OFFCURVE",
"145 350 OFFCURVE",
"184 413 CURVE",
"270 436 OFFCURVE",
"359 445 OFFCURVE",
"466 445 CURVE SMOOTH",
"515 445 OFFCURVE",
"556 442 OFFCURVE",
"599 437 CURVE SMOOTH",
"641 432 OFFCURVE",
"682 425 OFFCURVE",
"731 415 CURVE",
"750 383 OFFCURVE",
"755 347 OFFCURVE",
"755 312 CURVE SMOOTH",
"755 266 OFFCURVE",
"747 216 OFFCURVE",
"731 184 CURVE",
"664 175 OFFCURVE",
"582 173 OFFCURVE",
"502 173 CURVE SMOOTH"
);
},
{
closed = 1;
nodes = (
"472 325 OFFCURVE",
"448 323 OFFCURVE",
"412 312 CURVE",
"408 303 OFFCURVE",
"405 292 OFFCURVE",
"403 280 CURVE",
"436 280 OFFCURVE",
"471 281 OFFCURVE",
"510 285 CURVE",
"510 290 OFFCURVE",
"509 297 OFFCURVE",
"508 304 CURVE SMOOTH",
"507 310 OFFCURVE",
"505 318 OFFCURVE",
"502 325 CURVE"
);
},
{
closed = 1;
nodes = (
"329 567 OFFCURVE",
"395 575 OFFCURVE",
"458 585 CURVE SMOOTH",
"522 594 OFFCURVE",
"586 605 OFFCURVE",
"638 618 CURVE",
"642 565 OFFCURVE",
"651 525 OFFCURVE",
"662 480 CURVE",
"545 475 OFFCURVE",
"420 469 OFFCURVE",
"300 450 CURVE",
"298 487 OFFCURVE",
"287 523 OFFCURVE",
"272 561 CURVE"
);
}
);
width = 770;
}
);
unicode = 00E9;
},
{
glyphname = dotlessi;
lastChange = "2015-10-17 22:56:41 +0000";
layers = (
{
layerId = "7A0FC40B-77F8-4D14-AD08-D047673E78CB";
name = Regular;
paths = (
{
closed = 1;
nodes = (
"356 -2 LINE",
"268 -3 OFFCURVE",
"173 -5 OFFCURVE",
"92 -12 CURVE",
"92 133 OFFCURVE",
"92 276 OFFCURVE",
"86 419 CURVE",
"96 419 OFFCURVE",
"106 419 OFFCURVE",
"117 419 CURVE SMOOTH",
"128 419 OFFCURVE",
"139 419 OFFCURVE",
"149 419 CURVE SMOOTH",
"218 419 OFFCURVE",
"285 419 OFFCURVE",
"348 428 CURVE"
);
}
);
width = 401;
}
);
unicode = 0131;
},
{
glyphname = iacute;
lastChange = "2015-10-17 22:56:41 +0000";
layers = (
{
layerId = "7A0FC40B-77F8-4D14-AD08-D047673E78CB";
name = Regular;
paths = (
{
closed = 1;
nodes = (
"374 -2 LINE",
"285 -3 OFFCURVE",
"191 -5 OFFCURVE",
"109 -12 CURVE",
"109 133 OFFCURVE",
"109 276 OFFCURVE",
"103 419 CURVE",
"114 419 OFFCURVE",
"124 419 OFFCURVE",
"135 419 CURVE SMOOTH",
"146 419 OFFCURVE",
"156 419 OFFCURVE",
"167 419 CURVE SMOOTH",
"236 419 OFFCURVE",
"303 419 OFFCURVE",
"365 428 CURVE"
);
},
{
closed = 1;
nodes = (
"125 567 OFFCURVE",
"191 575 OFFCURVE",
"255 585 CURVE SMOOTH",
"318 594 OFFCURVE",
"382 605 OFFCURVE",
"435 619 CURVE",
"438 565 OFFCURVE",
"447 525 OFFCURVE",
"458 480 CURVE",
"341 476 OFFCURVE",
"217 469 OFFCURVE",
"97 450 CURVE",
"94 487 OFFCURVE",
"84 523 OFFCURVE",
"68 562 CURVE"
);
}
);
width = 401;
}
);
unicode = 00ED;
},
{
glyphname = oacute;
lastChange = "2015-10-17 22:56:41 +0000";
layers = (
{
layerId = "7A0FC40B-77F8-4D14-AD08-D047673E78CB";
name = Regular;
paths = (
{
closed = 1;
nodes = (
"360 -12 OFFCURVE",
"276 0 OFFCURVE",
"217 25 CURVE",
"194 48 OFFCURVE",
"179 75 OFFCURVE",
"167 106 CURVE SMOOTH",
"155 138 OFFCURVE",
"150 175 OFFCURVE",
"150 222 CURVE SMOOTH",
"150 300 OFFCURVE",
"166 352 OFFCURVE",
"195 397 CURVE",
"258 427 OFFCURVE",
"351 442 OFFCURVE",
"475 442 CURVE SMOOTH",
"600 442 OFFCURVE",
"695 425 OFFCURVE",
"758 390 CURVE",
"769 367 OFFCURVE",
"777 345 OFFCURVE",
"783 319 CURVE SMOOTH",
"789 294 OFFCURVE",
"791 265 OFFCURVE",
"791 228 CURVE SMOOTH",
"791 189 OFFCURVE",
"787 157 OFFCURVE",
"780 129 CURVE SMOOTH",
"773 101 OFFCURVE",
"762 76 OFFCURVE",
"749 50 CURVE",
"689 9 OFFCURVE",
"594 -12 OFFCURVE",
"466 -12 CURVE SMOOTH"
);
},
{
closed = 1;
nodes = (
"427 260 OFFCURVE",
"423 235 OFFCURVE",
"423 208 CURVE SMOOTH",
"423 167 OFFCURVE",
"423 142 OFFCURVE",
"432 126 CURVE",
"439 119 OFFCURVE",
"451 115 OFFCURVE",
"467 115 CURVE SMOOTH",
"483 115 OFFCURVE",
"494 119 OFFCURVE",
"502 126 CURVE",
"514 143 OFFCURVE",
"517 176 OFFCURVE",
"517 218 CURVE SMOOTH",
"517 254 OFFCURVE",
"512 279 OFFCURVE",
"504 292 CURVE",
"497 299 OFFCURVE",
"489 299 OFFCURVE",
"476 299 CURVE SMOOTH",
"457 299 OFFCURVE",
"446 295 OFFCURVE",
"436 286 CURVE"
);
},
{
closed = 1;
nodes = (
"361 567 OFFCURVE",
"427 575 OFFCURVE",
"491 585 CURVE SMOOTH",
"555 594 OFFCURVE",
"618 605 OFFCURVE",
"671 619 CURVE",
"674 565 OFFCURVE",
"684 525 OFFCURVE",
"694 480 CURVE",
"578 476 OFFCURVE",
"453 469 OFFCURVE",
"333 450 CURVE",
"331 487 OFFCURVE",
"320 523 OFFCURVE",
"304 562 CURVE"
);
}
);
width = 806;
}
);
unicode = 00F3;
},
{
glyphname = o_peq;
lastChange = "2015-10-17 22:56:41 +0000";
layers = (
{
layerId = "7A0FC40B-77F8-4D14-AD08-D047673E78CB";
name = Regular;
paths = (
{
closed = 1;
nodes = (
"360 -12 OFFCURVE",
"276 0 OFFCURVE",
"217 25 CURVE",
"194 48 OFFCURVE",
"179 75 OFFCURVE",
"167 106 CURVE SMOOTH",
"155 138 OFFCURVE",
"150 175 OFFCURVE",
"150 222 CURVE SMOOTH",
"150 300 OFFCURVE",
"166 352 OFFCURVE",
"195 397 CURVE",
"258 427 OFFCURVE",
"351 442 OFFCURVE",
"475 442 CURVE SMOOTH",
"600 442 OFFCURVE",
"695 425 OFFCURVE",
"758 390 CURVE",
"769 367 OFFCURVE",
"777 345 OFFCURVE",
"783 319 CURVE SMOOTH",
"789 294 OFFCURVE",
"791 265 OFFCURVE",
"791 228 CURVE SMOOTH",
"791 189 OFFCURVE",
"787 157 OFFCURVE",
"780 129 CURVE SMOOTH",
"773 101 OFFCURVE",
"762 76 OFFCURVE",
"749 50 CURVE",
"689 9 OFFCURVE",
"594 -12 OFFCURVE",
"466 -12 CURVE SMOOTH"
);
},
{
closed = 1;
nodes = (
"427 260 OFFCURVE",
"423 235 OFFCURVE",
"423 208 CURVE SMOOTH",
"423 167 OFFCURVE",
"423 142 OFFCURVE",
"432 126 CURVE",
"439 119 OFFCURVE",
"451 115 OFFCURVE",
"467 115 CURVE SMOOTH",
"483 115 OFFCURVE",
"494 119 OFFCURVE",
"502 126 CURVE",
"514 143 OFFCURVE",
"517 176 OFFCURVE",
"517 218 CURVE SMOOTH",
"517 254 OFFCURVE",
"512 279 OFFCURVE",
"504 292 CURVE",
"497 299 OFFCURVE",
"489 299 OFFCURVE",
"476 299 CURVE SMOOTH",
"457 299 OFFCURVE",
"446 295 OFFCURVE",
"436 286 CURVE"
);
}
);
width = 806;
}
);
},
{
glyphname = u_peq;
lastChange = "2015-10-17 22:56:41 +0000";
layers = (
{
layerId = "7A0FC40B-77F8-4D14-AD08-D047673E78CB";
name = Regular;
paths = (
{
closed = 1;
nodes = (
"482 444 LINE",
"576 444 OFFCURVE",
"665 444 OFFCURVE",
"751 454 CURVE",
"751 414 OFFCURVE",
"751 376 OFFCURVE",
"751 338 CURVE SMOOTH",
"751 262 OFFCURVE",
"752 189 OFFCURVE",
"755 114 CURVE SMOOTH",
"756 76 OFFCURVE",
"758 38 OFFCURVE",
"760 -1 CURVE",
"462 -12 LINE",
"467 38 LINE",
"408 -2 OFFCURVE",
"361 -12 OFFCURVE",
"315 -12 CURVE SMOOTH",
"258 -12 OFFCURVE",
"222 2 OFFCURVE",
"185 26 CURVE",
"159 90 OFFCURVE",
"153 152 OFFCURVE",
"153 242 CURVE SMOOTH",
"153 301 OFFCURVE",
"155 369 OFFCURVE",
"161 435 CURVE",
"196 434 OFFCURVE",
"233 433 OFFCURVE",
"268 433 CURVE SMOOTH",
"322 433 OFFCURVE",
"375 436 OFFCURVE",
"431 442 CURVE",
"425 395 OFFCURVE",
"424 350 OFFCURVE",
"424 317 CURVE SMOOTH",
"424 274 OFFCURVE",
"427 238 OFFCURVE",
"433 205 CURVE",
"454 205 OFFCURVE",
"474 214 OFFCURVE",
"493 231 CURVE"
);
}
);
width = 780;
}
);
},
{
glyphname = uacute;
lastChange = "2015-10-17 22:56:41 +0000";
layers = (
{
layerId = "7A0FC40B-77F8-4D14-AD08-D047673E78CB";
name = Regular;
paths = (
{
closed = 1;
nodes = (
"482 444 LINE",
"576 444 OFFCURVE",
"665 444 OFFCURVE",
"751 454 CURVE",
"751 414 OFFCURVE",
"751 376 OFFCURVE",
"751 338 CURVE SMOOTH",
"751 262 OFFCURVE",
"752 189 OFFCURVE",
"755 114 CURVE SMOOTH",
"756 76 OFFCURVE",
"758 38 OFFCURVE",
"760 -1 CURVE",
"462 -12 LINE",
"467 38 LINE",
"408 -2 OFFCURVE",
"361 -12 OFFCURVE",
"315 -12 CURVE SMOOTH",
"258 -12 OFFCURVE",
"222 2 OFFCURVE",
"185 26 CURVE",
"159 90 OFFCURVE",
"153 152 OFFCURVE",
"153 242 CURVE SMOOTH",
"153 301 OFFCURVE",
"155 369 OFFCURVE",
"161 435 CURVE",
"196 434 OFFCURVE",
"233 433 OFFCURVE",
"268 433 CURVE SMOOTH",
"322 433 OFFCURVE",
"375 436 OFFCURVE",
"431 442 CURVE",
"425 395 OFFCURVE",
"424 350 OFFCURVE",
"424 317 CURVE SMOOTH",
"424 274 OFFCURVE",
"427 238 OFFCURVE",
"433 205 CURVE",
"454 205 OFFCURVE",
"474 214 OFFCURVE",
"493 231 CURVE"
);
},
{
closed = 1;
nodes = (
"304 567 OFFCURVE",
"370 575 OFFCURVE",
"434 585 CURVE SMOOTH",
"497 594 OFFCURVE",
"561 605 OFFCURVE",
"614 619 CURVE",
"617 565 OFFCURVE",
"626 525 OFFCURVE",
"637 480 CURVE",
"520 476 OFFCURVE",
"396 469 OFFCURVE",
"276 450 CURVE",
"273 487 OFFCURVE",
"262 523 OFFCURVE",
"247 562 CURVE"
);
}
);
width = 780;
}
);
unicode = 00FA;
},
{
glyphname = dotaccent;
lastChange = "2015-10-17 22:56:41 +0000";
layers = (
{
layerId = "7A0FC40B-77F8-4D14-AD08-D047673E78CB";
name = Regular;
paths = (
{
closed = 1;
nodes = (
"319 539 LINE",
"278 544 OFFCURVE",
"239 546 OFFCURVE",
"204 546 CURVE SMOOTH",
"168 546 OFFCURVE",
"134 545 OFFCURVE",
"101 542 CURVE",
"101 548 OFFCURVE",
"101 554 OFFCURVE",
"101 560 CURVE SMOOTH",
"101 565 OFFCURVE",
"101 570 OFFCURVE",
"101 575 CURVE SMOOTH",
"101 618 OFFCURVE",
"98 653 OFFCURVE",
"91 696 CURVE",
"356 707 LINE"
);
}
);
width = 391;
}
);
unicode = 02D9;
},
{
glyphname = edotaccent;
lastChange = "2015-10-17 22:56:41 +0000";
layers = (
{
layerId = "7A0FC40B-77F8-4D14-AD08-D047673E78CB";
name = Regular;
paths = (
{
closed = 1;
nodes = (
"475 173 OFFCURVE",
"450 173 OFFCURVE",
"426 176 CURVE",
"429 164 OFFCURVE",
"434 154 OFFCURVE",
"438 144 CURVE",
"483 135 OFFCURVE",
"520 132 OFFCURVE",
"557 132 CURVE SMOOTH",
"617 132 OFFCURVE",
"667 137 OFFCURVE",
"710 144 CURVE",
"713 105 OFFCURVE",
"719 55 OFFCURVE",
"733 14 CURVE",
"660 -2 OFFCURVE",
"592 -13 OFFCURVE",
"504 -13 CURVE SMOOTH",
"384 -13 OFFCURVE",
"272 -7 OFFCURVE",
"176 35 CURVE",
"149 85 OFFCURVE",
"135 157 OFFCURVE",
"135 229 CURVE SMOOTH",
"135 293 OFFCURVE",
"145 350 OFFCURVE",
"184 413 CURVE",
"270 436 OFFCURVE",
"359 445 OFFCURVE",
"466 445 CURVE SMOOTH",
"515 445 OFFCURVE",
"556 442 OFFCURVE",
"599 437 CURVE SMOOTH",
"641 432 OFFCURVE",
"682 425 OFFCURVE",
"731 415 CURVE",
"750 383 OFFCURVE",
"755 347 OFFCURVE",
"755 312 CURVE SMOOTH",
"755 266 OFFCURVE",
"747 216 OFFCURVE",
"731 184 CURVE",
"664 175 OFFCURVE",
"582 173 OFFCURVE",
"502 173 CURVE SMOOTH"
);
},
{
closed = 1;
nodes = (
"472 325 OFFCURVE",
"448 323 OFFCURVE",
"412 312 CURVE",
"408 303 OFFCURVE",
"405 292 OFFCURVE",
"403 280 CURVE",
"436 280 OFFCURVE",
"471 281 OFFCURVE",
"510 285 CURVE",
"510 290 OFFCURVE",
"509 297 OFFCURVE",
"508 304 CURVE SMOOTH",
"507 310 OFFCURVE",
"505 318 OFFCURVE",
"502 325 CURVE"
);
},
{
closed = 1;
nodes = (
"544 476 LINE",
"504 481 OFFCURVE",
"465 484 OFFCURVE",
"429 484 CURVE SMOOTH",
"393 484 OFFCURVE",
"359 482 OFFCURVE",
"326 480 CURVE",
"327 485 OFFCURVE",
"327 491 OFFCURVE",
"327 497 CURVE SMOOTH",
"327 502 OFFCURVE",
"327 507 OFFCURVE",
"327 512 CURVE SMOOTH",
"327 555 OFFCURVE",
"324 590 OFFCURVE",
"316 633 CURVE",
"581 644 LINE"
);
}
);
width = 770;
}
);
unicode = 0117;
},
{
glyphname = one;
lastChange = "2015-10-17 22:56:41 +0000";
layers = (
{
layerId = "7A0FC40B-77F8-4D14-AD08-D047673E78CB";
name = Regular;
paths = (
{
closed = 1;
nodes = (
"470 472 LINE",
"486 -2 LINE",
"398 -3 OFFCURVE",
"299 -5 OFFCURVE",
"217 -12 CURVE",
"217 126 OFFCURVE",
"217 269 OFFCURVE",
"214 410 CURVE",
"198 408 OFFCURVE",
"183 405 OFFCURVE",
"168 400 CURVE SMOOTH",
"152 396 OFFCURVE",
"137 392 OFFCURVE",
"123 389 CURVE",
"124 395 OFFCURVE",
"124 400 OFFCURVE",
"124 405 CURVE SMOOTH",
"124 411 OFFCURVE",
"124 416 OFFCURVE",
"124 421 CURVE SMOOTH",
"124 458 OFFCURVE",
"120 489 OFFCURVE",
"113 526 CURVE",
"269 580 LINE",
"337 574 OFFCURVE",
"408 570 OFFCURVE",
"478 570 CURVE"
);
}
);
width = 521;
}
);
unicode = 0031;
},
{
glyphname = seven;
lastChange = "2015-10-17 22:56:41 +0000";
layers = (
{
layerId = "7A0FC40B-77F8-4D14-AD08-D047673E78CB";
name = Regular;
paths = (
{
closed = 1;
nodes = (
"639 431 LINE",
"576 290 OFFCURVE",
"520 149 OFFCURVE",
"481 -2 CURVE",
"377 -3 OFFCURVE",
"259 -5 OFFCURVE",
"163 -12 CURVE",
"199 71 OFFCURVE",
"229 139 OFFCURVE",
"259 205 CURVE SMOOTH",
"288 270 OFFCURVE",
"316 330 OFFCURVE",
"349 402 CURVE",
"320 405 OFFCURVE",
"290 405 OFFCURVE",
"263 405 CURVE SMOOTH",
"224 405 OFFCURVE",
"190 403 OFFCURVE",
"151 397 CURVE",
"152 409 OFFCURVE",
"152 421 OFFCURVE",
"152 434 CURVE SMOOTH",
"152 448 OFFCURVE",
"152 460 OFFCURVE",
"152 471 CURVE SMOOTH",
"152 508 OFFCURVE",
"148 538 OFFCURVE",
"141 576 CURVE",
"309 576 OFFCURVE",
"488 577 OFFCURVE",
"646 586 CURVE"
);
}
);
width = 681;
}
);
unicode = 0037;
},
{
glyphname = A;
lastChange = "2015-10-17 22:56:41 +0000";
layers = (
{
layerId = "7A0FC40B-77F8-4D14-AD08-D047673E78CB";
name = Regular;
paths = (
{
closed = 1;
nodes = (
"151 8 LINE",
"217 196 OFFCURVE",
"262 379 OFFCURVE",
"299 571 CURVE",
"365 571 OFFCURVE",
"441 573 OFFCURVE",
"516 576 CURVE SMOOTH",
"591 578 OFFCURVE",
"666 582 OFFCURVE",
"726 586 CURVE",
"752 391 OFFCURVE",
"789 198 OFFCURVE",
"845 3 CURVE",
"738 0 OFFCURVE",
"631 -5 OFFCURVE",
"519 -12 CURVE",
"509 81 LINE",
"376 81 LINE",
"367 -8 LINE"
);
},
{
closed = 1;
nodes = (
"451 380 LINE",
"406 200 LINE",
"499 206 LINE",
"462 382 LINE"
);
}
);
width = 850;
}
);
unicode = 0041;
},
{
glyphname = six;
lastChange = "2015-10-17 22:56:41 +0000";
layers = (
{
layerId = "7A0FC40B-77F8-4D14-AD08-D047673E78CB";
name = Regular;
paths = (
{
closed = 1;
nodes = (
"721 318 OFFCURVE",
"738 271 OFFCURVE",
"738 199 CURVE SMOOTH",
"738 171 OFFCURVE",
"735 141 OFFCURVE",
"728 112 CURVE SMOOTH",
"721 82 OFFCURVE",
"708 54 OFFCURVE",
"689 31 CURVE",
"610 -2 OFFCURVE",
"536 -17 OFFCURVE",
"436 -17 CURVE SMOOTH",
"330 -17 OFFCURVE",
"250 -2 OFFCURVE",
"184 24 CURVE",
"174 47 OFFCURVE",
"164 81 OFFCURVE",
"155 123 CURVE SMOOTH",
"147 164 OFFCURVE",
"140 212 OFFCURVE",
"140 262 CURVE SMOOTH",
"140 315 OFFCURVE",
"143 371 OFFCURVE",
"152 419 CURVE SMOOTH",
"161 468 OFFCURVE",
"174 509 OFFCURVE",
"198 532 CURVE",
"240 554 OFFCURVE",
"288 568 OFFCURVE",
"338 576 CURVE SMOOTH",
"388 583 OFFCURVE",
"440 585 OFFCURVE",
"493 585 CURVE SMOOTH",
"555 585 OFFCURVE",
"606 577 OFFCURVE",
"642 570 CURVE SMOOTH",
"664 566 OFFCURVE",
"683 561 OFFCURVE",
"700 555 CURVE",
"680 513 OFFCURVE",
"663 471 OFFCURVE",
"657 414 CURVE",
"636 421 OFFCURVE",
"612 427 OFFCURVE",
"583 431 CURVE SMOOTH",
"568 433 OFFCURVE",
"551 433 OFFCURVE",
"534 433 CURVE SMOOTH",
"507 433 OFFCURVE",
"472 433 OFFCURVE",
"443 424 CURVE",
"429 409 OFFCURVE",
"422 392 OFFCURVE",
"422 368 CURVE",
"459 378 OFFCURVE",
"509 383 OFFCURVE",
"559 383 CURVE SMOOTH",
"616 383 OFFCURVE",
"653 378 OFFCURVE",
"698 361 CURVE"
);
},
{
closed = 1;
nodes = (
"407 199 OFFCURVE",
"408 161 OFFCURVE",
"417 124 CURVE",
"424 123 OFFCURVE",
"430 122 OFFCURVE",
"436 121 CURVE SMOOTH",
"440 120 OFFCURVE",
"447 119 OFFCURVE",
"455 119 CURVE SMOOTH",
"465 119 OFFCURVE",
"477 121 OFFCURVE",
"486 125 CURVE",
"492 133 OFFCURVE",
"493 144 OFFCURVE",
"493 157 CURVE SMOOTH",
"493 190 OFFCURVE",
"490 213 OFFCURVE",
"484 235 CURVE",
"474 238 OFFCURVE",
"459 240 OFFCURVE",
"449 240 CURVE SMOOTH",
"432 240 OFFCURVE",
"421 238 OFFCURVE",
"404 234 CURVE"
);
}
);
width = 758;
}
);
unicode = 0036;
},
{
glyphname = zero;
lastChange = "2015-10-17 22:56:41 +0000";
layers = (
{
layerId = "7A0FC40B-77F8-4D14-AD08-D047673E78CB";
name = Regular;
paths = (
{
closed = 1;
nodes = (
"330 -17 OFFCURVE",
"250 -2 OFFCURVE",
"184 24 CURVE",
"174 47 OFFCURVE",
"164 81 OFFCURVE",
"155 123 CURVE SMOOTH",
"147 164 OFFCURVE",
"140 212 OFFCURVE",
"140 262 CURVE SMOOTH",
"140 319 OFFCURVE",
"143 378 OFFCURVE",
"152 429 CURVE SMOOTH",
"161 481 OFFCURVE",
"174 523 OFFCURVE",
"198 548 CURVE",
"267 579 OFFCURVE",
"357 585 OFFCURVE",
"443 585 CURVE SMOOTH",
"550 585 OFFCURVE",
"628 571 OFFCURVE",
"694 544 CURVE",
"704 522 OFFCURVE",
"716 488 OFFCURVE",
"724 447 CURVE SMOOTH",
"732 405 OFFCURVE",
"738 357 OFFCURVE",
"738 307 CURVE SMOOTH",
"738 250 OFFCURVE",
"736 191 OFFCURVE",
"726 140 CURVE SMOOTH",
"717 89 OFFCURVE",
"704 46 OFFCURVE",
"681 20 CURVE",
"645 4 OFFCURVE",
"607 -5 OFFCURVE",
"565 -10 CURVE SMOOTH",
"524 -16 OFFCURVE",
"479 -17 OFFCURVE",
"436 -17 CURVE SMOOTH"
);
},
{
closed = 1;
nodes = (
"412 366 OFFCURVE",
"408 320 OFFCURVE",
"408 266 CURVE SMOOTH",
"408 217 OFFCURVE",
"412 168 OFFCURVE",
"417 124 CURVE",
"424 123 OFFCURVE",
"430 122 OFFCURVE",
"436 121 CURVE SMOOTH",
"440 120 OFFCURVE",
"447 119 OFFCURVE",
"455 119 CURVE SMOOTH",
"465 119 OFFCURVE",
"477 121 OFFCURVE",
"486 125 CURVE",
"493 164 OFFCURVE",
"501 215 OFFCURVE",
"501 279 CURVE SMOOTH",
"501 325 OFFCURVE",
"498 363 OFFCURVE",
"484 417 CURVE",
"474 420 OFFCURVE",
"459 422 OFFCURVE",
"449 422 CURVE SMOOTH",
"440 422 OFFCURVE",
"430 420 OFFCURVE",
"421 416 CURVE"
);
}
);
width = 758;
}
);
unicode = 0030;
},
{
glyphname = period;
lastChange = "2015-10-17 22:56:41 +0000";
layers = (
{
layerId = "7A0FC40B-77F8-4D14-AD08-D047673E78CB";
name = Regular;
paths = (
{
closed = 1;
nodes = (
"384 -11 LINE",
"327 -6 OFFCURVE",
"275 -4 OFFCURVE",
"227 -4 CURVE SMOOTH",
"185 -4 OFFCURVE",
"146 -5 OFFCURVE",
"108 -8 CURVE",
"108 6 OFFCURVE",
"108 20 OFFCURVE",
"108 32 CURVE SMOOTH",
"108 44 OFFCURVE",
"108 55 OFFCURVE",
"108 66 CURVE SMOOTH",
"108 109 OFFCURVE",
"104 144 OFFCURVE",
"98 187 CURVE",
"396 198 LINE"
);
}
);
width = 441;
}
);
unicode = 002E;
},
{
glyphname = two;
lastChange = "2015-10-17 22:56:41 +0000";
layers = (
{
layerId = "7A0FC40B-77F8-4D14-AD08-D047673E78CB";
name = Regular;
paths = (
{
closed = 1;
nodes = (
"165 471 OFFCURVE",
"148 514 OFFCURVE",
"128 556 CURVE",
"162 567 OFFCURVE",
"201 575 OFFCURVE",
"251 581 CURVE SMOOTH",
"276 585 OFFCURVE",
"304 586 OFFCURVE",
"335 586 CURVE SMOOTH",
"379 586 OFFCURVE",
"425 584 OFFCURVE",
"468 576 CURVE SMOOTH",
"511 569 OFFCURVE",
"553 555 OFFCURVE",
"589 533 CURVE",
"613 490 OFFCURVE",
"630 435 OFFCURVE",
"630 370 CURVE SMOOTH",
"630 333 OFFCURVE",
"616 304 OFFCURVE",
"595 279 CURVE SMOOTH",
"574 254 OFFCURVE",
"548 233 OFFCURVE",
"522 214 CURVE SMOOTH",
"497 193 OFFCURVE",
"473 172 OFFCURVE",
"458 148 CURVE",
"637 157 LINE",
"620 -12 LINE",
"458 -5 OFFCURVE",
"301 -2 OFFCURVE",
"123 -2 CURVE",
"123 133 LINE",
"146 157 OFFCURVE",
"172 180 OFFCURVE",
"200 199 CURVE SMOOTH",
"256 238 OFFCURVE",
"306 271 OFFCURVE",
"339 308 CURVE SMOOTH",
"356 326 OFFCURVE",
"364 347 OFFCURVE",
"364 369 CURVE SMOOTH",
"364 391 OFFCURVE",
"361 407 OFFCURVE",
"352 421 CURVE",
"323 434 OFFCURVE",
"287 434 OFFCURVE",
"261 434 CURVE SMOOTH",
"235 434 OFFCURVE",
"214 430 OFFCURVE",
"197 424 CURVE",
"187 422 OFFCURVE",
"178 419 OFFCURVE",
"171 415 CURVE"
);
}
);
width = 662;
}
);
unicode = 0032;
},
{
glyphname = three;
lastChange = "2015-10-17 22:56:41 +0000";
layers = (
{
layerId = "7A0FC40B-77F8-4D14-AD08-D047673E78CB";
name = Regular;
paths = (
{
closed = 1;
nodes = (
"171 263 OFFCURVE",
"173 281 OFFCURVE",
"173 301 CURVE SMOOTH",
"173 320 OFFCURVE",
"171 338 OFFCURVE",
"169 364 CURVE",
"184 361 OFFCURVE",
"203 359 OFFCURVE",
"224 358 CURVE",
"235 357 OFFCURVE",
"246 357 OFFCURVE",
"259 357 CURVE SMOOTH",
"293 357 OFFCURVE",
"338 357 OFFCURVE",
"374 366 CURVE",
"377 374 OFFCURVE",
"379 383 OFFCURVE",
"379 394 CURVE SMOOTH",
"379 404 OFFCURVE",
"377 413 OFFCURVE",
"374 421 CURVE",
"338 434 OFFCURVE",
"293 434 OFFCURVE",
"259 434 CURVE SMOOTH",
"233 434 OFFCURVE",
"212 431 OFFCURVE",
"195 428 CURVE SMOOTH",
"185 427 OFFCURVE",
"176 425 OFFCURVE",
"169 423 CURVE",
"163 476 OFFCURVE",
"145 516 OFFCURVE",
"126 556 CURVE",
"160 566 OFFCURVE",
"198 575 OFFCURVE",
"249 581 CURVE SMOOTH",
"274 585 OFFCURVE",
"302 586 OFFCURVE",
"333 586 CURVE SMOOTH",
"377 586 OFFCURVE",
"423 584 OFFCURVE",
"466 576 CURVE SMOOTH",
"509 569 OFFCURVE",
"550 555 OFFCURVE",
"587 532 CURVE",
"601 506 OFFCURVE",
"611 470 OFFCURVE",
"611 427 CURVE SMOOTH",
"611 382 OFFCURVE",
"601 342 OFFCURVE",
"587 313 CURVE",
"613 273 OFFCURVE",
"624 223 OFFCURVE",
"624 166 CURVE SMOOTH",
"624 116 OFFCURVE",
"609 66 OFFCURVE",
"587 41 CURVE",
"550 18 OFFCURVE",
"509 4 OFFCURVE",
"466 -3 CURVE SMOOTH",
"423 -11 OFFCURVE",
"377 -13 OFFCURVE",
"333 -13 CURVE SMOOTH",
"270 -13 OFFCURVE",
"220 -6 OFFCURVE",
"184 2 CURVE SMOOTH",
"162 6 OFFCURVE",
"143 12 OFFCURVE",
"126 18 CURVE",
"145 60 OFFCURVE",
"163 102 OFFCURVE",
"169 158 CURVE",
"184 151 OFFCURVE",
"203 145 OFFCURVE",
"224 142 CURVE SMOOTH",
"235 140 OFFCURVE",
"246 139 OFFCURVE",
"259 139 CURVE SMOOTH",
"285 139 OFFCURVE",
"321 139 OFFCURVE",
"350 152 CURVE",
"358 164 OFFCURVE",
"362 179 OFFCURVE",
"362 196 CURVE SMOOTH",
"362 217 OFFCURVE",
"360 230 OFFCURVE",
"358 240 CURVE",
"326 249 OFFCURVE",
"288 249 OFFCURVE",
"259 249 CURVE SMOOTH",
"233 249 OFFCURVE",
"212 248 OFFCURVE",
"195 246 CURVE",
"185 245 OFFCURVE",
"176 243 OFFCURVE",
"169 242 CURVE"
);
}
);
width = 662;
}
);
unicode = 0033;
},
{
glyphname = four;
lastChange = "2015-10-17 22:56:41 +0000";
layers = (
{
layerId = "7A0FC40B-77F8-4D14-AD08-D047673E78CB";
name = Regular;
paths = (
{
closed = 1;
nodes = (
"672 431 LINE",
"678 261 LINE",
"703 262 OFFCURVE",
"726 265 OFFCURVE",
"752 268 CURVE",
"751 257 OFFCURVE",
"751 244 OFFCURVE",
"751 231 CURVE SMOOTH",
"751 218 OFFCURVE",
"751 205 OFFCURVE",
"751 195 CURVE SMOOTH",
"751 157 OFFCURVE",
"755 127 OFFCURVE",
"762 90 CURVE",
"684 90 LINE",
"688 -2 LINE",
"599 -3 OFFCURVE",
"501 -5 OFFCURVE",
"419 -12 CURVE",
"419 87 LINE",
"321 85 OFFCURVE",
"228 82 OFFCURVE",
"141 79 CURVE",
"149 234 LINE",
"205 348 OFFCURVE",
"255 457 OFFCURVE",
"290 576 CURVE",
"388 577 OFFCURVE",
"500 579 OFFCURVE",
"592 586 CURVE",
"549 530 LINE",
"591 529 OFFCURVE",
"637 528 OFFCURVE",
"679 528 CURVE"
);
},
{
closed = 1;
nodes = (
"397 263 LINE",
"419 262 OFFCURVE",
"445 262 OFFCURVE",
"467 262 CURVE",
"467 279 OFFCURVE",
"467 296 OFFCURVE",
"467 315 CURVE SMOOTH",
"467 334 OFFCURVE",
"467 352 OFFCURVE",
"466 369 CURVE",
"445 372 LINE"
);
}
);
width = 773;
}
);
unicode = 0034;
},
{
glyphname = five;
lastChange = "2015-10-17 22:56:41 +0000";
layers = (
{
layerId = "7A0FC40B-77F8-4D14-AD08-D047673E78CB";
name = Regular;
paths = (
{
closed = 1;
nodes = (
"150 238 OFFCURVE",
"153 263 OFFCURVE",
"154 291 CURVE SMOOTH",
"154 318 OFFCURVE",
"156 347 OFFCURVE",
"158 375 CURVE",
"158 576 LINE",
"325 576 OFFCURVE",
"476 579 OFFCURVE",
"630 586 CURVE",
"647 418 LINE",
"411 426 LINE",
"410 415 OFFCURVE",
"408 405 OFFCURVE",
"407 396 CURVE",
"406 387 OFFCURVE",
"405 377 OFFCURVE",
"404 368 CURVE",
"421 370 OFFCURVE",
"440 373 OFFCURVE",
"463 374 CURVE",
"475 375 OFFCURVE",
"488 375 OFFCURVE",
"502 375 CURVE SMOOTH",
"549 375 OFFCURVE",
"592 371 OFFCURVE",
"635 349 CURVE",
"642 333 OFFCURVE",
"649 308 OFFCURVE",
"654 282 CURVE SMOOTH",
"659 256 OFFCURVE",
"661 227 OFFCURVE",
"661 208 CURVE SMOOTH",
"661 141 OFFCURVE",
"646 75 OFFCURVE",
"624 41 CURVE",
"587 18 OFFCURVE",
"546 4 OFFCURVE",
"503 -3 CURVE SMOOTH",
"460 -11 OFFCURVE",
"414 -13 OFFCURVE",
"370 -13 CURVE SMOOTH",
"297 -13 OFFCURVE",
"239 -6 OFFCURVE",
"197 2 CURVE SMOOTH",
"172 6 OFFCURVE",
"149 12 OFFCURVE",
"130 18 CURVE",
"149 60 OFFCURVE",
"167 102 OFFCURVE",
"173 158 CURVE",
"193 151 OFFCURVE",
"217 145 OFFCURVE",
"247 142 CURVE SMOOTH",
"262 140 OFFCURVE",
"278 139 OFFCURVE",
"296 139 CURVE SMOOTH",
"322 139 OFFCURVE",
"358 139 OFFCURVE",
"387 152 CURVE",
"395 161 OFFCURVE",
"399 173 OFFCURVE",
"399 188 CURVE SMOOTH",
"399 200 OFFCURVE",
"397 208 OFFCURVE",
"395 215 CURVE",
"363 232 OFFCURVE",
"325 232 OFFCURVE",
"296 232 CURVE SMOOTH",
"253 232 OFFCURVE",
"216 228 OFFCURVE",
"190 225 CURVE SMOOTH",
"174 223 OFFCURVE",
"160 220 OFFCURVE",
"148 218 CURVE"
);
}
);
width = 699;
}
);
unicode = 0035;
},
{
glyphname = eight;
lastChange = "2015-10-17 22:56:41 +0000";
layers = (
{
layerId = "7A0FC40B-77F8-4D14-AD08-D047673E78CB";
name = Regular;
paths = (
{
closed = 1;
nodes = (
"384 -13 OFFCURVE",
"338 -11 OFFCURVE",
"295 -3 CURVE SMOOTH",
"252 4 OFFCURVE",
"211 18 OFFCURVE",
"174 41 CURVE",
"152 66 OFFCURVE",
"137 116 OFFCURVE",
"137 166 CURVE SMOOTH",
"137 223 OFFCURVE",
"148 273 OFFCURVE",
"174 313 CURVE",
"160 342 OFFCURVE",
"150 382 OFFCURVE",
"150 427 CURVE SMOOTH",
"150 470 OFFCURVE",
"160 506 OFFCURVE",
"174 532 CURVE",
"211 555 OFFCURVE",
"252 569 OFFCURVE",
"295 576 CURVE SMOOTH",
"338 584 OFFCURVE",
"384 586 OFFCURVE",
"428 586 CURVE SMOOTH",
"472 586 OFFCURVE",
"518 584 OFFCURVE",
"561 576 CURVE SMOOTH",
"604 569 OFFCURVE",
"645 555 OFFCURVE",
"682 532 CURVE",
"696 506 OFFCURVE",
"706 470 OFFCURVE",
"706 427 CURVE SMOOTH",
"706 382 OFFCURVE",
"696 342 OFFCURVE",
"682 313 CURVE",
"708 273 OFFCURVE",
"719 223 OFFCURVE",
"719 166 CURVE SMOOTH",
"719 116 OFFCURVE",
"704 66 OFFCURVE",
"682 41 CURVE",
"645 18 OFFCURVE",
"604 4 OFFCURVE",
"561 -3 CURVE SMOOTH",
"518 -11 OFFCURVE",
"472 -13 OFFCURVE",
"428 -13 CURVE SMOOTH"
);
},
{
closed = 1;
nodes = (
"409 442 OFFCURVE",
"395 440 OFFCURVE",
"383 433 CURVE",
"379 426 OFFCURVE",
"379 416 OFFCURVE",
"379 402 CURVE SMOOTH",
"379 385 OFFCURVE",
"380 375 OFFCURVE",
"383 366 CURVE",
"395 357 OFFCURVE",
"409 357 OFFCURVE",
"420 357 CURVE SMOOTH",
"433 357 OFFCURVE",
"450 357 OFFCURVE",
"465 366 CURVE",
"469 375 OFFCURVE",
"469 385 OFFCURVE",
"469 402 CURVE SMOOTH",
"469 414 OFFCURVE",
"468 425 OFFCURVE",
"465 433 CURVE",
"450 442 OFFCURVE",
"433 442 OFFCURVE",
"420 442 CURVE SMOOTH"
);
},
{
closed = 1;
nodes = (
"418 242 OFFCURVE",
"403 239 OFFCURVE",
"389 232 CURVE",
"387 223 OFFCURVE",
"385 209 OFFCURVE",
"385 189 CURVE SMOOTH",
"385 166 OFFCURVE",
"388 149 OFFCURVE",
"393 137 CURVE",
"407 131 OFFCURVE",
"421 132 OFFCURVE",
"431 132 CURVE SMOOTH",
"441 132 OFFCURVE",
"456 132 OFFCURVE",
"472 141 CURVE",
"478 153 OFFCURVE",
"480 168 OFFCURVE",
"480 189 CURVE SMOOTH",
"480 209 OFFCURVE",
"479 223 OFFCURVE",
"476 232 CURVE",
"460 242 OFFCURVE",
"443 242 OFFCURVE",
"431 242 CURVE SMOOTH"
);
}
);
width = 734;
}
);
unicode = 0038;
},
{
glyphname = nine;
lastChange = "2015-10-17 22:56:41 +0000";
layers = (
{
layerId = "7A0FC40B-77F8-4D14-AD08-D047673E78CB";
name = Regular;
paths = (
{
closed = 1;
nodes = (
"158 262 OFFCURVE",
"140 311 OFFCURVE",
"140 386 CURVE SMOOTH",
"140 439 OFFCURVE",
"152 499 OFFCURVE",
"181 546 CURVE",
"263 573 OFFCURVE",
"340 585 OFFCURVE",
"442 585 CURVE SMOOTH",
"552 585 OFFCURVE",
"634 568 OFFCURVE",
"702 536 CURVE",
"726 479 OFFCURVE",
"738 395 OFFCURVE",
"738 307 CURVE SMOOTH",
"738 199 OFFCURVE",
"726 100 OFFCURVE",
"681 37 CURVE",
"639 14 OFFCURVE",
"591 0 OFFCURVE",
"540 -7 CURVE SMOOTH",
"490 -15 OFFCURVE",
"438 -17 OFFCURVE",
"386 -17 CURVE SMOOTH",
"323 -17 OFFCURVE",
"273 -10 OFFCURVE",
"236 -2 CURVE SMOOTH",
"215 2 OFFCURVE",
"196 8 OFFCURVE",
"178 14 CURVE",
"198 56 OFFCURVE",
"216 98 OFFCURVE",
"221 154 CURVE",
"242 147 OFFCURVE",
"266 141 OFFCURVE",
"296 138 CURVE SMOOTH",
"311 136 OFFCURVE",
"327 135 OFFCURVE",
"345 135 CURVE SMOOTH",
"371 135 OFFCURVE",
"407 135 OFFCURVE",
"436 144 CURVE",
"450 163 OFFCURVE",
"456 181 OFFCURVE",
"456 209 CURVE",
"419 199 OFFCURVE",
"369 194 OFFCURVE",
"320 194 CURVE SMOOTH",
"263 194 OFFCURVE",
"224 197 OFFCURVE",
"180 216 CURVE"
);
},
{
closed = 1;
nodes = (
"472 365 OFFCURVE",
"470 405 OFFCURVE",
"461 444 CURVE",
"455 445 OFFCURVE",
"449 447 OFFCURVE",
"444 447 CURVE SMOOTH",
"438 448 OFFCURVE",
"431 449 OFFCURVE",
"423 449 CURVE SMOOTH",
"413 449 OFFCURVE",
"402 447 OFFCURVE",
"393 443 CURVE",
"387 436 OFFCURVE",
"386 424 OFFCURVE",
"386 411 CURVE SMOOTH",
"386 375 OFFCURVE",
"388 349 OFFCURVE",
"394 325 CURVE",
"405 321 OFFCURVE",
"420 320 OFFCURVE",
"430 320 CURVE SMOOTH",
"446 320 OFFCURVE",
"458 322 OFFCURVE",
"474 326 CURVE"
);
}
);
width = 758;
}
);
unicode = 0039;
},
{
glyphname = comma;
lastChange = "2015-10-17 22:56:41 +0000";
layers = (
{
layerId = "7A0FC40B-77F8-4D14-AD08-D047673E78CB";
name = Regular;
paths = (
{
closed = 1;
nodes = (
"177 -107 LINE",
"196 -107 OFFCURVE",
"209 -95 OFFCURVE",
"222 -78 CURVE",
"226 -64 OFFCURVE",
"229 -49 OFFCURVE",
"231 -33 CURVE",
"184 -33 OFFCURVE",
"146 -36 OFFCURVE",
"108 -39 CURVE",
"108 -25 OFFCURVE",
"108 -12 OFFCURVE",
"108 1 CURVE SMOOTH",
"108 12 OFFCURVE",
"108 24 OFFCURVE",
"108 34 CURVE SMOOTH",
"108 77 OFFCURVE",
"104 113 OFFCURVE",
"98 156 CURVE",
"396 167 LINE",
"396 68 OFFCURVE",
"384 -22 OFFCURVE",
"351 -105 CURVE",
"325 -132 OFFCURVE",
"285 -152 OFFCURVE",
"252 -168 CURVE SMOOTH",
"233 -177 OFFCURVE",
"213 -185 OFFCURVE",
"193 -192 CURVE"
);
}
);
width = 431;
}
);
unicode = 002C;
},
{
glyphname = grave;
lastChange = "2015-10-17 22:56:41 +0000";
layers = (
{
layerId = "7A0FC40B-77F8-4D14-AD08-D047673E78CB";
name = Regular;
paths = (
{
closed = 1;
nodes = (
"430 620 OFFCURVE",
"420 584 OFFCURVE",
"417 547 CURVE",
"297 566 OFFCURVE",
"172 573 OFFCURVE",
"56 577 CURVE",
"67 622 OFFCURVE",
"76 662 OFFCURVE",
"79 716 CURVE",
"132 702 OFFCURVE",
"196 691 OFFCURVE",
"259 682 CURVE SMOOTH",
"323 672 OFFCURVE",
"389 664 OFFCURVE",
"446 659 CURVE"
);
}
);
width = 457;
}
);
unicode = 0060;
},
{
glyphname = agrave;
lastChange = "2015-10-17 22:56:41 +0000";
layers = (
{
layerId = "7A0FC40B-77F8-4D14-AD08-D047673E78CB";
name = Regular;
paths = (
{
closed = 1;
nodes = (
"224 271 OFFCURVE",
"274 276 OFFCURVE",
"346 276 CURVE SMOOTH",
"394 276 OFFCURVE",
"442 271 OFFCURVE",
"478 265 CURVE",
"478 277 OFFCURVE",
"474 287 OFFCURVE",
"466 295 CURVE",
"437 301 OFFCURVE",
"401 304 OFFCURVE",
"375 304 CURVE SMOOTH",
"335 304 OFFCURVE",
"300 301 OFFCURVE",
"275 299 CURVE SMOOTH",
"261 297 OFFCURVE",
"247 295 OFFCURVE",
"235 294 CURVE",
"229 343 OFFCURVE",
"212 381 OFFCURVE",
"192 418 CURVE",
"228 425 OFFCURVE",
"270 432 OFFCURVE",
"325 437 CURVE SMOOTH",
"352 439 OFFCURVE",
"382 440 OFFCURVE",
"416 440 CURVE SMOOTH",
"519 440 OFFCURVE",
"626 432 OFFCURVE",
"711 395 CURVE",
"734 375 OFFCURVE",
"747 339 OFFCURVE",
"756 298 CURVE SMOOTH",
"766 257 OFFCURVE",
"768 209 OFFCURVE",
"768 162 CURVE SMOOTH",
"768 93 OFFCURVE",
"761 28 OFFCURVE",
"757 0 CURVE",
"661 -1 OFFCURVE",
"566 -6 OFFCURVE",
"476 -14 CURVE",
"476 -7 LINE SMOOTH",
"476 -5 OFFCURVE",
"476 -2 OFFCURVE",
"476 1 CURVE SMOOTH",
"476 4 OFFCURVE",
"476 7 OFFCURVE",
"477 11 CURVE",
"451 -1 OFFCURVE",
"402 -17 OFFCURVE",
"323 -17 CURVE SMOOTH",
"270 -17 OFFCURVE",
"232 -10 OFFCURVE",
"186 6 CURVE",
"154 46 OFFCURVE",
"146 100 OFFCURVE",
"146 149 CURVE SMOOTH",
"146 198 OFFCURVE",
"156 226 OFFCURVE",
"169 253 CURVE"
);
},
{
closed = 1;
nodes = (
"488 172 OFFCURVE",
"476 174 OFFCURVE",
"460 174 CURVE SMOOTH",
"449 174 OFFCURVE",
"432 172 OFFCURVE",
"420 169 CURVE",
"417 163 OFFCURVE",
"415 156 OFFCURVE",
"415 148 CURVE SMOOTH",
"415 138 OFFCURVE",
"416 131 OFFCURVE",
"418 125 CURVE",
"428 121 OFFCURVE",
"441 119 OFFCURVE",
"453 119 CURVE SMOOTH",
"470 119 OFFCURVE",
"481 121 OFFCURVE",
"494 124 CURVE",
"501 140 OFFCURVE",
"502 152 OFFCURVE",
"504 168 CURVE"
);
},
{
closed = 1;
nodes = (
"639 522 OFFCURVE",
"628 486 OFFCURVE",
"626 449 CURVE",
"506 468 OFFCURVE",
"381 475 OFFCURVE",
"265 479 CURVE",
"275 524 OFFCURVE",
"285 564 OFFCURVE",
"288 618 CURVE",
"341 604 OFFCURVE",
"404 593 OFFCURVE",
"468 584 CURVE SMOOTH",
"532 574 OFFCURVE",
"598 566 OFFCURVE",
"655 561 CURVE"
);
}
);
width = 790;
}
);
unicode = 00E0;
},
{
glyphname = egrave;
lastChange = "2015-10-17 22:56:41 +0000";
layers = (
{
layerId = "7A0FC40B-77F8-4D14-AD08-D047673E78CB";
name = Regular;
paths = (
{
closed = 1;
nodes = (
"475 173 OFFCURVE",
"450 173 OFFCURVE",
"426 176 CURVE",
"429 164 OFFCURVE",
"434 154 OFFCURVE",
"438 144 CURVE",
"483 135 OFFCURVE",
"520 132 OFFCURVE",
"557 132 CURVE SMOOTH",
"617 132 OFFCURVE",
"667 137 OFFCURVE",
"710 144 CURVE",
"713 105 OFFCURVE",
"719 55 OFFCURVE",
"733 14 CURVE",
"660 -2 OFFCURVE",
"592 -13 OFFCURVE",
"504 -13 CURVE SMOOTH",
"384 -13 OFFCURVE",
"272 -7 OFFCURVE",
"176 35 CURVE",
"149 85 OFFCURVE",
"135 157 OFFCURVE",
"135 229 CURVE SMOOTH",
"135 293 OFFCURVE",
"145 350 OFFCURVE",
"184 413 CURVE",
"270 436 OFFCURVE",
"359 445 OFFCURVE",
"466 445 CURVE SMOOTH",
"515 445 OFFCURVE",
"556 442 OFFCURVE",
"599 437 CURVE SMOOTH",
"641 432 OFFCURVE",
"682 425 OFFCURVE",
"731 415 CURVE",
"750 383 OFFCURVE",
"755 347 OFFCURVE",
"755 312 CURVE SMOOTH",
"755 266 OFFCURVE",
"747 216 OFFCURVE",
"731 184 CURVE",
"664 175 OFFCURVE",
"582 173 OFFCURVE",
"502 173 CURVE SMOOTH"
);
},
{
closed = 1;
nodes = (
"472 325 OFFCURVE",
"448 323 OFFCURVE",
"412 312 CURVE",
"408 303 OFFCURVE",
"405 292 OFFCURVE",
"403 280 CURVE",
"436 280 OFFCURVE",
"471 281 OFFCURVE",
"510 285 CURVE",
"510 290 OFFCURVE",
"509 297 OFFCURVE",
"508 304 CURVE SMOOTH",
"507 310 OFFCURVE",
"505 318 OFFCURVE",
"502 325 CURVE"
);
},
{
closed = 1;
nodes = (
"629 523 OFFCURVE",
"618 487 OFFCURVE",
"615 450 CURVE",
"495 469 OFFCURVE",
"371 475 OFFCURVE",
"254 480 CURVE",
"265 525 OFFCURVE",
"274 565 OFFCURVE",
"277 618 CURVE",
"330 605 OFFCURVE",
"394 594 OFFCURVE",
"457 585 CURVE SMOOTH",
"521 575 OFFCURVE",
"587 567 OFFCURVE",
"644 561 CURVE"
);
}
);
width = 770;
}
);
unicode = 00E8;
},
{
glyphname = igrave;
lastChange = "2015-10-17 22:56:41 +0000";
layers = (
{
layerId = "7A0FC40B-77F8-4D14-AD08-D047673E78CB";
name = Regular;
paths = (
{
closed = 1;
nodes = (
"370 -2 LINE",
"282 -3 OFFCURVE",
"188 -5 OFFCURVE",
"106 -12 CURVE",
"106 133 OFFCURVE",
"106 276 OFFCURVE",
"100 419 CURVE",
"111 419 OFFCURVE",
"121 419 OFFCURVE",
"131 419 CURVE SMOOTH",
"142 419 OFFCURVE",
"153 419 OFFCURVE",
"164 419 CURVE SMOOTH",
"232 419 OFFCURVE",
"299 419 OFFCURVE",
"362 428 CURVE"
);
},
{
closed = 1;
nodes = (
"422 523 OFFCURVE",
"412 487 OFFCURVE",
"409 450 CURVE",
"289 469 OFFCURVE",
"164 476 OFFCURVE",
"48 480 CURVE",
"59 525 OFFCURVE",
"68 565 OFFCURVE",
"71 619 CURVE",
"124 605 OFFCURVE",
"188 594 OFFCURVE",
"251 585 CURVE SMOOTH",
"315 575 OFFCURVE",
"381 567 OFFCURVE",
"438 562 CURVE"
);
}
);
width = 401;
}
);
unicode = 00EC;
},
{
glyphname = ograve;
lastChange = "2015-10-17 22:56:41 +0000";
layers = (
{
layerId = "7A0FC40B-77F8-4D14-AD08-D047673E78CB";
name = Regular;
paths = (
{
closed = 1;
nodes = (
"360 -12 OFFCURVE",
"276 0 OFFCURVE",
"217 25 CURVE",
"194 48 OFFCURVE",
"179 75 OFFCURVE",
"167 106 CURVE SMOOTH",
"155 138 OFFCURVE",
"150 175 OFFCURVE",
"150 222 CURVE SMOOTH",
"150 300 OFFCURVE",
"166 352 OFFCURVE",
"195 397 CURVE",
"258 427 OFFCURVE",
"351 442 OFFCURVE",
"475 442 CURVE SMOOTH",
"600 442 OFFCURVE",
"695 425 OFFCURVE",
"758 390 CURVE",
"769 367 OFFCURVE",
"777 345 OFFCURVE",
"783 319 CURVE SMOOTH",
"789 294 OFFCURVE",
"791 265 OFFCURVE",
"791 228 CURVE SMOOTH",
"791 189 OFFCURVE",
"787 157 OFFCURVE",
"780 129 CURVE SMOOTH",
"773 101 OFFCURVE",
"762 76 OFFCURVE",
"749 50 CURVE",
"689 9 OFFCURVE",
"594 -12 OFFCURVE",
"466 -12 CURVE SMOOTH"
);
},
{
closed = 1;
nodes = (
"427 260 OFFCURVE",
"423 235 OFFCURVE",
"423 208 CURVE SMOOTH",
"423 167 OFFCURVE",
"423 142 OFFCURVE",
"432 126 CURVE",
"439 119 OFFCURVE",
"451 115 OFFCURVE",
"467 115 CURVE SMOOTH",
"483 115 OFFCURVE",
"494 119 OFFCURVE",
"502 126 CURVE",
"514 143 OFFCURVE",
"517 176 OFFCURVE",
"517 218 CURVE SMOOTH",
"517 254 OFFCURVE",
"512 279 OFFCURVE",
"504 292 CURVE",
"497 299 OFFCURVE",
"489 299 OFFCURVE",
"476 299 CURVE SMOOTH",
"457 299 OFFCURVE",
"446 295 OFFCURVE",
"436 286 CURVE"
);
},
{
closed = 1;
nodes = (
"650 523 OFFCURVE",
"639 487 OFFCURVE",
"636 450 CURVE",
"517 469 OFFCURVE",
"392 476 OFFCURVE",
"275 480 CURVE",
"286 525 OFFCURVE",
"295 565 OFFCURVE",
"298 619 CURVE",
"351 605 OFFCURVE",
"415 594 OFFCURVE",
"479 585 CURVE SMOOTH",
"542 575 OFFCURVE",
"608 567 OFFCURVE",
"665 562 CURVE"
);
}
);
width = 806;
}
);
unicode = 00F2;
},
{
glyphname = ugrave;
lastChange = "2015-10-17 22:56:41 +0000";
layers = (
{
layerId = "7A0FC40B-77F8-4D14-AD08-D047673E78CB";
name = Regular;
paths = (
{
closed = 1;
nodes = (
"482 444 LINE",
"576 444 OFFCURVE",
"665 444 OFFCURVE",
"751 454 CURVE",
"751 414 OFFCURVE",
"751 376 OFFCURVE",
"751 338 CURVE SMOOTH",
"751 262 OFFCURVE",
"752 189 OFFCURVE",
"755 114 CURVE SMOOTH",
"756 76 OFFCURVE",
"758 38 OFFCURVE",
"760 -1 CURVE",
"462 -12 LINE",
"467 38 LINE",
"408 -2 OFFCURVE",
"361 -12 OFFCURVE",
"315 -12 CURVE SMOOTH",
"258 -12 OFFCURVE",
"222 2 OFFCURVE",
"185 26 CURVE",
"159 90 OFFCURVE",
"153 152 OFFCURVE",
"153 242 CURVE SMOOTH",
"153 301 OFFCURVE",
"155 369 OFFCURVE",
"161 435 CURVE",
"196 434 OFFCURVE",
"233 433 OFFCURVE",
"268 433 CURVE SMOOTH",
"322 433 OFFCURVE",
"375 436 OFFCURVE",
"431 442 CURVE",
"425 395 OFFCURVE",
"424 350 OFFCURVE",
"424 317 CURVE SMOOTH",
"424 274 OFFCURVE",
"427 238 OFFCURVE",
"433 205 CURVE",
"454 205 OFFCURVE",
"474 214 OFFCURVE",
"493 231 CURVE"
);
},
{
closed = 1;
nodes = (
"592 523 OFFCURVE",
"581 487 OFFCURVE",
"579 450 CURVE",
"459 469 OFFCURVE",
"334 476 OFFCURVE",
"218 480 CURVE",
"229 525 OFFCURVE",
"238 565 OFFCURVE",
"241 619 CURVE",
"294 605 OFFCURVE",
"358 594 OFFCURVE",
"421 585 CURVE SMOOTH",
"485 575 OFFCURVE",
"551 567 OFFCURVE",
"608 562 CURVE"
);
}
);
width = 780;
}
);
unicode = 00F9;
},
{
glyphname = breve;
lastChange = "2015-10-17 22:56:41 +0000";
layers = (
{
layerId = "7A0FC40B-77F8-4D14-AD08-D047673E78CB";
name = Regular;
paths = (
{
closed = 1;
nodes = (
"387 556 OFFCURVE",
"327 547 OFFCURVE",
"263 547 CURVE SMOOTH",
"200 547 OFFCURVE",
"138 556 OFFCURVE",
"81 585 CURVE",
"91 621 OFFCURVE",
"100 653 OFFCURVE",
"104 695 CURVE",
"144 683 OFFCURVE",
"201 674 OFFCURVE",
"263 674 CURVE SMOOTH",
"329 674 OFFCURVE",
"388 693 OFFCURVE",
"431 716 CURVE",
"434 665 OFFCURVE",
"439 627 OFFCURVE",
"446 585 CURVE"
);
}
);
width = 457;
}
);
unicode = 02D8;
},
{
glyphname = caron;
lastChange = "2015-10-17 22:56:41 +0000";
layers = (
{
layerId = "7A0FC40B-77F8-4D14-AD08-D047673E78CB";
name = Regular;
paths = (
{
closed = 1;
nodes = (
"445 581 OFFCURVE",
"372 564 OFFCURVE",
"303 547 CURVE",
"224 564 OFFCURVE",
"158 594 OFFCURVE",
"97 626 CURVE",
"111 654 OFFCURVE",
"122 677 OFFCURVE",
"125 707 CURVE",
"177 697 OFFCURVE",
"245 692 OFFCURVE",
"302 686 CURVE",
"362 692 OFFCURVE",
"431 702 OFFCURVE",
"484 716 CURVE",
"486 693 OFFCURVE",
"489 673 OFFCURVE",
"494 656 CURVE",
"498 639 OFFCURVE",
"503 621 OFFCURVE",
"508 602 CURVE"
);
}
);
width = 519;
}
);
unicode = 02C7;
},
{
glyphname = circumflex;
lastChange = "2015-10-17 22:56:41 +0000";
layers = (
{
layerId = "7A0FC40B-77F8-4D14-AD08-D047673E78CB";
name = Regular;
paths = (
{
closed = 1;
nodes = (
"160 670 OFFCURVE",
"233 692 OFFCURVE",
"302 714 CURVE",
"382 700 OFFCURVE",
"448 677 OFFCURVE",
"508 651 CURVE",
"494 616 OFFCURVE",
"483 586 OFFCURVE",
"480 545 CURVE",
"428 558 OFFCURVE",
"360 568 OFFCURVE",
"303 575 CURVE",
"244 566 OFFCURVE",
"174 554 OFFCURVE",
"121 537 CURVE",
"120 558 OFFCURVE",
"116 576 OFFCURVE",
"112 592 CURVE",
"107 608 OFFCURVE",
"102 625 OFFCURVE",
"97 643 CURVE"
);
}
);
width = 519;
}
);
unicode = 02C6;
},
{
glyphname = abreve;
lastChange = "2015-10-17 22:56:41 +0000";
layers = (
{
layerId = "7A0FC40B-77F8-4D14-AD08-D047673E78CB";
name = Regular;
paths = (
{
closed = 1;
nodes = (
"584 458 OFFCURVE",
"523 449 OFFCURVE",
"460 449 CURVE SMOOTH",
"396 449 OFFCURVE",
"334 458 OFFCURVE",
"277 487 CURVE",
"287 523 OFFCURVE",
"296 555 OFFCURVE",
"300 597 CURVE",
"340 585 OFFCURVE",
"397 576 OFFCURVE",
"460 576 CURVE SMOOTH",
"526 576 OFFCURVE",
"585 595 OFFCURVE",
"628 618 CURVE",
"630 567 OFFCURVE",
"636 529 OFFCURVE",
"642 487 CURVE"
);
},
{
closed = 1;
nodes = (
"224 271 OFFCURVE",
"274 276 OFFCURVE",
"346 276 CURVE SMOOTH",
"394 276 OFFCURVE",
"442 271 OFFCURVE",
"478 265 CURVE",
"478 277 OFFCURVE",
"474 287 OFFCURVE",
"466 295 CURVE",
"437 301 OFFCURVE",
"401 304 OFFCURVE",
"375 304 CURVE SMOOTH",
"335 304 OFFCURVE",
"300 301 OFFCURVE",
"275 299 CURVE SMOOTH",
"261 297 OFFCURVE",
"247 295 OFFCURVE",
"235 294 CURVE",
"229 343 OFFCURVE",
"212 381 OFFCURVE",
"192 418 CURVE",
"228 425 OFFCURVE",
"270 432 OFFCURVE",
"325 437 CURVE SMOOTH",
"352 439 OFFCURVE",
"382 440 OFFCURVE",
"416 440 CURVE SMOOTH",
"519 440 OFFCURVE",
"626 432 OFFCURVE",
"711 395 CURVE",
"734 375 OFFCURVE",
"747 339 OFFCURVE",
"756 298 CURVE SMOOTH",
"766 257 OFFCURVE",
"768 209 OFFCURVE",
"768 162 CURVE SMOOTH",
"768 93 OFFCURVE",
"761 28 OFFCURVE",
"757 0 CURVE",
"661 -1 OFFCURVE",
"566 -6 OFFCURVE",
"476 -14 CURVE",
"476 -7 LINE SMOOTH",
"476 -5 OFFCURVE",
"476 -2 OFFCURVE",
"476 1 CURVE SMOOTH",
"476 4 OFFCURVE",
"476 7 OFFCURVE",
"477 11 CURVE",
"451 -1 OFFCURVE",
"402 -17 OFFCURVE",
"323 -17 CURVE SMOOTH",
"270 -17 OFFCURVE",
"232 -10 OFFCURVE",
"186 6 CURVE",
"154 46 OFFCURVE",
"146 100 OFFCURVE",
"146 149 CURVE SMOOTH",
"146 198 OFFCURVE",
"156 226 OFFCURVE",
"169 253 CURVE"
);
},
{
closed = 1;
nodes = (
"488 172 OFFCURVE",
"476 174 OFFCURVE",
"460 174 CURVE SMOOTH",
"449 174 OFFCURVE",
"432 172 OFFCURVE",
"420 169 CURVE",
"417 163 OFFCURVE",
"415 156 OFFCURVE",
"415 148 CURVE SMOOTH",
"415 138 OFFCURVE",
"416 131 OFFCURVE",
"418 125 CURVE",
"428 121 OFFCURVE",
"441 119 OFFCURVE",
"453 119 CURVE SMOOTH",
"470 119 OFFCURVE",
"481 121 OFFCURVE",
"494 124 CURVE",
"501 140 OFFCURVE",
"502 152 OFFCURVE",
"504 168 CURVE"
);
}
);
width = 790;
}
);
unicode = 0103;
},
{
glyphname = acircumflex;
lastChange = "2015-10-17 22:56:41 +0000";
layers = (
{
layerId = "7A0FC40B-77F8-4D14-AD08-D047673E78CB";
name = Regular;
paths = (
{
closed = 1;
nodes = (
"317 574 OFFCURVE",
"389 595 OFFCURVE",
"459 618 CURVE",
"538 604 OFFCURVE",
"604 581 OFFCURVE",
"665 555 CURVE",
"651 519 OFFCURVE",
"640 490 OFFCURVE",
"637 449 CURVE",
"585 462 OFFCURVE",
"517 472 OFFCURVE",
"460 479 CURVE",
"400 470 OFFCURVE",
"331 458 OFFCURVE",
"278 441 CURVE",
"276 462 OFFCURVE",
"273 480 OFFCURVE",
"269 496 CURVE",
"264 512 OFFCURVE",
"259 529 OFFCURVE",
"254 547 CURVE"
);
},
{
closed = 1;
nodes = (
"224 271 OFFCURVE",
"274 276 OFFCURVE",
"346 276 CURVE SMOOTH",
"394 276 OFFCURVE",
"442 271 OFFCURVE",
"478 265 CURVE",
"478 277 OFFCURVE",
"474 287 OFFCURVE",
"466 295 CURVE",
"437 301 OFFCURVE",
"401 304 OFFCURVE",
"375 304 CURVE SMOOTH",
"335 304 OFFCURVE",
"300 301 OFFCURVE",
"275 299 CURVE SMOOTH",
"261 297 OFFCURVE",
"247 295 OFFCURVE",
"235 294 CURVE",
"229 343 OFFCURVE",
"212 381 OFFCURVE",
"192 418 CURVE",
"228 425 OFFCURVE",
"270 432 OFFCURVE",
"325 437 CURVE SMOOTH",
"352 439 OFFCURVE",
"382 440 OFFCURVE",
"416 440 CURVE SMOOTH",
"519 440 OFFCURVE",
"626 432 OFFCURVE",
"711 395 CURVE",
"734 375 OFFCURVE",
"747 339 OFFCURVE",
"756 298 CURVE SMOOTH",
"766 257 OFFCURVE",
"768 209 OFFCURVE",
"768 162 CURVE SMOOTH",
"768 93 OFFCURVE",
"761 28 OFFCURVE",
"757 0 CURVE",
"661 -1 OFFCURVE",
"566 -6 OFFCURVE",
"476 -14 CURVE",
"476 -7 LINE SMOOTH",
"476 -5 OFFCURVE",
"476 -2 OFFCURVE",
"476 1 CURVE SMOOTH",
"476 4 OFFCURVE",
"476 7 OFFCURVE",
"477 11 CURVE",
"451 -1 OFFCURVE",
"402 -17 OFFCURVE",
"323 -17 CURVE SMOOTH",
"270 -17 OFFCURVE",
"232 -10 OFFCURVE",
"186 6 CURVE",
"154 46 OFFCURVE",
"146 100 OFFCURVE",
"146 149 CURVE SMOOTH",
"146 198 OFFCURVE",
"156 226 OFFCURVE",
"169 253 CURVE"
);
},
{
closed = 1;
nodes = (
"488 172 OFFCURVE",
"476 174 OFFCURVE",
"460 174 CURVE SMOOTH",
"449 174 OFFCURVE",
"432 172 OFFCURVE",
"420 169 CURVE",
"417 163 OFFCURVE",
"415 156 OFFCURVE",
"415 148 CURVE SMOOTH",
"415 138 OFFCURVE",
"416 131 OFFCURVE",
"418 125 CURVE",
"428 121 OFFCURVE",
"441 119 OFFCURVE",
"453 119 CURVE SMOOTH",
"470 119 OFFCURVE",
"481 121 OFFCURVE",
"494 124 CURVE",
"501 140 OFFCURVE",
"502 152 OFFCURVE",
"504 168 CURVE"
);
}
);
width = 790;
}
);
unicode = 00E2;
},
{
glyphname = ccaron;
lastChange = "2015-10-17 22:56:41 +0000";
layers = (
{
layerId = "7A0FC40B-77F8-4D14-AD08-D047673E78CB";
name = Regular;
paths = (
{
closed = 1;
nodes = (
"244 434 OFFCURVE",
"322 445 OFFCURVE",
"412 445 CURVE SMOOTH",
"474 445 OFFCURVE",
"524 438 OFFCURVE",
"586 427 CURVE",
"571 380 OFFCURVE",
"564 327 OFFCURVE",
"564 288 CURVE",
"545 290 OFFCURVE",
"517 292 OFFCURVE",
"497 292 CURVE SMOOTH",
"467 292 OFFCURVE",
"443 289 OFFCURVE",
"408 279 CURVE",
"399 261 OFFCURVE",
"396 236 OFFCURVE",
"396 213 CURVE SMOOTH",
"396 186 OFFCURVE",
"405 165 OFFCURVE",
"417 144 CURVE",
"443 135 OFFCURVE",
"465 132 OFFCURVE",
"487 132 CURVE SMOOTH",
"517 132 OFFCURVE",
"545 134 OFFCURVE",
"566 140 CURVE",
"568 101 OFFCURVE",
"572 51 OFFCURVE",
"588 10 CURVE",
"528 -4 OFFCURVE",
"472 -13 OFFCURVE",
"400 -13 CURVE SMOOTH",
"314 -13 OFFCURVE",
"228 -7 OFFCURVE",
"155 35 CURVE",
"128 81 OFFCURVE",
"114 151 OFFCURVE",
"114 217 CURVE SMOOTH",
"114 285 OFFCURVE",
"126 343 OFFCURVE",
"171 408 CURVE"
);
},
{
closed = 1;
nodes = (
"506 484 OFFCURVE",
"433 466 OFFCURVE",
"364 450 CURVE",
"285 467 OFFCURVE",
"219 497 OFFCURVE",
"158 529 CURVE",
"172 556 OFFCURVE",
"183 580 OFFCURVE",
"186 610 CURVE",
"238 600 OFFCURVE",
"306 594 OFFCURVE",
"363 589 CURVE",
"423 595 OFFCURVE",
"492 605 OFFCURVE",
"545 618 CURVE",
"547 596 OFFCURVE",
"550 576 OFFCURVE",
"555 559 CURVE",
"559 542 OFFCURVE",
"564 523 OFFCURVE",
"569 504 CURVE"
);
}
);
width = 593;
}
);
unicode = 010D;
},
{
glyphname = ebreve;
lastChange = "2015-10-17 22:56:41 +0000";
layers = (
{
layerId = "7A0FC40B-77F8-4D14-AD08-D047673E78CB";
name = Regular;
paths = (
{
closed = 1;
nodes = (
"573 459 OFFCURVE",
"513 450 OFFCURVE",
"449 450 CURVE SMOOTH",
"386 450 OFFCURVE",
"324 459 OFFCURVE",
"267 488 CURVE",
"276 523 OFFCURVE",
"286 556 OFFCURVE",
"290 598 CURVE",
"329 585 OFFCURVE",
"386 577 OFFCURVE",
"449 577 CURVE SMOOTH",
"515 577 OFFCURVE",
"574 596 OFFCURVE",
"617 618 CURVE",
"619 568 OFFCURVE",
"625 530 OFFCURVE",
"632 488 CURVE"
);
},
{
closed = 1;
nodes = (
"475 173 OFFCURVE",
"450 173 OFFCURVE",
"426 176 CURVE",
"429 164 OFFCURVE",
"434 154 OFFCURVE",
"438 144 CURVE",
"483 135 OFFCURVE",
"520 132 OFFCURVE",
"557 132 CURVE SMOOTH",
"617 132 OFFCURVE",
"667 137 OFFCURVE",
"710 144 CURVE",
"713 105 OFFCURVE",
"719 55 OFFCURVE",
"733 14 CURVE",
"660 -2 OFFCURVE",
"592 -13 OFFCURVE",
"504 -13 CURVE SMOOTH",
"384 -13 OFFCURVE",
"272 -7 OFFCURVE",
"176 35 CURVE",
"149 85 OFFCURVE",
"135 157 OFFCURVE",
"135 229 CURVE SMOOTH",
"135 293 OFFCURVE",
"145 350 OFFCURVE",
"184 413 CURVE",
"270 436 OFFCURVE",
"359 445 OFFCURVE",
"466 445 CURVE SMOOTH",
"515 445 OFFCURVE",
"556 442 OFFCURVE",
"599 437 CURVE SMOOTH",
"641 432 OFFCURVE",
"682 425 OFFCURVE",
"731 415 CURVE",
"750 383 OFFCURVE",
"755 347 OFFCURVE",
"755 312 CURVE SMOOTH",
"755 266 OFFCURVE",
"747 216 OFFCURVE",
"731 184 CURVE",
"664 175 OFFCURVE",
"582 173 OFFCURVE",
"502 173 CURVE SMOOTH"
);
},
{
closed = 1;
nodes = (
"472 325 OFFCURVE",
"448 323 OFFCURVE",
"412 312 CURVE",
"408 303 OFFCURVE",
"405 292 OFFCURVE",
"403 280 CURVE",
"436 280 OFFCURVE",
"471 281 OFFCURVE",
"510 285 CURVE",
"510 290 OFFCURVE",
"509 297 OFFCURVE",
"508 304 CURVE SMOOTH",
"507 310 OFFCURVE",
"505 318 OFFCURVE",
"502 325 CURVE"
);
}
);
width = 770;
}
);
unicode = 0115;
},
{
glyphname = ecaron;
lastChange = "2015-10-17 22:56:41 +0000";
layers = (
{
layerId = "7A0FC40B-77F8-4D14-AD08-D047673E78CB";
name = Regular;
paths = (
{
closed = 1;
nodes = (
"591 484 OFFCURVE",
"519 466 OFFCURVE",
"449 450 CURVE",
"370 467 OFFCURVE",
"304 497 OFFCURVE",
"243 529 CURVE",
"257 556 OFFCURVE",
"268 580 OFFCURVE",
"272 610 CURVE",
"324 600 OFFCURVE",
"391 594 OFFCURVE",
"448 589 CURVE",
"508 595 OFFCURVE",
"577 605 OFFCURVE",
"630 618 CURVE",
"632 596 OFFCURVE",
"635 576 OFFCURVE",
"640 559 CURVE",
"644 542 OFFCURVE",
"649 523 OFFCURVE",
"654 504 CURVE"
);
},
{
closed = 1;
nodes = (
"475 173 OFFCURVE",
"450 173 OFFCURVE",
"426 176 CURVE",
"429 164 OFFCURVE",
"434 154 OFFCURVE",
"438 144 CURVE",
"483 135 OFFCURVE",
"520 132 OFFCURVE",
"557 132 CURVE SMOOTH",
"617 132 OFFCURVE",
"667 137 OFFCURVE",
"710 144 CURVE",
"713 105 OFFCURVE",
"719 55 OFFCURVE",
"733 14 CURVE",
"660 -2 OFFCURVE",
"592 -13 OFFCURVE",
"504 -13 CURVE SMOOTH",
"384 -13 OFFCURVE",
"272 -7 OFFCURVE",
"176 35 CURVE",
"149 85 OFFCURVE",
"135 157 OFFCURVE",
"135 229 CURVE SMOOTH",
"135 293 OFFCURVE",
"145 350 OFFCURVE",
"184 413 CURVE",
"270 436 OFFCURVE",
"359 445 OFFCURVE",
"466 445 CURVE SMOOTH",
"515 445 OFFCURVE",
"556 442 OFFCURVE",
"599 437 CURVE SMOOTH",
"641 432 OFFCURVE",
"682 425 OFFCURVE",
"731 415 CURVE",
"750 383 OFFCURVE",
"755 347 OFFCURVE",
"755 312 CURVE SMOOTH",
"755 266 OFFCURVE",
"747 216 OFFCURVE",
"731 184 CURVE",
"664 175 OFFCURVE",
"582 173 OFFCURVE",
"502 173 CURVE SMOOTH"
);
},
{
closed = 1;
nodes = (
"472 325 OFFCURVE",
"448 323 OFFCURVE",
"412 312 CURVE",
"408 303 OFFCURVE",
"405 292 OFFCURVE",
"403 280 CURVE",
"436 280 OFFCURVE",
"471 281 OFFCURVE",
"510 285 CURVE",
"510 290 OFFCURVE",
"509 297 OFFCURVE",
"508 304 CURVE SMOOTH",
"507 310 OFFCURVE",
"505 318 OFFCURVE",
"502 325 CURVE"
);
}
);
width = 770;
}
);
unicode = 011B;
},
{
glyphname = ecircumflex;
lastChange = "2015-10-17 22:56:41 +0000";
layers = (
{
layerId = "7A0FC40B-77F8-4D14-AD08-D047673E78CB";
name = Regular;
paths = (
{
closed = 1;
nodes = (
"306 575 OFFCURVE",
"379 596 OFFCURVE",
"448 618 CURVE",
"528 604 OFFCURVE",
"594 581 OFFCURVE",
"654 556 CURVE",
"640 520 OFFCURVE",
"629 490 OFFCURVE",
"626 450 CURVE",
"574 463 OFFCURVE",
"506 473 OFFCURVE",
"449 480 CURVE",
"390 470 OFFCURVE",
"320 459 OFFCURVE",
"267 442 CURVE",
"266 462 OFFCURVE",
"262 480 OFFCURVE",
"258 497 CURVE",
"253 513 OFFCURVE",
"248 530 OFFCURVE",
"243 547 CURVE"
);
},
{
closed = 1;
nodes = (
"475 173 OFFCURVE",
"450 173 OFFCURVE",
"426 176 CURVE",
"429 164 OFFCURVE",
"434 154 OFFCURVE",
"438 144 CURVE",
"483 135 OFFCURVE",
"520 132 OFFCURVE",
"557 132 CURVE SMOOTH",
"617 132 OFFCURVE",
"667 137 OFFCURVE",
"710 144 CURVE",
"713 105 OFFCURVE",
"719 55 OFFCURVE",
"733 14 CURVE",
"660 -2 OFFCURVE",
"592 -13 OFFCURVE",
"504 -13 CURVE SMOOTH",
"384 -13 OFFCURVE",
"272 -7 OFFCURVE",
"176 35 CURVE",
"149 85 OFFCURVE",
"135 157 OFFCURVE",
"135 229 CURVE SMOOTH",
"135 293 OFFCURVE",
"145 350 OFFCURVE",
"184 413 CURVE",
"270 436 OFFCURVE",
"359 445 OFFCURVE",
"466 445 CURVE SMOOTH",
"515 445 OFFCURVE",
"556 442 OFFCURVE",
"599 437 CURVE SMOOTH",
"641 432 OFFCURVE",
"682 425 OFFCURVE",
"731 415 CURVE",
"750 383 OFFCURVE",
"755 347 OFFCURVE",
"755 312 CURVE SMOOTH",
"755 266 OFFCURVE",
"747 216 OFFCURVE",
"731 184 CURVE",
"664 175 OFFCURVE",
"582 173 OFFCURVE",
"502 173 CURVE SMOOTH"
);
},
{
closed = 1;
nodes = (
"472 325 OFFCURVE",
"448 323 OFFCURVE",
"412 312 CURVE",
"408 303 OFFCURVE",
"405 292 OFFCURVE",
"403 280 CURVE",
"436 280 OFFCURVE",
"471 281 OFFCURVE",
"510 285 CURVE",
"510 290 OFFCURVE",
"509 297 OFFCURVE",
"508 304 CURVE SMOOTH",
"507 310 OFFCURVE",
"505 318 OFFCURVE",
"502 325 CURVE"
);
}
);
width = 770;
}
);
unicode = 00EA;
},
{
glyphname = c.peq;
lastChange = "2015-10-17 22:56:41 +0000";
layers = (
{
layerId = "7A0FC40B-77F8-4D14-AD08-D047673E78CB";
name = Regular;
paths = (
{
closed = 1;
nodes = (
"244 434 OFFCURVE",
"322 445 OFFCURVE",
"412 445 CURVE SMOOTH",
"474 445 OFFCURVE",
"524 438 OFFCURVE",
"586 427 CURVE",
"571 380 OFFCURVE",
"564 327 OFFCURVE",
"564 288 CURVE",
"545 290 OFFCURVE",
"517 292 OFFCURVE",
"497 292 CURVE SMOOTH",
"467 292 OFFCURVE",
"443 289 OFFCURVE",
"408 279 CURVE",
"399 261 OFFCURVE",
"396 236 OFFCURVE",
"396 213 CURVE SMOOTH",
"396 186 OFFCURVE",
"405 165 OFFCURVE",
"417 144 CURVE",
"443 135 OFFCURVE",
"465 132 OFFCURVE",
"487 132 CURVE SMOOTH",
"517 132 OFFCURVE",
"545 134 OFFCURVE",
"566 140 CURVE",
"568 101 OFFCURVE",
"572 51 OFFCURVE",
"588 10 CURVE",
"528 -4 OFFCURVE",
"472 -13 OFFCURVE",
"400 -13 CURVE SMOOTH",
"314 -13 OFFCURVE",
"228 -7 OFFCURVE",
"155 35 CURVE",
"128 81 OFFCURVE",
"114 151 OFFCURVE",
"114 217 CURVE SMOOTH",
"114 285 OFFCURVE",
"126 343 OFFCURVE",
"171 408 CURVE"
);
}
);
width = 593;
}
);
},
{
glyphname = cacute;
lastChange = "2015-10-17 22:56:41 +0000";
layers = (
{
layerId = "7A0FC40B-77F8-4D14-AD08-D047673E78CB";
name = Regular;
paths = (
{
closed = 1;
nodes = (
"233 567 OFFCURVE",
"300 575 OFFCURVE",
"363 585 CURVE SMOOTH",
"427 594 OFFCURVE",
"490 605 OFFCURVE",
"543 618 CURVE",
"547 565 OFFCURVE",
"556 525 OFFCURVE",
"567 480 CURVE",
"450 475 OFFCURVE",
"325 469 OFFCURVE",
"205 450 CURVE",
"203 487 OFFCURVE",
"192 523 OFFCURVE",
"176 561 CURVE"
);
},
{
closed = 1;
nodes = (
"244 434 OFFCURVE",
"322 445 OFFCURVE",
"412 445 CURVE SMOOTH",
"474 445 OFFCURVE",
"524 438 OFFCURVE",
"586 427 CURVE",
"571 380 OFFCURVE",
"564 327 OFFCURVE",
"564 288 CURVE",
"545 290 OFFCURVE",
"517 292 OFFCURVE",
"497 292 CURVE SMOOTH",
"467 292 OFFCURVE",
"443 289 OFFCURVE",
"408 279 CURVE",
"399 261 OFFCURVE",
"396 236 OFFCURVE",
"396 213 CURVE SMOOTH",
"396 186 OFFCURVE",
"405 165 OFFCURVE",
"417 144 CURVE",
"443 135 OFFCURVE",
"465 132 OFFCURVE",
"487 132 CURVE SMOOTH",
"517 132 OFFCURVE",
"545 134 OFFCURVE",
"566 140 CURVE",
"568 101 OFFCURVE",
"572 51 OFFCURVE",
"588 10 CURVE",
"528 -4 OFFCURVE",
"472 -13 OFFCURVE",
"400 -13 CURVE SMOOTH",
"314 -13 OFFCURVE",
"228 -7 OFFCURVE",
"155 35 CURVE",
"128 81 OFFCURVE",
"114 151 OFFCURVE",
"114 217 CURVE SMOOTH",
"114 285 OFFCURVE",
"126 343 OFFCURVE",
"171 408 CURVE"
);
}
);
width = 593;
}
);
unicode = 0107;
},
{
glyphname = ccircumflex;
lastChange = "2015-10-17 22:56:41 +0000";
layers = (
{
layerId = "7A0FC40B-77F8-4D14-AD08-D047673E78CB";
name = Regular;
paths = (
{
closed = 1;
nodes = (
"229 575 OFFCURVE",
"302 596 OFFCURVE",
"371 618 CURVE",
"451 604 OFFCURVE",
"517 581 OFFCURVE",
"577 556 CURVE",
"563 520 OFFCURVE",
"552 490 OFFCURVE",
"549 450 CURVE",
"497 463 OFFCURVE",
"429 473 OFFCURVE",
"372 480 CURVE",
"313 470 OFFCURVE",
"243 459 OFFCURVE",
"190 442 CURVE",
"189 462 OFFCURVE",
"186 480 OFFCURVE",
"181 497 CURVE",
"176 513 OFFCURVE",
"171 530 OFFCURVE",
"167 547 CURVE"
);
},
{
closed = 1;
nodes = (
"244 434 OFFCURVE",
"322 445 OFFCURVE",
"412 445 CURVE SMOOTH",
"474 445 OFFCURVE",
"524 438 OFFCURVE",
"586 427 CURVE",
"571 380 OFFCURVE",
"564 327 OFFCURVE",
"564 288 CURVE",
"545 290 OFFCURVE",
"517 292 OFFCURVE",
"497 292 CURVE SMOOTH",
"467 292 OFFCURVE",
"443 289 OFFCURVE",
"408 279 CURVE",
"399 261 OFFCURVE",
"396 236 OFFCURVE",
"396 213 CURVE SMOOTH",
"396 186 OFFCURVE",
"405 165 OFFCURVE",
"417 144 CURVE",
"443 135 OFFCURVE",
"465 132 OFFCURVE",
"487 132 CURVE SMOOTH",
"517 132 OFFCURVE",
"545 134 OFFCURVE",
"566 140 CURVE",
"568 101 OFFCURVE",
"572 51 OFFCURVE",
"588 10 CURVE",
"528 -4 OFFCURVE",
"472 -13 OFFCURVE",
"400 -13 CURVE SMOOTH",
"314 -13 OFFCURVE",
"228 -7 OFFCURVE",
"155 35 CURVE",
"128 81 OFFCURVE",
"114 151 OFFCURVE",
"114 217 CURVE SMOOTH",
"114 285 OFFCURVE",
"126 343 OFFCURVE",
"171 408 CURVE"
);
}
);
width = 593;
}
);
unicode = 0109;
},
{
glyphname = cdotaccent;
lastChange = "2015-10-17 22:56:41 +0000";
layers = (
{
layerId = "7A0FC40B-77F8-4D14-AD08-D047673E78CB";
name = Regular;
paths = (
{
closed = 1;
nodes = (
"459 451 LINE",
"419 456 OFFCURVE",
"380 459 OFFCURVE",
"344 459 CURVE SMOOTH",
"308 459 OFFCURVE",
"274 457 OFFCURVE",
"241 455 CURVE",
"242 461 OFFCURVE",
"242 466 OFFCURVE",
"242 472 CURVE SMOOTH",
"242 477 OFFCURVE",
"242 482 OFFCURVE",
"242 487 CURVE SMOOTH",
"242 530 OFFCURVE",
"238 566 OFFCURVE",
"231 608 CURVE",
"496 619 LINE"
);
},
{
closed = 1;
nodes = (
"244 434 OFFCURVE",
"322 445 OFFCURVE",
"412 445 CURVE SMOOTH",
"474 445 OFFCURVE",
"524 438 OFFCURVE",
"586 427 CURVE",
"571 380 OFFCURVE",
"564 327 OFFCURVE",
"564 288 CURVE",
"545 290 OFFCURVE",
"517 292 OFFCURVE",
"497 292 CURVE SMOOTH",
"467 292 OFFCURVE",
"443 289 OFFCURVE",
"408 279 CURVE",
"399 261 OFFCURVE",
"396 236 OFFCURVE",
"396 213 CURVE SMOOTH",
"396 186 OFFCURVE",
"405 165 OFFCURVE",
"417 144 CURVE",
"443 135 OFFCURVE",
"465 132 OFFCURVE",
"487 132 CURVE SMOOTH",
"517 132 OFFCURVE",
"545 134 OFFCURVE",
"566 140 CURVE",
"568 101 OFFCURVE",
"572 51 OFFCURVE",
"588 10 CURVE",
"528 -4 OFFCURVE",
"472 -13 OFFCURVE",
"400 -13 CURVE SMOOTH",
"314 -13 OFFCURVE",
"228 -7 OFFCURVE",
"155 35 CURVE",
"128 81 OFFCURVE",
"114 151 OFFCURVE",
"114 217 CURVE SMOOTH",
"114 285 OFFCURVE",
"126 343 OFFCURVE",
"171 408 CURVE"
);
}
);
width = 593;
}
);
unicode = 010B;
},
{
glyphname = dieresis;
lastChange = "2015-10-17 22:56:41 +0000";
layers = (
{
layerId = "7A0FC40B-77F8-4D14-AD08-D047673E78CB";
name = Regular;
paths = (
{
closed = 1;
nodes = (
"278 692 LINE",
"337 694 OFFCURVE",
"394 696 OFFCURVE",
"444 699 CURVE",
"440 648 OFFCURVE",
"437 610 OFFCURVE",
"434 568 CURVE",
"409 569 OFFCURVE",
"385 570 OFFCURVE",
"361 571 CURVE SMOOTH",
"337 572 OFFCURVE",
"313 573 OFFCURVE",
"287 574 CURVE"
);
},
{
closed = 1;
nodes = (
"246 574 LINE",
"89 574 LINE",
"89 611 OFFCURVE",
"84 648 OFFCURVE",
"77 687 CURVE",
"127 688 OFFCURVE",
"180 689 OFFCURVE",
"237 692 CURVE"
);
}
);
width = 457;
}
);
unicode = 00A8;
},
{
glyphname = macron;
lastChange = "2015-10-17 22:56:41 +0000";
layers = (
{
layerId = "7A0FC40B-77F8-4D14-AD08-D047673E78CB";
name = Regular;
paths = (
{
closed = 1;
nodes = (
"134 688 OFFCURVE",
"200 689 OFFCURVE",
"264 692 CURVE SMOOTH",
"327 694 OFFCURVE",
"391 696 OFFCURVE",
"444 699 CURVE",
"440 648 OFFCURVE",
"437 610 OFFCURVE",
"434 568 CURVE",
"322 574 OFFCURVE",
"205 575 OFFCURVE",
"89 575 CURVE",
"89 613 OFFCURVE",
"84 648 OFFCURVE",
"77 687 CURVE"
);
}
);
width = 457;
}
);
unicode = 00AF;
},
{
glyphname = amacron;
lastChange = "2015-10-17 22:56:41 +0000";
layers = (
{
layerId = "7A0FC40B-77F8-4D14-AD08-D047673E78CB";
name = Regular;
paths = (
{
closed = 1;
nodes = (
"224 271 OFFCURVE",
"274 276 OFFCURVE",
"346 276 CURVE SMOOTH",
"394 276 OFFCURVE",
"442 271 OFFCURVE",
"478 265 CURVE",
"478 277 OFFCURVE",
"474 287 OFFCURVE",
"466 295 CURVE",
"437 301 OFFCURVE",
"401 304 OFFCURVE",
"375 304 CURVE SMOOTH",
"335 304 OFFCURVE",
"300 301 OFFCURVE",
"275 299 CURVE SMOOTH",
"261 297 OFFCURVE",
"247 295 OFFCURVE",
"235 294 CURVE",
"229 343 OFFCURVE",
"212 381 OFFCURVE",
"192 418 CURVE",
"228 425 OFFCURVE",
"270 432 OFFCURVE",
"325 437 CURVE SMOOTH",
"352 439 OFFCURVE",
"382 440 OFFCURVE",
"416 440 CURVE SMOOTH",
"519 440 OFFCURVE",
"626 432 OFFCURVE",
"711 395 CURVE",
"734 375 OFFCURVE",
"747 339 OFFCURVE",
"756 298 CURVE SMOOTH",
"766 257 OFFCURVE",
"768 209 OFFCURVE",
"768 162 CURVE SMOOTH",
"768 93 OFFCURVE",
"761 28 OFFCURVE",
"757 0 CURVE",
"661 -1 OFFCURVE",
"566 -6 OFFCURVE",
"476 -14 CURVE",
"476 -7 LINE SMOOTH",
"476 -5 OFFCURVE",
"476 -2 OFFCURVE",
"476 1 CURVE SMOOTH",
"476 4 OFFCURVE",
"476 7 OFFCURVE",
"477 11 CURVE",
"451 -1 OFFCURVE",
"402 -17 OFFCURVE",
"323 -17 CURVE SMOOTH",
"270 -17 OFFCURVE",
"232 -10 OFFCURVE",
"186 6 CURVE",
"154 46 OFFCURVE",
"146 100 OFFCURVE",
"146 149 CURVE SMOOTH",
"146 198 OFFCURVE",
"156 226 OFFCURVE",
"169 253 CURVE"
);
},
{
closed = 1;
nodes = (
"488 172 OFFCURVE",
"476 174 OFFCURVE",
"460 174 CURVE SMOOTH",
"449 174 OFFCURVE",
"432 172 OFFCURVE",
"420 169 CURVE",
"417 163 OFFCURVE",
"415 156 OFFCURVE",
"415 148 CURVE SMOOTH",
"415 138 OFFCURVE",
"416 131 OFFCURVE",
"418 125 CURVE",
"428 121 OFFCURVE",
"441 119 OFFCURVE",
"453 119 CURVE SMOOTH",
"470 119 OFFCURVE",
"481 121 OFFCURVE",
"494 124 CURVE",
"501 140 OFFCURVE",
"502 152 OFFCURVE",
"504 168 CURVE"
);
},
{
closed = 1;
nodes = (
"333 586 OFFCURVE",
"399 588 OFFCURVE",
"463 590 CURVE SMOOTH",
"527 593 OFFCURVE",
"590 595 OFFCURVE",
"643 597 CURVE",
"639 547 OFFCURVE",
"636 509 OFFCURVE",
"633 466 CURVE",
"521 472 OFFCURVE",
"404 473 OFFCURVE",
"289 474 CURVE",
"288 511 OFFCURVE",
"283 547 OFFCURVE",
"276 585 CURVE"
);
}
);
width = 790;
}
);
unicode = 0101;
},
{
glyphname = emacron;
lastChange = "2015-10-17 22:56:41 +0000";
layers = (
{
layerId = "7A0FC40B-77F8-4D14-AD08-D047673E78CB";
name = Regular;
paths = (
{
closed = 1;
nodes = (
"475 173 OFFCURVE",
"450 173 OFFCURVE",
"426 176 CURVE",
"429 164 OFFCURVE",
"434 154 OFFCURVE",
"438 144 CURVE",
"483 135 OFFCURVE",
"520 132 OFFCURVE",
"557 132 CURVE SMOOTH",
"617 132 OFFCURVE",
"667 137 OFFCURVE",
"710 144 CURVE",
"713 105 OFFCURVE",
"719 55 OFFCURVE",
"733 14 CURVE",
"660 -2 OFFCURVE",
"592 -13 OFFCURVE",
"504 -13 CURVE SMOOTH",
"384 -13 OFFCURVE",
"272 -7 OFFCURVE",
"176 35 CURVE",
"149 85 OFFCURVE",
"135 157 OFFCURVE",
"135 229 CURVE SMOOTH",
"135 293 OFFCURVE",
"145 350 OFFCURVE",
"184 413 CURVE",
"270 436 OFFCURVE",
"359 445 OFFCURVE",
"466 445 CURVE SMOOTH",
"515 445 OFFCURVE",
"556 442 OFFCURVE",
"599 437 CURVE SMOOTH",
"641 432 OFFCURVE",
"682 425 OFFCURVE",
"731 415 CURVE",
"750 383 OFFCURVE",
"755 347 OFFCURVE",
"755 312 CURVE SMOOTH",
"755 266 OFFCURVE",
"747 216 OFFCURVE",
"731 184 CURVE",
"664 175 OFFCURVE",
"582 173 OFFCURVE",
"502 173 CURVE SMOOTH"
);
},
{
closed = 1;
nodes = (
"472 325 OFFCURVE",
"448 323 OFFCURVE",
"412 312 CURVE",
"408 303 OFFCURVE",
"405 292 OFFCURVE",
"403 280 CURVE",
"436 280 OFFCURVE",
"471 281 OFFCURVE",
"510 285 CURVE",
"510 290 OFFCURVE",
"509 297 OFFCURVE",
"508 304 CURVE SMOOTH",
"507 310 OFFCURVE",
"505 318 OFFCURVE",
"502 325 CURVE"
);
},
{
closed = 1;
nodes = (
"323 587 OFFCURVE",
"389 589 OFFCURVE",
"453 591 CURVE SMOOTH",
"516 594 OFFCURVE",
"580 595 OFFCURVE",
"633 598 CURVE",
"629 547 OFFCURVE",
"625 509 OFFCURVE",
"623 467 CURVE",
"510 473 OFFCURVE",
"394 474 OFFCURVE",
"278 475 CURVE",
"277 512 OFFCURVE",
"272 547 OFFCURVE",
"266 586 CURVE"
);
}
);
width = 770;
}
);
unicode = 0113;
},
{
glyphname = imacron;
lastChange = "2015-10-17 22:56:41 +0000";
layers = (
{
layerId = "7A0FC40B-77F8-4D14-AD08-D047673E78CB";
name = Regular;
paths = (
{
closed = 1;
nodes = (
"368 -2 LINE",
"279 -3 OFFCURVE",
"185 -5 OFFCURVE",
"103 -12 CURVE",
"103 133 OFFCURVE",
"103 276 OFFCURVE",
"98 419 CURVE",
"108 419 OFFCURVE",
"118 419 OFFCURVE",
"129 419 CURVE SMOOTH",
"140 419 OFFCURVE",
"150 419 OFFCURVE",
"161 419 CURVE SMOOTH",
"230 419 OFFCURVE",
"297 419 OFFCURVE",
"360 428 CURVE"
);
},
{
closed = 1;
nodes = (
"114 587 OFFCURVE",
"180 589 OFFCURVE",
"244 591 CURVE SMOOTH",
"307 594 OFFCURVE",
"371 595 OFFCURVE",
"424 598 CURVE",
"420 548 OFFCURVE",
"417 509 OFFCURVE",
"414 467 CURVE",
"302 473 OFFCURVE",
"185 474 OFFCURVE",
"69 475 CURVE",
"69 512 OFFCURVE",
"64 548 OFFCURVE",
"57 586 CURVE"
);
}
);
width = 401;
}
);
unicode = 012B;
},
{
glyphname = omacron;
lastChange = "2015-10-17 22:56:41 +0000";
layers = (
{
layerId = "7A0FC40B-77F8-4D14-AD08-D047673E78CB";
name = Regular;
paths = (
{
closed = 1;
nodes = (
"360 -12 OFFCURVE",
"276 0 OFFCURVE",
"217 25 CURVE",
"194 48 OFFCURVE",
"179 75 OFFCURVE",
"167 106 CURVE SMOOTH",
"155 138 OFFCURVE",
"150 175 OFFCURVE",
"150 222 CURVE SMOOTH",
"150 300 OFFCURVE",
"166 352 OFFCURVE",
"195 397 CURVE",
"258 427 OFFCURVE",
"351 442 OFFCURVE",
"475 442 CURVE SMOOTH",
"600 442 OFFCURVE",
"695 425 OFFCURVE",
"758 390 CURVE",
"769 367 OFFCURVE",
"777 345 OFFCURVE",
"783 319 CURVE SMOOTH",
"789 294 OFFCURVE",
"791 265 OFFCURVE",
"791 228 CURVE SMOOTH",
"791 189 OFFCURVE",
"787 157 OFFCURVE",
"780 129 CURVE SMOOTH",
"773 101 OFFCURVE",
"762 76 OFFCURVE",
"749 50 CURVE",
"689 9 OFFCURVE",
"594 -12 OFFCURVE",
"466 -12 CURVE SMOOTH"
);
},
{
closed = 1;
nodes = (
"427 260 OFFCURVE",
"423 235 OFFCURVE",
"423 208 CURVE SMOOTH",
"423 167 OFFCURVE",
"423 142 OFFCURVE",
"432 126 CURVE",
"439 119 OFFCURVE",
"451 115 OFFCURVE",
"467 115 CURVE SMOOTH",
"483 115 OFFCURVE",
"494 119 OFFCURVE",
"502 126 CURVE",
"514 143 OFFCURVE",
"517 176 OFFCURVE",
"517 218 CURVE SMOOTH",
"517 254 OFFCURVE",
"512 279 OFFCURVE",
"504 292 CURVE",
"497 299 OFFCURVE",
"489 299 OFFCURVE",
"476 299 CURVE SMOOTH",
"457 299 OFFCURVE",
"446 295 OFFCURVE",
"436 286 CURVE"
);
},
{
closed = 1;
nodes = (
"344 587 OFFCURVE",
"410 589 OFFCURVE",
"474 591 CURVE SMOOTH",
"537 594 OFFCURVE",
"601 595 OFFCURVE",
"654 598 CURVE",
"650 548 OFFCURVE",
"646 509 OFFCURVE",
"644 467 CURVE",
"531 473 OFFCURVE",
"415 474 OFFCURVE",
"299 475 CURVE",
"298 512 OFFCURVE",
"293 548 OFFCURVE",
"287 586 CURVE"
);
}
);
width = 806;
}
);
unicode = 014D;
},
{
glyphname = edieresis;
lastChange = "2015-10-17 22:56:41 +0000";
layers = (
{
layerId = "7A0FC40B-77F8-4D14-AD08-D047673E78CB";
name = Regular;
paths = (
{
closed = 1;
nodes = (
"475 173 OFFCURVE",
"450 173 OFFCURVE",
"426 176 CURVE",
"429 164 OFFCURVE",
"434 154 OFFCURVE",
"438 144 CURVE",
"483 135 OFFCURVE",
"520 132 OFFCURVE",
"557 132 CURVE SMOOTH",
"617 132 OFFCURVE",
"667 137 OFFCURVE",
"710 144 CURVE",
"713 105 OFFCURVE",
"719 55 OFFCURVE",
"733 14 CURVE",
"660 -2 OFFCURVE",
"592 -13 OFFCURVE",
"504 -13 CURVE SMOOTH",
"384 -13 OFFCURVE",
"272 -7 OFFCURVE",
"176 35 CURVE",
"149 85 OFFCURVE",
"135 157 OFFCURVE",
"135 229 CURVE SMOOTH",
"135 293 OFFCURVE",
"145 350 OFFCURVE",
"184 413 CURVE",
"270 436 OFFCURVE",
"359 445 OFFCURVE",
"466 445 CURVE SMOOTH",
"515 445 OFFCURVE",
"556 442 OFFCURVE",
"599 437 CURVE SMOOTH",
"641 432 OFFCURVE",
"682 425 OFFCURVE",
"731 415 CURVE",
"750 383 OFFCURVE",
"755 347 OFFCURVE",
"755 312 CURVE SMOOTH",
"755 266 OFFCURVE",
"747 216 OFFCURVE",
"731 184 CURVE",
"664 175 OFFCURVE",
"582 173 OFFCURVE",
"502 173 CURVE SMOOTH"
);
},
{
closed = 1;
nodes = (
"472 325 OFFCURVE",
"448 323 OFFCURVE",
"412 312 CURVE",
"408 303 OFFCURVE",
"405 292 OFFCURVE",
"403 280 CURVE",
"436 280 OFFCURVE",
"471 281 OFFCURVE",
"510 285 CURVE",
"510 290 OFFCURVE",
"509 297 OFFCURVE",
"508 304 CURVE SMOOTH",
"507 310 OFFCURVE",
"505 318 OFFCURVE",
"502 325 CURVE"
);
},
{
closed = 1;
nodes = (
"467 591 LINE",
"526 594 OFFCURVE",
"583 595 OFFCURVE",
"633 598 CURVE",
"629 547 OFFCURVE",
"625 509 OFFCURVE",
"623 467 CURVE",
"598 468 OFFCURVE",
"574 470 OFFCURVE",
"550 470 CURVE SMOOTH",
"526 471 OFFCURVE",
"501 472 OFFCURVE",
"476 473 CURVE"
);
},
{
closed = 1;
nodes = (
"434 473 LINE",
"278 473 LINE",
"278 510 OFFCURVE",
"273 547 OFFCURVE",
"266 586 CURVE",
"315 587 OFFCURVE",
"369 589 OFFCURVE",
"425 591 CURVE"
);
}
);
width = 770;
}
);
unicode = 00EB;
},
{
glyphname = adieresis;
lastChange = "2015-10-17 22:56:41 +0000";
layers = (
{
layerId = "7A0FC40B-77F8-4D14-AD08-D047673E78CB";
name = Regular;
paths = (
{
closed = 1;
nodes = (
"224 271 OFFCURVE",
"274 276 OFFCURVE",
"346 276 CURVE SMOOTH",
"394 276 OFFCURVE",
"442 271 OFFCURVE",
"478 265 CURVE",
"478 277 OFFCURVE",
"474 287 OFFCURVE",
"466 295 CURVE",
"437 301 OFFCURVE",
"401 304 OFFCURVE",
"375 304 CURVE SMOOTH",
"335 304 OFFCURVE",
"300 301 OFFCURVE",
"275 299 CURVE SMOOTH",
"261 297 OFFCURVE",
"247 295 OFFCURVE",
"235 294 CURVE",
"229 343 OFFCURVE",
"212 381 OFFCURVE",
"192 418 CURVE",
"228 425 OFFCURVE",
"270 432 OFFCURVE",
"325 437 CURVE SMOOTH",
"352 439 OFFCURVE",
"382 440 OFFCURVE",
"416 440 CURVE SMOOTH",
"519 440 OFFCURVE",
"626 432 OFFCURVE",
"711 395 CURVE",
"734 375 OFFCURVE",
"747 339 OFFCURVE",
"756 298 CURVE SMOOTH",
"766 257 OFFCURVE",
"768 209 OFFCURVE",
"768 162 CURVE SMOOTH",
"768 93 OFFCURVE",
"761 28 OFFCURVE",
"757 0 CURVE",
"661 -1 OFFCURVE",
"566 -6 OFFCURVE",
"476 -14 CURVE",
"476 -7 LINE SMOOTH",
"476 -5 OFFCURVE",
"476 -2 OFFCURVE",
"476 1 CURVE SMOOTH",
"476 4 OFFCURVE",
"476 7 OFFCURVE",
"477 11 CURVE",
"451 -1 OFFCURVE",
"402 -17 OFFCURVE",
"323 -17 CURVE SMOOTH",
"270 -17 OFFCURVE",
"232 -10 OFFCURVE",
"186 6 CURVE",
"154 46 OFFCURVE",
"146 100 OFFCURVE",
"146 149 CURVE SMOOTH",
"146 198 OFFCURVE",
"156 226 OFFCURVE",
"169 253 CURVE"
);
},
{
closed = 1;
nodes = (
"488 172 OFFCURVE",
"476 174 OFFCURVE",
"460 174 CURVE SMOOTH",
"449 174 OFFCURVE",
"432 172 OFFCURVE",
"420 169 CURVE",
"417 163 OFFCURVE",
"415 156 OFFCURVE",
"415 148 CURVE SMOOTH",
"415 138 OFFCURVE",
"416 131 OFFCURVE",
"418 125 CURVE",
"428 121 OFFCURVE",
"441 119 OFFCURVE",
"453 119 CURVE SMOOTH",
"470 119 OFFCURVE",
"481 121 OFFCURVE",
"494 124 CURVE",
"501 140 OFFCURVE",
"502 152 OFFCURVE",
"504 168 CURVE"
);
},
{
closed = 1;
nodes = (
"477 590 LINE",
"537 593 OFFCURVE",
"594 595 OFFCURVE",
"643 597 CURVE",
"639 547 OFFCURVE",
"636 509 OFFCURVE",
"633 466 CURVE",
"608 467 OFFCURVE",
"585 469 OFFCURVE",
"561 470 CURVE SMOOTH",
"537 471 OFFCURVE",
"512 471 OFFCURVE",
"486 472 CURVE"
);
},
{
closed = 1;
nodes = (
"445 472 LINE",
"289 472 LINE",
"289 509 OFFCURVE",
"284 547 OFFCURVE",
"276 585 CURVE",
"326 586 OFFCURVE",
"380 588 OFFCURVE",
"436 590 CURVE"
);
}
);
width = 790;
}
);
unicode = 00E4;
},
{
glyphname = idieresis;
lastChange = "2015-10-17 22:56:41 +0000";
layers = (
{
layerId = "7A0FC40B-77F8-4D14-AD08-D047673E78CB";
name = Regular;
paths = (
{
closed = 1;
nodes = (
"368 -2 LINE",
"279 -3 OFFCURVE",
"185 -5 OFFCURVE",
"103 -12 CURVE",
"103 133 OFFCURVE",
"103 276 OFFCURVE",
"98 419 CURVE",
"108 419 OFFCURVE",
"118 419 OFFCURVE",
"129 419 CURVE SMOOTH",
"140 419 OFFCURVE",
"150 419 OFFCURVE",
"161 419 CURVE SMOOTH",
"230 419 OFFCURVE",
"297 419 OFFCURVE",
"360 428 CURVE"
);
},
{
closed = 1;
nodes = (
"258 591 LINE",
"317 594 OFFCURVE",
"374 595 OFFCURVE",
"424 598 CURVE",
"420 548 OFFCURVE",
"417 509 OFFCURVE",
"414 467 CURVE",
"389 468 OFFCURVE",
"365 470 OFFCURVE",
"341 471 CURVE SMOOTH",
"317 471 OFFCURVE",
"293 472 OFFCURVE",
"267 473 CURVE"
);
},
{
closed = 1;
nodes = (
"226 473 LINE",
"69 473 LINE",
"69 510 OFFCURVE",
"64 548 OFFCURVE",
"57 586 CURVE",
"107 587 OFFCURVE",
"160 589 OFFCURVE",
"217 591 CURVE"
);
}
);
width = 401;
}
);
unicode = 00EF;
},
{
glyphname = icircumflex;
lastChange = "2015-10-17 22:56:41 +0000";
layers = (
{
layerId = "7A0FC40B-77F8-4D14-AD08-D047673E78CB";
name = Regular;
paths = (
{
closed = 1;
nodes = (
"372 -2 LINE",
"284 -3 OFFCURVE",
"190 -5 OFFCURVE",
"108 -12 CURVE",
"108 133 OFFCURVE",
"108 276 OFFCURVE",
"102 419 CURVE",
"113 419 OFFCURVE",
"123 419 OFFCURVE",
"133 419 CURVE SMOOTH",
"144 419 OFFCURVE",
"155 419 OFFCURVE",
"166 419 CURVE SMOOTH",
"234 419 OFFCURVE",
"301 419 OFFCURVE",
"364 428 CURVE"
);
},
{
closed = 1;
nodes = (
"102 575 OFFCURVE",
"175 596 OFFCURVE",
"244 619 CURVE",
"324 605 OFFCURVE",
"390 581 OFFCURVE",
"450 556 CURVE",
"436 520 OFFCURVE",
"425 490 OFFCURVE",
"422 450 CURVE",
"370 463 OFFCURVE",
"302 473 OFFCURVE",
"245 480 CURVE",
"186 471 OFFCURVE",
"116 459 OFFCURVE",
"63 442 CURVE",
"62 462 OFFCURVE",
"58 481 OFFCURVE",
"54 497 CURVE",
"49 513 OFFCURVE",
"44 530 OFFCURVE",
"39 548 CURVE"
);
}
);
width = 401;
}
);
unicode = 00EE;
},
{
glyphname = ibreve;
lastChange = "2015-10-17 22:56:41 +0000";
layers = (
{
layerId = "7A0FC40B-77F8-4D14-AD08-D047673E78CB";
name = Regular;
paths = (
{
closed = 1;
nodes = (
"368 -2 LINE",
"279 -3 OFFCURVE",
"185 -5 OFFCURVE",
"103 -12 CURVE",
"103 133 OFFCURVE",
"103 276 OFFCURVE",
"97 419 CURVE",
"108 419 OFFCURVE",
"118 419 OFFCURVE",
"129 419 CURVE SMOOTH",
"140 419 OFFCURVE",
"150 419 OFFCURVE",
"161 419 CURVE SMOOTH",
"230 419 OFFCURVE",
"297 419 OFFCURVE",
"359 428 CURVE"
);
},
{
closed = 1;
nodes = (
"364 459 OFFCURVE",
"304 450 OFFCURVE",
"240 450 CURVE SMOOTH",
"177 450 OFFCURVE",
"115 459 OFFCURVE",
"58 488 CURVE",
"68 524 OFFCURVE",
"77 556 OFFCURVE",
"81 598 CURVE",
"121 586 OFFCURVE",
"178 577 OFFCURVE",
"240 577 CURVE SMOOTH",
"306 577 OFFCURVE",
"365 596 OFFCURVE",
"408 619 CURVE",
"411 568 OFFCURVE",
"416 530 OFFCURVE",
"423 488 CURVE"
);
}
);
width = 401;
}
);
unicode = 012D;
},
{
glyphname = obreve;
lastChange = "2015-10-17 22:56:41 +0000";
layers = (
{
layerId = "7A0FC40B-77F8-4D14-AD08-D047673E78CB";
name = Regular;
paths = (
{
closed = 1;
nodes = (
"594 459 OFFCURVE",
"534 450 OFFCURVE",
"470 450 CURVE SMOOTH",
"407 450 OFFCURVE",
"345 459 OFFCURVE",
"288 488 CURVE",
"298 524 OFFCURVE",
"307 556 OFFCURVE",
"311 598 CURVE",
"351 586 OFFCURVE",
"408 577 OFFCURVE",
"470 577 CURVE SMOOTH",
"536 577 OFFCURVE",
"595 596 OFFCURVE",
"638 619 CURVE",
"641 568 OFFCURVE",
"646 530 OFFCURVE",
"653 488 CURVE"
);
},
{
closed = 1;
nodes = (
"360 -12 OFFCURVE",
"276 0 OFFCURVE",
"217 25 CURVE",
"194 48 OFFCURVE",
"179 75 OFFCURVE",
"167 106 CURVE SMOOTH",
"155 138 OFFCURVE",
"150 175 OFFCURVE",
"150 222 CURVE SMOOTH",
"150 300 OFFCURVE",
"166 352 OFFCURVE",
"195 397 CURVE",
"258 427 OFFCURVE",
"351 442 OFFCURVE",
"475 442 CURVE SMOOTH",
"600 442 OFFCURVE",
"695 425 OFFCURVE",
"758 390 CURVE",
"769 367 OFFCURVE",
"777 345 OFFCURVE",
"783 319 CURVE SMOOTH",
"789 294 OFFCURVE",
"791 265 OFFCURVE",
"791 228 CURVE SMOOTH",
"791 189 OFFCURVE",
"787 157 OFFCURVE",
"780 129 CURVE SMOOTH",
"773 101 OFFCURVE",
"762 76 OFFCURVE",
"749 50 CURVE",
"689 9 OFFCURVE",
"594 -12 OFFCURVE",
"466 -12 CURVE SMOOTH"
);
},
{
closed = 1;
nodes = (
"427 260 OFFCURVE",
"423 235 OFFCURVE",
"423 208 CURVE SMOOTH",
"423 167 OFFCURVE",
"423 142 OFFCURVE",
"432 126 CURVE",
"439 119 OFFCURVE",
"451 115 OFFCURVE",
"467 115 CURVE SMOOTH",
"483 115 OFFCURVE",
"494 119 OFFCURVE",
"502 126 CURVE",
"514 143 OFFCURVE",
"517 176 OFFCURVE",
"517 218 CURVE SMOOTH",
"517 254 OFFCURVE",
"512 279 OFFCURVE",
"504 292 CURVE",
"497 299 OFFCURVE",
"489 299 OFFCURVE",
"476 299 CURVE SMOOTH",
"457 299 OFFCURVE",
"446 295 OFFCURVE",
"436 286 CURVE"
);
}
);
width = 806;
}
);
unicode = 014F;
},
{
glyphname = ocircumflex;
lastChange = "2015-10-17 22:56:41 +0000";
layers = (
{
layerId = "7A0FC40B-77F8-4D14-AD08-D047673E78CB";
name = Regular;
paths = (
{
closed = 1;
nodes = (
"327 575 OFFCURVE",
"400 596 OFFCURVE",
"470 619 CURVE",
"549 605 OFFCURVE",
"615 581 OFFCURVE",
"675 556 CURVE",
"661 520 OFFCURVE",
"651 490 OFFCURVE",
"647 450 CURVE",
"595 463 OFFCURVE",
"527 473 OFFCURVE",
"470 480 CURVE",
"411 471 OFFCURVE",
"341 459 OFFCURVE",
"289 442 CURVE",
"287 462 OFFCURVE",
"284 481 OFFCURVE",
"279 497 CURVE",
"274 513 OFFCURVE",
"270 530 OFFCURVE",
"265 548 CURVE"
);
},
{
closed = 1;
nodes = (
"360 -12 OFFCURVE",
"276 0 OFFCURVE",
"217 25 CURVE",
"194 48 OFFCURVE",
"179 75 OFFCURVE",
"167 106 CURVE SMOOTH",
"155 138 OFFCURVE",
"150 175 OFFCURVE",
"150 222 CURVE SMOOTH",
"150 300 OFFCURVE",
"166 352 OFFCURVE",
"195 397 CURVE",
"258 427 OFFCURVE",
"351 442 OFFCURVE",
"475 442 CURVE SMOOTH",
"600 442 OFFCURVE",
"695 425 OFFCURVE",
"758 390 CURVE",
"769 367 OFFCURVE",
"777 345 OFFCURVE",
"783 319 CURVE SMOOTH",
"789 294 OFFCURVE",
"791 265 OFFCURVE",
"791 228 CURVE SMOOTH",
"791 189 OFFCURVE",
"787 157 OFFCURVE",
"780 129 CURVE SMOOTH",
"773 101 OFFCURVE",
"762 76 OFFCURVE",
"749 50 CURVE",
"689 9 OFFCURVE",
"594 -12 OFFCURVE",
"466 -12 CURVE SMOOTH"
);
},
{
closed = 1;
nodes = (
"427 260 OFFCURVE",
"423 235 OFFCURVE",
"423 208 CURVE SMOOTH",
"423 167 OFFCURVE",
"423 142 OFFCURVE",
"432 126 CURVE",
"439 119 OFFCURVE",
"451 115 OFFCURVE",
"467 115 CURVE SMOOTH",
"483 115 OFFCURVE",
"494 119 OFFCURVE",
"502 126 CURVE",
"514 143 OFFCURVE",
"517 176 OFFCURVE",
"517 218 CURVE SMOOTH",
"517 254 OFFCURVE",
"512 279 OFFCURVE",
"504 292 CURVE",
"497 299 OFFCURVE",
"489 299 OFFCURVE",
"476 299 CURVE SMOOTH",
"457 299 OFFCURVE",
"446 295 OFFCURVE",
"436 286 CURVE"
);
}
);
width = 806;
}
);
unicode = 00F4;
},
{
glyphname = odieresis;
lastChange = "2015-10-17 22:56:41 +0000";
layers = (
{
layerId = "7A0FC40B-77F8-4D14-AD08-D047673E78CB";
name = Regular;
paths = (
{
closed = 1;
nodes = (
"488 591 LINE",
"547 594 OFFCURVE",
"604 595 OFFCURVE",
"654 598 CURVE",
"650 548 OFFCURVE",
"646 509 OFFCURVE",
"644 467 CURVE",
"619 468 OFFCURVE",
"595 470 OFFCURVE",
"571 471 CURVE SMOOTH",
"547 471 OFFCURVE",
"522 472 OFFCURVE",
"497 473 CURVE"
);
},
{
closed = 1;
nodes = (
"455 473 LINE",
"299 473 LINE",
"299 510 OFFCURVE",
"294 548 OFFCURVE",
"287 586 CURVE",
"336 587 OFFCURVE",
"390 589 OFFCURVE",
"446 591 CURVE"
);
},
{
closed = 1;
nodes = (
"360 -12 OFFCURVE",
"276 0 OFFCURVE",
"217 25 CURVE",
"194 48 OFFCURVE",
"179 75 OFFCURVE",
"167 106 CURVE SMOOTH",
"155 138 OFFCURVE",
"150 175 OFFCURVE",
"150 222 CURVE SMOOTH",
"150 300 OFFCURVE",
"166 352 OFFCURVE",
"195 397 CURVE",
"258 427 OFFCURVE",
"351 442 OFFCURVE",
"475 442 CURVE SMOOTH",
"600 442 OFFCURVE",
"695 425 OFFCURVE",
"758 390 CURVE",
"769 367 OFFCURVE",
"777 345 OFFCURVE",
"783 319 CURVE SMOOTH",
"789 294 OFFCURVE",
"791 265 OFFCURVE",
"791 228 CURVE SMOOTH",
"791 189 OFFCURVE",
"787 157 OFFCURVE",
"780 129 CURVE SMOOTH",
"773 101 OFFCURVE",
"762 76 OFFCURVE",
"749 50 CURVE",
"689 9 OFFCURVE",
"594 -12 OFFCURVE",
"466 -12 CURVE SMOOTH"
);
},
{
closed = 1;
nodes = (
"427 260 OFFCURVE",
"423 235 OFFCURVE",
"423 208 CURVE SMOOTH",
"423 167 OFFCURVE",
"423 142 OFFCURVE",
"432 126 CURVE",
"439 119 OFFCURVE",
"451 115 OFFCURVE",
"467 115 CURVE SMOOTH",
"483 115 OFFCURVE",
"494 119 OFFCURVE",
"502 126 CURVE",
"514 143 OFFCURVE",
"517 176 OFFCURVE",
"517 218 CURVE SMOOTH",
"517 254 OFFCURVE",
"512 279 OFFCURVE",
"504 292 CURVE",
"497 299 OFFCURVE",
"489 299 OFFCURVE",
"476 299 CURVE SMOOTH",
"457 299 OFFCURVE",
"446 295 OFFCURVE",
"436 286 CURVE"
);
}
);
width = 806;
}
);
unicode = 00F6;
},
{
glyphname = ubreve;
lastChange = "2015-10-17 22:56:41 +0000";
layers = (
{
layerId = "7A0FC40B-77F8-4D14-AD08-D047673E78CB";
name = Regular;
paths = (
{
closed = 1;
nodes = (
"578 459 OFFCURVE",
"518 450 OFFCURVE",
"454 450 CURVE SMOOTH",
"391 450 OFFCURVE",
"329 459 OFFCURVE",
"272 488 CURVE",
"281 524 OFFCURVE",
"291 556 OFFCURVE",
"295 598 CURVE",
"334 586 OFFCURVE",
"391 577 OFFCURVE",
"454 577 CURVE SMOOTH",
"520 577 OFFCURVE",
"579 596 OFFCURVE",
"622 619 CURVE",
"624 568 OFFCURVE",
"630 530 OFFCURVE",
"637 488 CURVE"
);
},
{
closed = 1;
nodes = (
"482 444 LINE",
"576 444 OFFCURVE",
"665 444 OFFCURVE",
"751 454 CURVE",
"751 414 OFFCURVE",
"751 376 OFFCURVE",
"751 338 CURVE SMOOTH",
"751 262 OFFCURVE",
"752 189 OFFCURVE",
"755 114 CURVE SMOOTH",
"756 76 OFFCURVE",
"758 38 OFFCURVE",
"760 -1 CURVE",
"462 -12 LINE",
"467 38 LINE",
"408 -2 OFFCURVE",
"361 -12 OFFCURVE",
"315 -12 CURVE SMOOTH",
"258 -12 OFFCURVE",
"222 2 OFFCURVE",
"185 26 CURVE",
"159 90 OFFCURVE",
"153 152 OFFCURVE",
"153 242 CURVE SMOOTH",
"153 301 OFFCURVE",
"155 369 OFFCURVE",
"161 435 CURVE",
"196 434 OFFCURVE",
"233 433 OFFCURVE",
"268 433 CURVE SMOOTH",
"322 433 OFFCURVE",
"375 436 OFFCURVE",
"431 442 CURVE",
"425 395 OFFCURVE",
"424 350 OFFCURVE",
"424 317 CURVE SMOOTH",
"424 274 OFFCURVE",
"427 238 OFFCURVE",
"433 205 CURVE",
"454 205 OFFCURVE",
"474 214 OFFCURVE",
"493 231 CURVE"
);
}
);
width = 780;
}
);
unicode = 016D;
},
{
glyphname = ucircumflex;
lastChange = "2015-10-17 22:56:41 +0000";
layers = (
{
layerId = "7A0FC40B-77F8-4D14-AD08-D047673E78CB";
name = Regular;
paths = (
{
closed = 1;
nodes = (
"311 575 OFFCURVE",
"384 596 OFFCURVE",
"453 619 CURVE",
"533 605 OFFCURVE",
"599 581 OFFCURVE",
"659 556 CURVE",
"645 520 OFFCURVE",
"634 490 OFFCURVE",
"631 450 CURVE",
"579 463 OFFCURVE",
"511 473 OFFCURVE",
"454 480 CURVE",
"395 471 OFFCURVE",
"325 459 OFFCURVE",
"272 442 CURVE",
"271 462 OFFCURVE",
"267 481 OFFCURVE",
"263 497 CURVE",
"258 513 OFFCURVE",
"253 530 OFFCURVE",
"248 548 CURVE"
);
},
{
closed = 1;
nodes = (
"482 444 LINE",
"576 444 OFFCURVE",
"665 444 OFFCURVE",
"751 454 CURVE",
"751 414 OFFCURVE",
"751 376 OFFCURVE",
"751 338 CURVE SMOOTH",
"751 262 OFFCURVE",
"752 189 OFFCURVE",
"755 114 CURVE SMOOTH",
"756 76 OFFCURVE",
"758 38 OFFCURVE",
"760 -1 CURVE",
"462 -12 LINE",
"467 38 LINE",
"408 -2 OFFCURVE",
"361 -12 OFFCURVE",
"315 -12 CURVE SMOOTH",
"258 -12 OFFCURVE",
"222 2 OFFCURVE",
"185 26 CURVE",
"159 90 OFFCURVE",
"153 152 OFFCURVE",
"153 242 CURVE SMOOTH",
"153 301 OFFCURVE",
"155 369 OFFCURVE",
"161 435 CURVE",
"196 434 OFFCURVE",
"233 433 OFFCURVE",
"268 433 CURVE SMOOTH",
"322 433 OFFCURVE",
"375 436 OFFCURVE",
"431 442 CURVE",
"425 395 OFFCURVE",
"424 350 OFFCURVE",
"424 317 CURVE SMOOTH",
"424 274 OFFCURVE",
"427 238 OFFCURVE",
"433 205 CURVE",
"454 205 OFFCURVE",
"474 214 OFFCURVE",
"493 231 CURVE"
);
}
);
width = 780;
}
);
unicode = 00FB;
},
{
glyphname = udieresis;
lastChange = "2015-10-17 22:56:41 +0000";
layers = (
{
layerId = "7A0FC40B-77F8-4D14-AD08-D047673E78CB";
name = Regular;
paths = (
{
closed = 1;
nodes = (
"472 591 LINE",
"531 594 OFFCURVE",
"588 595 OFFCURVE",
"638 598 CURVE",
"634 548 OFFCURVE",
"630 509 OFFCURVE",
"628 467 CURVE",
"603 468 OFFCURVE",
"579 470 OFFCURVE",
"555 471 CURVE SMOOTH",
"531 471 OFFCURVE",
"506 472 OFFCURVE",
"481 473 CURVE"
);
},
{
closed = 1;
nodes = (
"439 473 LINE",
"283 473 LINE",
"283 510 OFFCURVE",
"278 548 OFFCURVE",
"271 586 CURVE",
"320 587 OFFCURVE",
"374 589 OFFCURVE",
"430 591 CURVE"
);
},
{
closed = 1;
nodes = (
"482 444 LINE",
"576 444 OFFCURVE",
"665 444 OFFCURVE",
"751 454 CURVE",
"751 414 OFFCURVE",
"751 376 OFFCURVE",
"751 338 CURVE SMOOTH",
"751 262 OFFCURVE",
"752 189 OFFCURVE",
"755 114 CURVE SMOOTH",
"756 76 OFFCURVE",
"758 38 OFFCURVE",
"760 -1 CURVE",
"462 -12 LINE",
"467 38 LINE",
"408 -2 OFFCURVE",
"361 -12 OFFCURVE",
"315 -12 CURVE SMOOTH",
"258 -12 OFFCURVE",
"222 2 OFFCURVE",
"185 26 CURVE",
"159 90 OFFCURVE",
"153 152 OFFCURVE",
"153 242 CURVE SMOOTH",
"153 301 OFFCURVE",
"155 369 OFFCURVE",
"161 435 CURVE",
"196 434 OFFCURVE",
"233 433 OFFCURVE",
"268 433 CURVE SMOOTH",
"322 433 OFFCURVE",
"375 436 OFFCURVE",
"431 442 CURVE",
"425 395 OFFCURVE",
"424 350 OFFCURVE",
"424 317 CURVE SMOOTH",
"424 274 OFFCURVE",
"427 238 OFFCURVE",
"433 205 CURVE",
"454 205 OFFCURVE",
"474 214 OFFCURVE",
"493 231 CURVE"
);
}
);
width = 780;
}
);
unicode = 00FC;
},
{
glyphname = umacron;
lastChange = "2015-10-17 22:56:41 +0000";
layers = (
{
layerId = "7A0FC40B-77F8-4D14-AD08-D047673E78CB";
name = Regular;
paths = (
{
closed = 1;
nodes = (
"328 587 OFFCURVE",
"394 589 OFFCURVE",
"458 591 CURVE SMOOTH",
"521 594 OFFCURVE",
"585 595 OFFCURVE",
"638 598 CURVE",
"634 548 OFFCURVE",
"630 509 OFFCURVE",
"628 467 CURVE",
"515 473 OFFCURVE",
"399 474 OFFCURVE",
"283 475 CURVE",
"282 512 OFFCURVE",
"277 548 OFFCURVE",
"271 586 CURVE"
);
},
{
closed = 1;
nodes = (
"482 444 LINE",
"576 444 OFFCURVE",
"665 444 OFFCURVE",
"751 454 CURVE",
"751 414 OFFCURVE",
"751 376 OFFCURVE",
"751 338 CURVE SMOOTH",
"751 262 OFFCURVE",
"752 189 OFFCURVE",
"755 114 CURVE SMOOTH",
"756 76 OFFCURVE",
"758 38 OFFCURVE",
"760 -1 CURVE",
"462 -12 LINE",
"467 38 LINE",
"408 -2 OFFCURVE",
"361 -12 OFFCURVE",
"315 -12 CURVE SMOOTH",
"258 -12 OFFCURVE",
"222 2 OFFCURVE",
"185 26 CURVE",
"159 90 OFFCURVE",
"153 152 OFFCURVE",
"153 242 CURVE SMOOTH",
"153 301 OFFCURVE",
"155 369 OFFCURVE",
"161 435 CURVE",
"196 434 OFFCURVE",
"233 433 OFFCURVE",
"268 433 CURVE SMOOTH",
"322 433 OFFCURVE",
"375 436 OFFCURVE",
"431 442 CURVE",
"425 395 OFFCURVE",
"424 350 OFFCURVE",
"424 317 CURVE SMOOTH",
"424 274 OFFCURVE",
"427 238 OFFCURVE",
"433 205 CURVE",
"454 205 OFFCURVE",
"474 214 OFFCURVE",
"493 231 CURVE"
);
}
);
width = 780;
}
);
unicode = 016B;
},
{
glyphname = Eacute;
lastChange = "2015-10-17 22:56:41 +0000";
layers = (
{
layerId = "7A0FC40B-77F8-4D14-AD08-D047673E78CB";
name = Regular;
paths = (
{
closed = 1;
nodes = (
"693 130 LINE",
"681 -1 LINE",
"497 -4 OFFCURVE",
"317 -6 OFFCURVE",
"129 -12 CURVE",
"135 148 OFFCURVE",
"138 295 OFFCURVE",
"138 452 CURVE",
"324 452 OFFCURVE",
"503 457 OFFCURVE",
"682 462 CURVE",
"672 328 LINE",
"591 330 OFFCURVE",
"510 332 OFFCURVE",
"419 332 CURVE",
"419 281 LINE",
"491 282 OFFCURVE",
"562 284 OFFCURVE",
"637 286 CURVE",
"623 181 LINE",
"410 172 LINE",
"419 121 LINE"
);
},
{
closed = 1;
nodes = (
"293 587 OFFCURVE",
"359 595 OFFCURVE",
"423 605 CURVE SMOOTH",
"486 614 OFFCURVE",
"550 625 OFFCURVE",
"603 638 CURVE",
"606 585 OFFCURVE",
"615 545 OFFCURVE",
"626 500 CURVE",
"510 495 OFFCURVE",
"385 489 OFFCURVE",
"265 470 CURVE",
"262 507 OFFCURVE",
"252 543 OFFCURVE",
"236 581 CURVE"
);
}
);
width = 708;
}
);
unicode = 00C9;
},
{
glyphname = tilde;
lastChange = "2015-10-17 22:56:41 +0000";
layers = (
{
layerId = "7A0FC40B-77F8-4D14-AD08-D047673E78CB";
name = Regular;
paths = (
{
closed = 1;
nodes = (
"119 698 OFFCURVE",
"151 707 OFFCURVE",
"186 707 CURVE SMOOTH",
"214 707 OFFCURVE",
"238 699 OFFCURVE",
"262 691 CURVE SMOOTH",
"286 683 OFFCURVE",
"310 674 OFFCURVE",
"339 674 CURVE SMOOTH",
"378 674 OFFCURVE",
"413 693 OFFCURVE",
"436 716 CURVE",
"439 665 OFFCURVE",
"446 627 OFFCURVE",
"455 585 CURVE",
"418 556 OFFCURVE",
"379 547 OFFCURVE",
"339 547 CURVE SMOOTH",
"310 547 OFFCURVE",
"287 558 OFFCURVE",
"264 568 CURVE SMOOTH",
"240 578 OFFCURVE",
"216 588 OFFCURVE",
"186 588 CURVE SMOOTH",
"151 588 OFFCURVE",
"120 577 OFFCURVE",
"98 564 CURVE",
"95 604 OFFCURVE",
"93 634 OFFCURVE",
"87 669 CURVE"
);
}
);
width = 457;
}
);
unicode = 02DC;
},
{
glyphname = ring;
lastChange = "2015-10-17 22:56:41 +0000";
layers = (
{
layerId = "7A0FC40B-77F8-4D14-AD08-D047673E78CB";
name = Regular;
paths = (
{
closed = 1;
nodes = (
"146 701 OFFCURVE",
"189 711 OFFCURVE",
"232 711 CURVE SMOOTH",
"268 711 OFFCURVE",
"301 705 OFFCURVE",
"337 693 CURVE",
"338 683 OFFCURVE",
"339 673 OFFCURVE",
"339 663 CURVE SMOOTH",
"339 628 OFFCURVE",
"328 596 OFFCURVE",
"299 571 CURVE",
"267 561 OFFCURVE",
"236 555 OFFCURVE",
"205 555 CURVE SMOOTH",
"174 555 OFFCURVE",
"143 562 OFFCURVE",
"114 574 CURVE",
"101 595 OFFCURVE",
"94 615 OFFCURVE",
"94 635 CURVE SMOOTH",
"94 650 OFFCURVE",
"98 666 OFFCURVE",
"104 682 CURVE"
);
},
{
closed = 1;
nodes = (
"273 621 OFFCURVE",
"275 625 OFFCURVE",
"275 633 CURVE SMOOTH",
"275 638 OFFCURVE",
"272 643 OFFCURVE",
"266 648 CURVE",
"259 652 OFFCURVE",
"244 656 OFFCURVE",
"228 656 CURVE SMOOTH",
"213 656 OFFCURVE",
"198 653 OFFCURVE",
"184 642 CURVE",
"177 633 OFFCURVE",
"177 622 OFFCURVE",
"177 610 CURVE",
"191 602 OFFCURVE",
"204 602 OFFCURVE",
"218 602 CURVE SMOOTH",
"234 602 OFFCURVE",
"251 606 OFFCURVE",
"270 614 CURVE"
);
}
);
width = 391;
}
);
unicode = 02DA;
},
{
glyphname = aring;
lastChange = "2015-10-17 22:56:41 +0000";
layers = (
{
layerId = "7A0FC40B-77F8-4D14-AD08-D047673E78CB";
name = Regular;
paths = (
{
closed = 1;
nodes = (
"389 602 OFFCURVE",
"432 612 OFFCURVE",
"475 612 CURVE SMOOTH",
"511 612 OFFCURVE",
"544 606 OFFCURVE",
"580 594 CURVE",
"581 584 OFFCURVE",
"582 574 OFFCURVE",
"582 564 CURVE SMOOTH",
"582 528 OFFCURVE",
"571 497 OFFCURVE",
"542 471 CURVE",
"510 462 OFFCURVE",
"479 456 OFFCURVE",
"448 456 CURVE SMOOTH",
"417 456 OFFCURVE",
"386 462 OFFCURVE",
"357 475 CURVE",
"344 495 OFFCURVE",
"337 515 OFFCURVE",
"337 536 CURVE SMOOTH",
"337 551 OFFCURVE",
"341 566 OFFCURVE",
"347 583 CURVE"
);
},
{
closed = 1;
nodes = (
"516 522 OFFCURVE",
"518 526 OFFCURVE",
"518 533 CURVE SMOOTH",
"518 538 OFFCURVE",
"515 543 OFFCURVE",
"509 549 CURVE",
"502 552 OFFCURVE",
"487 557 OFFCURVE",
"471 557 CURVE SMOOTH",
"456 557 OFFCURVE",
"441 553 OFFCURVE",
"427 543 CURVE",
"420 533 OFFCURVE",
"420 523 OFFCURVE",
"420 510 CURVE",
"434 503 OFFCURVE",
"447 503 OFFCURVE",
"461 503 CURVE SMOOTH",
"477 503 OFFCURVE",
"494 507 OFFCURVE",
"513 514 CURVE"
);
},
{
closed = 1;
nodes = (
"224 271 OFFCURVE",
"274 276 OFFCURVE",
"346 276 CURVE SMOOTH",
"394 276 OFFCURVE",
"442 271 OFFCURVE",
"478 265 CURVE",
"478 277 OFFCURVE",
"474 287 OFFCURVE",
"466 295 CURVE",
"437 301 OFFCURVE",
"401 304 OFFCURVE",
"375 304 CURVE SMOOTH",
"335 304 OFFCURVE",
"300 301 OFFCURVE",
"275 299 CURVE SMOOTH",
"261 297 OFFCURVE",
"247 295 OFFCURVE",
"235 294 CURVE",
"229 343 OFFCURVE",
"212 381 OFFCURVE",
"192 418 CURVE",
"228 425 OFFCURVE",
"270 432 OFFCURVE",
"325 437 CURVE SMOOTH",
"352 439 OFFCURVE",
"382 440 OFFCURVE",
"416 440 CURVE SMOOTH",
"519 440 OFFCURVE",
"626 432 OFFCURVE",
"711 395 CURVE",
"734 375 OFFCURVE",
"747 339 OFFCURVE",
"756 298 CURVE SMOOTH",
"766 257 OFFCURVE",
"768 209 OFFCURVE",
"768 162 CURVE SMOOTH",
"768 93 OFFCURVE",
"761 28 OFFCURVE",
"757 0 CURVE",
"661 -1 OFFCURVE",
"566 -6 OFFCURVE",
"476 -14 CURVE",
"476 -7 LINE SMOOTH",
"476 -5 OFFCURVE",
"476 -2 OFFCURVE",
"476 1 CURVE SMOOTH",
"476 4 OFFCURVE",
"476 7 OFFCURVE",
"477 11 CURVE",
"451 -1 OFFCURVE",
"402 -17 OFFCURVE",
"323 -17 CURVE SMOOTH",
"270 -17 OFFCURVE",
"232 -10 OFFCURVE",
"186 6 CURVE",
"154 46 OFFCURVE",
"146 100 OFFCURVE",
"146 149 CURVE SMOOTH",
"146 198 OFFCURVE",
"156 226 OFFCURVE",
"169 253 CURVE"
);
},
{
closed = 1;
nodes = (
"488 172 OFFCURVE",
"476 174 OFFCURVE",
"460 174 CURVE SMOOTH",
"449 174 OFFCURVE",
"432 172 OFFCURVE",
"420 169 CURVE",
"417 163 OFFCURVE",
"415 156 OFFCURVE",
"415 148 CURVE SMOOTH",
"415 138 OFFCURVE",
"416 131 OFFCURVE",
"418 125 CURVE",
"428 121 OFFCURVE",
"441 119 OFFCURVE",
"453 119 CURVE SMOOTH",
"470 119 OFFCURVE",
"481 121 OFFCURVE",
"494 124 CURVE",
"501 140 OFFCURVE",
"502 152 OFFCURVE",
"504 168 CURVE"
);
}
);
width = 790;
}
);
unicode = 00E5;
},
{
glyphname = uring;
lastChange = "2015-10-17 22:56:41 +0000";
layers = (
{
layerId = "7A0FC40B-77F8-4D14-AD08-D047673E78CB";
name = Regular;
paths = (
{
closed = 1;
nodes = (
"384 603 OFFCURVE",
"427 613 OFFCURVE",
"470 613 CURVE SMOOTH",
"505 613 OFFCURVE",
"539 607 OFFCURVE",
"574 595 CURVE",
"576 585 OFFCURVE",
"577 575 OFFCURVE",
"577 565 CURVE SMOOTH",
"577 529 OFFCURVE",
"566 498 OFFCURVE",
"537 472 CURVE",
"505 462 OFFCURVE",
"473 457 OFFCURVE",
"443 457 CURVE SMOOTH",
"411 457 OFFCURVE",
"381 463 OFFCURVE",
"352 476 CURVE",
"339 496 OFFCURVE",
"332 516 OFFCURVE",
"332 537 CURVE SMOOTH",
"332 552 OFFCURVE",
"335 567 OFFCURVE",
"342 584 CURVE"
);
},
{
closed = 1;
nodes = (
"510 523 OFFCURVE",
"512 527 OFFCURVE",
"512 534 CURVE SMOOTH",
"512 539 OFFCURVE",
"510 544 OFFCURVE",
"504 550 CURVE",
"496 553 OFFCURVE",
"481 557 OFFCURVE",
"466 557 CURVE SMOOTH",
"450 557 OFFCURVE",
"435 554 OFFCURVE",
"421 543 CURVE",
"415 534 OFFCURVE",
"415 524 OFFCURVE",
"415 511 CURVE",
"429 504 OFFCURVE",
"442 504 OFFCURVE",
"456 504 CURVE SMOOTH",
"472 504 OFFCURVE",
"489 508 OFFCURVE",
"507 515 CURVE"
);
},
{
closed = 1;
nodes = (
"482 444 LINE",
"576 444 OFFCURVE",
"665 444 OFFCURVE",
"751 454 CURVE",
"751 414 OFFCURVE",
"751 376 OFFCURVE",
"751 338 CURVE SMOOTH",
"751 262 OFFCURVE",
"752 189 OFFCURVE",
"755 114 CURVE SMOOTH",
"756 76 OFFCURVE",
"758 38 OFFCURVE",
"760 -1 CURVE",
"462 -12 LINE",
"467 38 LINE",
"408 -2 OFFCURVE",
"361 -12 OFFCURVE",
"315 -12 CURVE SMOOTH",
"258 -12 OFFCURVE",
"222 2 OFFCURVE",
"185 26 CURVE",
"159 90 OFFCURVE",
"153 152 OFFCURVE",
"153 242 CURVE SMOOTH",
"153 301 OFFCURVE",
"155 369 OFFCURVE",
"161 435 CURVE",
"196 434 OFFCURVE",
"233 433 OFFCURVE",
"268 433 CURVE SMOOTH",
"322 433 OFFCURVE",
"375 436 OFFCURVE",
"431 442 CURVE",
"425 395 OFFCURVE",
"424 350 OFFCURVE",
"424 317 CURVE SMOOTH",
"424 274 OFFCURVE",
"427 238 OFFCURVE",
"433 205 CURVE",
"454 205 OFFCURVE",
"474 214 OFFCURVE",
"493 231 CURVE"
);
}
);
width = 780;
}
);
unicode = 016F;
},
{
glyphname = atilde;
lastChange = "2015-10-17 22:56:41 +0000";
layers = (
{
layerId = "7A0FC40B-77F8-4D14-AD08-D047673E78CB";
name = Regular;
paths = (
{
closed = 1;
nodes = (
"308 600 OFFCURVE",
"339 609 OFFCURVE",
"375 609 CURVE SMOOTH",
"402 609 OFFCURVE",
"426 601 OFFCURVE",
"450 593 CURVE SMOOTH",
"474 585 OFFCURVE",
"499 576 OFFCURVE",
"528 576 CURVE SMOOTH",
"566 576 OFFCURVE",
"601 595 OFFCURVE",
"624 618 CURVE",
"628 567 OFFCURVE",
"634 529 OFFCURVE",
"643 487 CURVE",
"606 458 OFFCURVE",
"567 449 OFFCURVE",
"528 449 CURVE SMOOTH",
"499 449 OFFCURVE",
"475 460 OFFCURVE",
"452 470 CURVE SMOOTH",
"428 480 OFFCURVE",
"404 490 OFFCURVE",
"375 490 CURVE SMOOTH",
"339 490 OFFCURVE",
"308 479 OFFCURVE",
"286 466 CURVE",
"284 506 OFFCURVE",
"281 536 OFFCURVE",
"275 571 CURVE"
);
},
{
closed = 1;
nodes = (
"224 271 OFFCURVE",
"274 276 OFFCURVE",
"346 276 CURVE SMOOTH",
"394 276 OFFCURVE",
"442 271 OFFCURVE",
"478 265 CURVE",
"478 277 OFFCURVE",
"474 287 OFFCURVE",
"466 295 CURVE",
"437 301 OFFCURVE",
"401 304 OFFCURVE",
"375 304 CURVE SMOOTH",
"335 304 OFFCURVE",
"300 301 OFFCURVE",
"275 299 CURVE SMOOTH",
"261 297 OFFCURVE",
"247 295 OFFCURVE",
"235 294 CURVE",
"229 343 OFFCURVE",
"212 381 OFFCURVE",
"192 418 CURVE",
"228 425 OFFCURVE",
"270 432 OFFCURVE",
"325 437 CURVE SMOOTH",
"352 439 OFFCURVE",
"382 440 OFFCURVE",
"416 440 CURVE SMOOTH",
"519 440 OFFCURVE",
"626 432 OFFCURVE",
"711 395 CURVE",
"734 375 OFFCURVE",
"747 339 OFFCURVE",
"756 298 CURVE SMOOTH",
"766 257 OFFCURVE",
"768 209 OFFCURVE",
"768 162 CURVE SMOOTH",
"768 93 OFFCURVE",
"761 28 OFFCURVE",
"757 0 CURVE",
"661 -1 OFFCURVE",
"566 -6 OFFCURVE",
"476 -14 CURVE",
"476 -7 LINE SMOOTH",
"476 -5 OFFCURVE",
"476 -2 OFFCURVE",
"476 1 CURVE SMOOTH",
"476 4 OFFCURVE",
"476 7 OFFCURVE",
"477 11 CURVE",
"451 -1 OFFCURVE",
"402 -17 OFFCURVE",
"323 -17 CURVE SMOOTH",
"270 -17 OFFCURVE",
"232 -10 OFFCURVE",
"186 6 CURVE",
"154 46 OFFCURVE",
"146 100 OFFCURVE",
"146 149 CURVE SMOOTH",
"146 198 OFFCURVE",
"156 226 OFFCURVE",
"169 253 CURVE"
);
},
{
closed = 1;
nodes = (
"488 172 OFFCURVE",
"476 174 OFFCURVE",
"460 174 CURVE SMOOTH",
"449 174 OFFCURVE",
"432 172 OFFCURVE",
"420 169 CURVE",
"417 163 OFFCURVE",
"415 156 OFFCURVE",
"415 148 CURVE SMOOTH",
"415 138 OFFCURVE",
"416 131 OFFCURVE",
"418 125 CURVE",
"428 121 OFFCURVE",
"441 119 OFFCURVE",
"453 119 CURVE SMOOTH",
"470 119 OFFCURVE",
"481 121 OFFCURVE",
"494 124 CURVE",
"501 140 OFFCURVE",
"502 152 OFFCURVE",
"504 168 CURVE"
);
}
);
width = 790;
}
);
unicode = 00E3;
},
{
glyphname = itilde;
lastChange = "2015-10-17 22:56:41 +0000";
layers = (
{
layerId = "7A0FC40B-77F8-4D14-AD08-D047673E78CB";
name = Regular;
paths = (
{
closed = 1;
nodes = (
"368 -2 LINE",
"279 -3 OFFCURVE",
"185 -5 OFFCURVE",
"103 -12 CURVE",
"103 133 OFFCURVE",
"103 276 OFFCURVE",
"98 419 CURVE",
"108 419 OFFCURVE",
"118 419 OFFCURVE",
"129 419 CURVE SMOOTH",
"140 419 OFFCURVE",
"150 419 OFFCURVE",
"161 419 CURVE SMOOTH",
"230 419 OFFCURVE",
"297 419 OFFCURVE",
"360 428 CURVE"
);
},
{
closed = 1;
nodes = (
"88 601 OFFCURVE",
"120 610 OFFCURVE",
"155 610 CURVE SMOOTH",
"183 610 OFFCURVE",
"207 602 OFFCURVE",
"231 594 CURVE SMOOTH",
"255 586 OFFCURVE",
"279 577 OFFCURVE",
"308 577 CURVE SMOOTH",
"347 577 OFFCURVE",
"382 596 OFFCURVE",
"405 619 CURVE",
"408 568 OFFCURVE",
"415 530 OFFCURVE",
"424 488 CURVE",
"387 459 OFFCURVE",
"348 450 OFFCURVE",
"308 450 CURVE SMOOTH",
"279 450 OFFCURVE",
"256 461 OFFCURVE",
"233 471 CURVE SMOOTH",
"209 481 OFFCURVE",
"185 491 OFFCURVE",
"155 491 CURVE SMOOTH",
"120 491 OFFCURVE",
"89 480 OFFCURVE",
"67 467 CURVE",
"64 507 OFFCURVE",
"62 537 OFFCURVE",
"56 572 CURVE"
);
}
);
width = 401;
}
);
unicode = 0129;
},
{
glyphname = otilde;
lastChange = "2015-10-17 22:56:41 +0000";
layers = (
{
layerId = "7A0FC40B-77F8-4D14-AD08-D047673E78CB";
name = Regular;
paths = (
{
closed = 1;
nodes = (
"318 601 OFFCURVE",
"350 610 OFFCURVE",
"385 610 CURVE SMOOTH",
"412 610 OFFCURVE",
"436 602 OFFCURVE",
"460 594 CURVE SMOOTH",
"484 586 OFFCURVE",
"509 577 OFFCURVE",
"538 577 CURVE SMOOTH",
"577 577 OFFCURVE",
"612 596 OFFCURVE",
"635 619 CURVE",
"638 568 OFFCURVE",
"645 530 OFFCURVE",
"654 488 CURVE",
"617 459 OFFCURVE",
"578 450 OFFCURVE",
"538 450 CURVE SMOOTH",
"509 450 OFFCURVE",
"486 461 OFFCURVE",
"463 471 CURVE SMOOTH",
"439 481 OFFCURVE",
"415 491 OFFCURVE",
"385 491 CURVE SMOOTH",
"350 491 OFFCURVE",
"319 480 OFFCURVE",
"297 467 CURVE",
"294 507 OFFCURVE",
"292 537 OFFCURVE",
"286 572 CURVE"
);
},
{
closed = 1;
nodes = (
"360 -12 OFFCURVE",
"276 0 OFFCURVE",
"217 25 CURVE",
"194 48 OFFCURVE",
"179 75 OFFCURVE",
"167 106 CURVE SMOOTH",
"155 138 OFFCURVE",
"150 175 OFFCURVE",
"150 222 CURVE SMOOTH",
"150 300 OFFCURVE",
"166 352 OFFCURVE",
"195 397 CURVE",
"258 427 OFFCURVE",
"351 442 OFFCURVE",
"475 442 CURVE SMOOTH",
"600 442 OFFCURVE",
"695 425 OFFCURVE",
"758 390 CURVE",
"769 367 OFFCURVE",
"777 345 OFFCURVE",
"783 319 CURVE SMOOTH",
"789 294 OFFCURVE",
"791 265 OFFCURVE",
"791 228 CURVE SMOOTH",
"791 189 OFFCURVE",
"787 157 OFFCURVE",
"780 129 CURVE SMOOTH",
"773 101 OFFCURVE",
"762 76 OFFCURVE",
"749 50 CURVE",
"689 9 OFFCURVE",
"594 -12 OFFCURVE",
"466 -12 CURVE SMOOTH"
);
},
{
closed = 1;
nodes = (
"427 260 OFFCURVE",
"423 235 OFFCURVE",
"423 208 CURVE SMOOTH",
"423 167 OFFCURVE",
"423 142 OFFCURVE",
"432 126 CURVE",
"439 119 OFFCURVE",
"451 115 OFFCURVE",
"467 115 CURVE SMOOTH",
"483 115 OFFCURVE",
"494 119 OFFCURVE",
"502 126 CURVE",
"514 143 OFFCURVE",
"517 176 OFFCURVE",
"517 218 CURVE SMOOTH",
"517 254 OFFCURVE",
"512 279 OFFCURVE",
"504 292 CURVE",
"497 299 OFFCURVE",
"489 299 OFFCURVE",
"476 299 CURVE SMOOTH",
"457 299 OFFCURVE",
"446 295 OFFCURVE",
"436 286 CURVE"
);
}
);
width = 806;
}
);
unicode = 00F5;
},
{
glyphname = utilde;
lastChange = "2015-10-17 22:56:41 +0000";
layers = (
{
layerId = "7A0FC40B-77F8-4D14-AD08-D047673E78CB";
name = Regular;
paths = (
{
closed = 1;
nodes = (
"302 601 OFFCURVE",
"334 610 OFFCURVE",
"369 610 CURVE SMOOTH",
"396 610 OFFCURVE",
"420 602 OFFCURVE",
"444 594 CURVE SMOOTH",
"468 586 OFFCURVE",
"493 577 OFFCURVE",
"522 577 CURVE SMOOTH",
"561 577 OFFCURVE",
"596 596 OFFCURVE",
"619 619 CURVE",
"622 568 OFFCURVE",
"629 530 OFFCURVE",
"638 488 CURVE",
"600 459 OFFCURVE",
"562 450 OFFCURVE",
"522 450 CURVE SMOOTH",
"493 450 OFFCURVE",
"470 461 OFFCURVE",
"447 471 CURVE SMOOTH",
"423 481 OFFCURVE",
"399 491 OFFCURVE",
"369 491 CURVE SMOOTH",
"334 491 OFFCURVE",
"303 480 OFFCURVE",
"281 467 CURVE",
"278 507 OFFCURVE",
"276 537 OFFCURVE",
"270 572 CURVE"
);
},
{
closed = 1;
nodes = (
"482 444 LINE",
"576 444 OFFCURVE",
"665 444 OFFCURVE",
"751 454 CURVE",
"751 414 OFFCURVE",
"751 376 OFFCURVE",
"751 338 CURVE SMOOTH",
"751 262 OFFCURVE",
"752 189 OFFCURVE",
"755 114 CURVE SMOOTH",
"756 76 OFFCURVE",
"758 38 OFFCURVE",
"760 -1 CURVE",
"462 -12 LINE",
"467 38 LINE",
"408 -2 OFFCURVE",
"361 -12 OFFCURVE",
"315 -12 CURVE SMOOTH",
"258 -12 OFFCURVE",
"222 2 OFFCURVE",
"185 26 CURVE",
"159 90 OFFCURVE",
"153 152 OFFCURVE",
"153 242 CURVE SMOOTH",
"153 301 OFFCURVE",
"155 369 OFFCURVE",
"161 435 CURVE",
"196 434 OFFCURVE",
"233 433 OFFCURVE",
"268 433 CURVE SMOOTH",
"322 433 OFFCURVE",
"375 436 OFFCURVE",
"431 442 CURVE",
"425 395 OFFCURVE",
"424 350 OFFCURVE",
"424 317 CURVE SMOOTH",
"424 274 OFFCURVE",
"427 238 OFFCURVE",
"433 205 CURVE",
"454 205 OFFCURVE",
"474 214 OFFCURVE",
"493 231 CURVE"
);
}
);
width = 780;
}
);
unicode = 0169;
},
{
glyphname = cedilla;
lastChange = "2015-10-17 22:56:41 +0000";
layers = (
{
layerId = "7A0FC40B-77F8-4D14-AD08-D047673E78CB";
name = Regular;
paths = (
{
closed = 1;
nodes = (
"347 -124 OFFCURVE",
"343 -117 OFFCURVE",
"338 -109 CURVE",
"330 -107 OFFCURVE",
"315 -106 OFFCURVE",
"300 -106 CURVE SMOOTH",
"282 -106 OFFCURVE",
"263 -106 OFFCURVE",
"247 -109 CURVE",
"264 -17 LINE",
"427 -17 LINE",
"427 -67 LINE",
"459 -67 OFFCURVE",
"491 -66 OFFCURVE",
"524 -79 CURVE",
"525 -89 OFFCURVE",
"526 -99 OFFCURVE",
"526 -109 CURVE SMOOTH",
"526 -134 OFFCURVE",
"519 -159 OFFCURVE",
"503 -176 CURVE",
"438 -187 OFFCURVE",
"364 -192 OFFCURVE",
"301 -192 CURVE SMOOTH",
"264 -192 OFFCURVE",
"235 -189 OFFCURVE",
"206 -183 CURVE",
"214 -132 LINE",
"247 -136 OFFCURVE",
"268 -137 OFFCURVE",
"298 -137 CURVE SMOOTH",
"314 -137 OFFCURVE",
"332 -136 OFFCURVE",
"349 -133 CURVE"
);
}
);
width = 593;
}
);
unicode = 00B8;
},
{
glyphname = ccedilla;
lastChange = "2015-10-17 22:56:41 +0000";
layers = (
{
layerId = "7A0FC40B-77F8-4D14-AD08-D047673E78CB";
name = Regular;
paths = (
{
closed = 1;
nodes = (
"333 -124 OFFCURVE",
"329 -117 OFFCURVE",
"324 -109 CURVE",
"316 -107 OFFCURVE",
"301 -106 OFFCURVE",
"286 -106 CURVE SMOOTH",
"268 -106 OFFCURVE",
"249 -106 OFFCURVE",
"233 -109 CURVE",
"250 -17 LINE",
"413 -17 LINE",
"413 -67 LINE",
"445 -67 OFFCURVE",
"477 -66 OFFCURVE",
"509 -79 CURVE",
"511 -89 OFFCURVE",
"512 -99 OFFCURVE",
"512 -109 CURVE SMOOTH",
"512 -134 OFFCURVE",
"505 -159 OFFCURVE",
"489 -176 CURVE",
"424 -187 OFFCURVE",
"350 -192 OFFCURVE",
"287 -192 CURVE SMOOTH",
"250 -192 OFFCURVE",
"221 -189 OFFCURVE",
"192 -183 CURVE",
"200 -132 LINE",
"233 -136 OFFCURVE",
"254 -137 OFFCURVE",
"284 -137 CURVE SMOOTH",
"300 -137 OFFCURVE",
"318 -136 OFFCURVE",
"335 -133 CURVE"
);
},
{
closed = 1;
nodes = (
"244 403 OFFCURVE",
"322 414 OFFCURVE",
"412 414 CURVE SMOOTH",
"474 414 OFFCURVE",
"524 407 OFFCURVE",
"586 396 CURVE",
"571 349 OFFCURVE",
"564 296 OFFCURVE",
"564 257 CURVE",
"545 259 OFFCURVE",
"517 261 OFFCURVE",
"497 261 CURVE SMOOTH",
"467 261 OFFCURVE",
"443 258 OFFCURVE",
"408 248 CURVE",
"399 230 OFFCURVE",
"396 205 OFFCURVE",
"396 182 CURVE SMOOTH",
"396 155 OFFCURVE",
"405 134 OFFCURVE",
"417 113 CURVE",
"443 104 OFFCURVE",
"465 101 OFFCURVE",
"487 101 CURVE SMOOTH",
"517 101 OFFCURVE",
"545 103 OFFCURVE",
"566 109 CURVE",
"568 70 OFFCURVE",
"572 20 OFFCURVE",
"588 -21 CURVE",
"528 -35 OFFCURVE",
"472 -44 OFFCURVE",
"400 -44 CURVE SMOOTH",
"314 -44 OFFCURVE",
"228 -38 OFFCURVE",
"155 4 CURVE",
"128 50 OFFCURVE",
"114 120 OFFCURVE",
"114 186 CURVE SMOOTH",
"114 254 OFFCURVE",
"126 312 OFFCURVE",
"171 377 CURVE"
);
}
);
width = 593;
}
);
unicode = 00E7;
},
{
glyphname = fi;
lastChange = "2015-10-17 22:56:41 +0000";
layers = (
{
layerId = "7A0FC40B-77F8-4D14-AD08-D047673E78CB";
name = Regular;
paths = (
{
closed = 1;
nodes = (
"584 385 OFFCURVE",
"659 385 OFFCURVE",
"732 385 CURVE SMOOTH",
"801 385 OFFCURVE",
"868 389 OFFCURVE",
"931 394 CURVE",
"933 261 OFFCURVE",
"936 131 OFFCURVE",
"939 -2 CURVE",
"851 -3 OFFCURVE",
"756 -5 OFFCURVE",
"675 -12 CURVE",
"675 27 OFFCURVE",
"675 65 OFFCURVE",
"675 104 CURVE SMOOTH",
"675 142 OFFCURVE",
"675 180 OFFCURVE",
"674 219 CURVE",
"519 227 LINE",
"520 194 OFFCURVE",
"520 158 OFFCURVE",
"521 119 CURVE SMOOTH",
"521 80 OFFCURVE",
"524 40 OFFCURVE",
"530 0 CURVE",
"433 -1 OFFCURVE",
"339 -6 OFFCURVE",
"249 -13 CURVE",
"246 0 OFFCURVE",
"243 24 OFFCURVE",
"240 54 CURVE SMOOTH",
"237 83 OFFCURVE",
"234 116 OFFCURVE",
"234 148 CURVE SMOOTH",
"234 166 OFFCURVE",
"234 184 OFFCURVE",
"234 201 CURVE SMOOTH",
"234 218 OFFCURVE",
"235 236 OFFCURVE",
"236 253 CURVE",
"190 255 LINE",
"183 375 LINE",
"249 378 LINE",
"256 444 OFFCURVE",
"268 499 OFFCURVE",
"287 532 CURVE",
"372 569 OFFCURVE",
"476 586 OFFCURVE",
"582 586 CURVE SMOOTH",
"651 586 OFFCURVE",
"709 576 OFFCURVE",
"750 566 CURVE SMOOTH",
"774 561 OFFCURVE",
"795 554 OFFCURVE",
"814 547 CURVE",
"802 508 OFFCURVE",
"791 473 OFFCURVE",
"788 423 CURVE",
"767 426 OFFCURVE",
"743 428 OFFCURVE",
"713 429 CURVE SMOOTH",
"699 430 OFFCURVE",
"682 430 OFFCURVE",
"665 430 CURVE SMOOTH",
"622 430 OFFCURVE",
"568 427 OFFCURVE",
"524 417 CURVE",
"518 408 OFFCURVE",
"514 399 OFFCURVE",
"511 389 CURVE"
);
}
);
width = 1084;
}
);
unicode = FB01;
},
{
glyphname = ff;
lastChange = "2015-10-17 22:56:41 +0000";
layers = (
{
layerId = "7A0FC40B-77F8-4D14-AD08-D047673E78CB";
name = Regular;
paths = (
{
closed = 1;
nodes = (
"310 370 LINE",
"317 436 OFFCURVE",
"329 490 OFFCURVE",
"348 524 CURVE",
"433 561 OFFCURVE",
"537 578 OFFCURVE",
"643 578 CURVE SMOOTH",
"695 578 OFFCURVE",
"741 572 OFFCURVE",
"777 566 CURVE SMOOTH",
"813 559 OFFCURVE",
"841 551 OFFCURVE",
"858 545 CURVE",
"927 574 OFFCURVE",
"1012 586 OFFCURVE",
"1092 586 CURVE SMOOTH",
"1151 586 OFFCURVE",
"1200 576 OFFCURVE",
"1236 566 CURVE SMOOTH",
"1256 561 OFFCURVE",
"1274 554 OFFCURVE",
"1291 547 CURVE",
"1279 508 OFFCURVE",
"1269 473 OFFCURVE",
"1265 423 CURVE",
"1249 426 OFFCURVE",
"1231 428 OFFCURVE",
"1210 429 CURVE",
"1199 430 OFFCURVE",
"1187 430 OFFCURVE",
"1174 430 CURVE SMOOTH",
"1142 430 OFFCURVE",
"1101 427 OFFCURVE",
"1067 417 CURVE",
"1061 408 OFFCURVE",
"1057 399 OFFCURVE",
"1054 389 CURVE",
"1249 396 LINE",
"1249 219 LINE",
"1062 227 LINE",
"1063 194 OFFCURVE",
"1063 158 OFFCURVE",
"1064 119 CURVE SMOOTH",
"1064 80 OFFCURVE",
"1067 40 OFFCURVE",
"1073 0 CURVE",
"976 -1 OFFCURVE",
"882 -6 OFFCURVE",
"792 -13 CURVE",
"789 0 OFFCURVE",
"786 24 OFFCURVE",
"783 54 CURVE SMOOTH",
"779 83 OFFCURVE",
"777 116 OFFCURVE",
"777 148 CURVE SMOOTH",
"777 158 OFFCURVE",
"777 166 OFFCURVE",
"777 173 CURVE SMOOTH",
"777 179 OFFCURVE",
"777 185 OFFCURVE",
"777 190 CURVE SMOOTH",
"777 201 OFFCURVE",
"778 213 OFFCURVE",
"779 232 CURVE",
"580 240 LINE",
"581 205 OFFCURVE",
"581 167 OFFCURVE",
"582 126 CURVE SMOOTH",
"582 84 OFFCURVE",
"585 42 OFFCURVE",
"591 0 CURVE",
"494 -1 OFFCURVE",
"400 -6 OFFCURVE",
"310 -13 CURVE",
"308 0 OFFCURVE",
"304 24 OFFCURVE",
"301 54 CURVE SMOOTH",
"298 83 OFFCURVE",
"295 116 OFFCURVE",
"295 148 CURVE SMOOTH",
"295 166 OFFCURVE",
"295 184 OFFCURVE",
"295 201 CURVE SMOOTH",
"295 218 OFFCURVE",
"296 236 OFFCURVE",
"297 253 CURVE",
"251 255 LINE",
"244 367 LINE"
);
},
{
closed = 1;
nodes = (
"792 388 LINE",
"793 399 OFFCURVE",
"793 409 OFFCURVE",
"796 419 CURVE",
"776 421 OFFCURVE",
"753 422 OFFCURVE",
"726 422 CURVE SMOOTH",
"684 422 OFFCURVE",
"629 419 OFFCURVE",
"585 408 CURVE",
"579 399 OFFCURVE",
"575 390 OFFCURVE",
"572 380 CURVE"
);
}
);
width = 1366;
}
);
unicode = FB00;
},
{
glyphname = ffi;
lastChange = "2015-10-17 22:56:41 +0000";
layers = (
{
layerId = "7A0FC40B-77F8-4D14-AD08-D047673E78CB";
name = Regular;
paths = (
{
closed = 1;
nodes = (
"1167 385 OFFCURVE",
"1242 385 OFFCURVE",
"1315 385 CURVE SMOOTH",
"1384 385 OFFCURVE",
"1451 389 OFFCURVE",
"1514 394 CURVE",
"1516 261 OFFCURVE",
"1519 131 OFFCURVE",
"1522 -2 CURVE",
"1434 -3 OFFCURVE",
"1339 -5 OFFCURVE",
"1258 -12 CURVE",
"1258 27 OFFCURVE",
"1258 65 OFFCURVE",
"1258 104 CURVE SMOOTH",
"1258 142 OFFCURVE",
"1258 180 OFFCURVE",
"1257 219 CURVE",
"1102 227 LINE",
"1103 194 OFFCURVE",
"1103 158 OFFCURVE",
"1104 119 CURVE SMOOTH",
"1104 80 OFFCURVE",
"1107 40 OFFCURVE",
"1113 0 CURVE",
"1016 -1 OFFCURVE",
"922 -6 OFFCURVE",
"832 -13 CURVE",
"829 0 OFFCURVE",
"826 24 OFFCURVE",
"823 54 CURVE SMOOTH",
"820 83 OFFCURVE",
"817 116 OFFCURVE",
"817 148 CURVE SMOOTH",
"817 162 OFFCURVE",
"817 176 OFFCURVE",
"817 190 CURVE SMOOTH",
"817 204 OFFCURVE",
"817 218 OFFCURVE",
"818 232 CURVE",
"620 240 LINE",
"621 205 OFFCURVE",
"621 167 OFFCURVE",
"622 126 CURVE SMOOTH",
"622 84 OFFCURVE",
"625 42 OFFCURVE",
"631 0 CURVE",
"534 -1 OFFCURVE",
"440 -6 OFFCURVE",
"350 -13 CURVE",
"348 0 OFFCURVE",
"344 24 OFFCURVE",
"341 54 CURVE SMOOTH",
"338 83 OFFCURVE",
"335 116 OFFCURVE",
"335 148 CURVE SMOOTH",
"335 166 OFFCURVE",
"335 184 OFFCURVE",
"335 201 CURVE SMOOTH",
"335 218 OFFCURVE",
"336 236 OFFCURVE",
"337 253 CURVE",
"291 255 LINE",
"284 367 LINE",
"350 370 LINE",
"358 436 OFFCURVE",
"369 490 OFFCURVE",
"388 524 CURVE",
"473 561 OFFCURVE",
"577 578 OFFCURVE",
"683 578 CURVE SMOOTH",
"753 578 OFFCURVE",
"834 566 OFFCURVE",
"901 544 CURVE",
"980 573 OFFCURVE",
"1072 586 OFFCURVE",
"1165 586 CURVE SMOOTH",
"1234 586 OFFCURVE",
"1292 576 OFFCURVE",
"1333 566 CURVE SMOOTH",
"1357 561 OFFCURVE",
"1378 554 OFFCURVE",
"1397 547 CURVE",
"1385 508 OFFCURVE",
"1374 473 OFFCURVE",
"1371 423 CURVE",
"1350 426 OFFCURVE",
"1326 428 OFFCURVE",
"1296 429 CURVE SMOOTH",
"1282 430 OFFCURVE",
"1265 430 OFFCURVE",
"1248 430 CURVE SMOOTH",
"1205 430 OFFCURVE",
"1151 427 OFFCURVE",
"1107 417 CURVE",
"1101 408 OFFCURVE",
"1097 399 OFFCURVE",
"1094 389 CURVE"
);
},
{
closed = 1;
nodes = (
"832 384 LINE",
"833 389 OFFCURVE",
"833 395 OFFCURVE",
"834 402 CURVE SMOOTH",
"834 408 OFFCURVE",
"835 414 OFFCURVE",
"836 419 CURVE",
"816 421 OFFCURVE",
"793 422 OFFCURVE",
"766 422 CURVE SMOOTH",
"724 422 OFFCURVE",
"669 419 OFFCURVE",
"625 408 CURVE",
"620 399 OFFCURVE",
"615 390 OFFCURVE",
"612 380 CURVE"
);
}
);
width = 1767;
}
);
unicode = FB03;
},
{
glyphname = oe;
lastChange = "2015-10-17 22:56:41 +0000";
layers = (
{
layerId = "7A0FC40B-77F8-4D14-AD08-D047673E78CB";
name = Regular;
paths = (
{
closed = 1;
nodes = (
"858 -13 OFFCURVE",
"782 -10 OFFCURVE",
"710 4 CURVE",
"660 -6 OFFCURVE",
"604 -12 OFFCURVE",
"536 -12 CURVE SMOOTH",
"430 -12 OFFCURVE",
"346 -1 OFFCURVE",
"286 25 CURVE",
"264 51 OFFCURVE",
"248 78 OFFCURVE",
"236 113 CURVE SMOOTH",
"225 149 OFFCURVE",
"219 190 OFFCURVE",
"219 242 CURVE SMOOTH",
"219 329 OFFCURVE",
"237 385 OFFCURVE",
"273 434 CURVE",
"333 470 OFFCURVE",
"424 487 OFFCURVE",
"545 487 CURVE SMOOTH",
"608 487 OFFCURVE",
"663 482 OFFCURVE",
"711 472 CURVE",
"768 485 OFFCURVE",
"831 490 OFFCURVE",
"902 490 CURVE SMOOTH",
"952 490 OFFCURVE",
"995 487 OFFCURVE",
"1039 481 CURVE SMOOTH",
"1082 475 OFFCURVE",
"1125 466 OFFCURVE",
"1175 452 CURVE",
"1188 420 OFFCURVE",
"1191 384 OFFCURVE",
"1191 345 CURVE SMOOTH",
"1191 289 OFFCURVE",
"1183 231 OFFCURVE",
"1167 192 CURVE",
"1100 183 OFFCURVE",
"1018 181 OFFCURVE",
"938 181 CURVE SMOOTH",
"911 181 OFFCURVE",
"886 181 OFFCURVE",
"862 185 CURVE",
"865 169 OFFCURVE",
"870 156 OFFCURVE",
"874 144 CURVE",
"919 135 OFFCURVE",
"956 132 OFFCURVE",
"993 132 CURVE SMOOTH",
"1053 132 OFFCURVE",
"1103 137 OFFCURVE",
"1146 144 CURVE",
"1149 105 OFFCURVE",
"1155 55 OFFCURVE",
"1169 14 CURVE",
"1096 -2 OFFCURVE",
"1028 -13 OFFCURVE",
"940 -13 CURVE SMOOTH"
);
},
{
closed = 1;
nodes = (
"497 298 OFFCURVE",
"493 265 OFFCURVE",
"493 228 CURVE SMOOTH",
"493 178 OFFCURVE",
"493 145 OFFCURVE",
"502 126 CURVE",
"508 118 OFFCURVE",
"520 115 OFFCURVE",
"536 115 CURVE SMOOTH",
"562 115 OFFCURVE",
"578 136 OFFCURVE",
"583 173 CURVE SMOOTH",
"585 191 OFFCURVE",
"586 213 OFFCURVE",
"586 238 CURVE SMOOTH",
"586 286 OFFCURVE",
"582 319 OFFCURVE",
"574 337 CURVE",
"566 344 OFFCURVE",
"558 344 OFFCURVE",
"546 344 CURVE SMOOTH",
"528 344 OFFCURVE",
"519 341 OFFCURVE",
"509 332 CURVE"
);
},
{
closed = 1;
nodes = (
"908 350 OFFCURVE",
"884 347 OFFCURVE",
"848 337 CURVE",
"844 321 OFFCURVE",
"841 305 OFFCURVE",
"839 289 CURVE",
"872 289 OFFCURVE",
"907 289 OFFCURVE",
"946 293 CURVE",
"946 301 OFFCURVE",
"945 310 OFFCURVE",
"944 319 CURVE SMOOTH",
"943 328 OFFCURVE",
"941 339 OFFCURVE",
"938 350 CURVE"
);
}
);
width = 1206;
}
);
unicode = 0153;
},
{
glyphname = T_O;
lastChange = "2015-10-17 22:56:41 +0000";
layers = (
{
layerId = "7A0FC40B-77F8-4D14-AD08-D047673E78CB";
name = Regular;
paths = (
{
closed = 1;
nodes = (
"694 451 LINE",
"712 -1 LINE",
"405 -12 LINE",
"419 418 LINE",
"257 425 LINE",
"257 576 LINE",
"307 577 OFFCURVE",
"394 578 OFFCURVE",
"500 579 CURVE SMOOTH",
"552 579 OFFCURVE",
"608 579 OFFCURVE",
"669 580 CURVE SMOOTH",
"788 580 OFFCURVE",
"913 581 OFFCURVE",
"1033 582 CURVE SMOOTH",
"1093 583 OFFCURVE",
"1150 583 OFFCURVE",
"1202 584 CURVE SMOOTH",
"1307 584 OFFCURVE",
"1395 586 OFFCURVE",
"1445 586 CURVE",
"1451 470 LINE"
);
},
{
closed = 1;
nodes = (
"985 -12 OFFCURVE",
"896 0 OFFCURVE",
"833 25 CURVE",
"783 67 OFFCURVE",
"758 118 OFFCURVE",
"758 201 CURVE SMOOTH",
"758 244 OFFCURVE",
"764 277 OFFCURVE",
"774 307 CURVE SMOOTH",
"784 336 OFFCURVE",
"800 359 OFFCURVE",
"820 385 CURVE",
"887 420 OFFCURVE",
"988 438 OFFCURVE",
"1121 438 CURVE SMOOTH",
"1247 438 OFFCURVE",
"1345 420 OFFCURVE",
"1407 381 CURVE",
"1440 332 OFFCURVE",
"1457 281 OFFCURVE",
"1457 208 CURVE SMOOTH",
"1457 172 OFFCURVE",
"1453 144 OFFCURVE",
"1445 119 CURVE SMOOTH",
"1436 95 OFFCURVE",
"1423 73 OFFCURVE",
"1407 50 CURVE",
"1340 8 OFFCURVE",
"1240 -12 OFFCURVE",
"1095 -12 CURVE SMOOTH"
);
},
{
closed = 1;
nodes = (
"1132 95 OFFCURVE",
"1146 115 OFFCURVE",
"1152 148 CURVE SMOOTH",
"1158 181 OFFCURVE",
"1156 221 OFFCURVE",
"1153 242 CURVE",
"1152 251 OFFCURVE",
"1150 260 OFFCURVE",
"1149 267 CURVE SMOOTH",
"1147 275 OFFCURVE",
"1145 279 OFFCURVE",
"1144 279 CURVE",
"1137 289 OFFCURVE",
"1127 294 OFFCURVE",
"1113 294 CURVE SMOOTH",
"1096 294 OFFCURVE",
"1083 290 OFFCURVE",
"1074 281 CURVE",
"1062 256 OFFCURVE",
"1058 238 OFFCURVE",
"1058 195 CURVE SMOOTH",
"1058 155 OFFCURVE",
"1061 128 OFFCURVE",
"1067 114 CURVE",
"1073 102 OFFCURVE",
"1082 95 OFFCURVE",
"1096 95 CURVE SMOOTH"
);
}
);
width = 1338;
}
);
},
{
glyphname = ogonek;
lastChange = "2015-10-17 22:56:41 +0000";
layers = (
{
layerId = "7A0FC40B-77F8-4D14-AD08-D047673E78CB";
name = Regular;
paths = (
{
closed = 1;
nodes = (
"402 -135 OFFCURVE",
"419 -137 OFFCURVE",
"436 -137 CURVE SMOOTH",
"469 -137 OFFCURVE",
"492 -132 OFFCURVE",
"528 -116 CURVE",
"536 -166 LINE",
"486 -182 OFFCURVE",
"438 -192 OFFCURVE",
"375 -192 CURVE SMOOTH",
"329 -192 OFFCURVE",
"278 -187 OFFCURVE",
"231 -176 CURVE",
"215 -159 OFFCURVE",
"208 -134 OFFCURVE",
"208 -109 CURVE SMOOTH",
"208 -99 OFFCURVE",
"209 -89 OFFCURVE",
"210 -79 CURVE",
"253 -49 OFFCURVE",
"291 -30 OFFCURVE",
"357 -17 CURVE",
"519 -17 LINE",
"467 -40 OFFCURVE",
"429 -61 OFFCURVE",
"391 -93 CURVE",
"386 -104 OFFCURVE",
"385 -115 OFFCURVE",
"385 -129 CURVE"
);
}
);
width = 593;
}
);
unicode = 02DB;
},
{
glyphname = eogonek;
lastChange = "2015-10-17 22:56:41 +0000";
layers = (
{
layerId = "7A0FC40B-77F8-4D14-AD08-D047673E78CB";
name = Regular;
paths = (
{
closed = 1;
nodes = (
"475 150 OFFCURVE",
"450 150 OFFCURVE",
"426 153 CURVE",
"429 138 OFFCURVE",
"434 125 OFFCURVE",
"438 113 CURVE",
"483 104 OFFCURVE",
"520 101 OFFCURVE",
"557 101 CURVE SMOOTH",
"617 101 OFFCURVE",
"667 106 OFFCURVE",
"710 113 CURVE",
"713 74 OFFCURVE",
"719 24 OFFCURVE",
"733 -17 CURVE",
"660 -33 OFFCURVE",
"592 -44 OFFCURVE",
"504 -44 CURVE SMOOTH",
"384 -44 OFFCURVE",
"272 -38 OFFCURVE",
"176 4 CURVE",
"149 57 OFFCURVE",
"135 131 OFFCURVE",
"135 206 CURVE SMOOTH",
"135 282 OFFCURVE",
"147 347 OFFCURVE",
"192 419 CURVE",
"275 448 OFFCURVE",
"362 459 OFFCURVE",
"466 459 CURVE SMOOTH",
"516 459 OFFCURVE",
"559 456 OFFCURVE",
"603 450 CURVE SMOOTH",
"646 444 OFFCURVE",
"689 434 OFFCURVE",
"739 421 CURVE",
"752 389 OFFCURVE",
"755 353 OFFCURVE",
"755 314 CURVE SMOOTH",
"755 258 OFFCURVE",
"747 200 OFFCURVE",
"731 161 CURVE",
"664 152 OFFCURVE",
"582 150 OFFCURVE",
"502 150 CURVE SMOOTH"
);
},
{
closed = 1;
nodes = (
"472 319 OFFCURVE",
"448 316 OFFCURVE",
"412 306 CURVE",
"408 290 OFFCURVE",
"405 274 OFFCURVE",
"403 258 CURVE",
"436 258 OFFCURVE",
"471 258 OFFCURVE",
"510 262 CURVE",
"510 270 OFFCURVE",
"509 279 OFFCURVE",
"508 288 CURVE SMOOTH",
"507 297 OFFCURVE",
"505 308 OFFCURVE",
"502 319 CURVE"
);
},
{
closed = 1;
nodes = (
"588 -135 OFFCURVE",
"605 -137 OFFCURVE",
"622 -137 CURVE SMOOTH",
"655 -137 OFFCURVE",
"678 -132 OFFCURVE",
"714 -116 CURVE",
"722 -166 LINE",
"672 -182 OFFCURVE",
"624 -192 OFFCURVE",
"561 -192 CURVE SMOOTH",
"515 -192 OFFCURVE",
"464 -187 OFFCURVE",
"417 -176 CURVE",
"400 -159 OFFCURVE",
"394 -134 OFFCURVE",
"394 -109 CURVE SMOOTH",
"394 -99 OFFCURVE",
"395 -89 OFFCURVE",
"396 -79 CURVE",
"439 -49 OFFCURVE",
"476 -30 OFFCURVE",
"543 -17 CURVE",
"705 -17 LINE",
"653 -40 OFFCURVE",
"615 -61 OFFCURVE",
"577 -93 CURVE",
"572 -104 OFFCURVE",
"571 -115 OFFCURVE",
"571 -129 CURVE"
);
}
);
width = 770;
}
);
unicode = 0119;
},
{
glyphname = hungarumlaut;
lastChange = "2015-10-17 22:56:41 +0000";
layers = (
{
layerId = "7A0FC40B-77F8-4D14-AD08-D047673E78CB";
name = Regular;
paths = (
{
closed = 1;
nodes = (
"214 658 OFFCURVE",
"266 665 OFFCURVE",
"315 673 CURVE SMOOTH",
"365 682 OFFCURVE",
"413 692 OFFCURVE",
"455 702 CURVE",
"458 652 OFFCURVE",
"467 614 OFFCURVE",
"478 572 CURVE",
"388 568 OFFCURVE",
"292 561 OFFCURVE",
"200 542 CURVE",
"197 579 OFFCURVE",
"186 615 OFFCURVE",
"171 654 CURVE"
);
},
{
closed = 1;
nodes = (
"520 663 OFFCURVE",
"568 671 OFFCURVE",
"615 681 CURVE SMOOTH",
"662 690 OFFCURVE",
"707 702 OFFCURVE",
"746 715 CURVE",
"749 661 OFFCURVE",
"758 621 OFFCURVE",
"769 576 CURVE",
"682 572 OFFCURVE",
"589 565 OFFCURVE",
"499 546 CURVE",
"496 583 OFFCURVE",
"489 619 OFFCURVE",
"478 658 CURVE"
);
}
);
width = 814;
}
);
unicode = 02DD;
},
{
glyphname = uhungarumlaut;
lastChange = "2015-10-17 22:56:41 +0000";
layers = (
{
layerId = "7A0FC40B-77F8-4D14-AD08-D047673E78CB";
name = Regular;
paths = (
{
closed = 1;
nodes = (
"200 562 OFFCURVE",
"251 569 OFFCURVE",
"300 577 CURVE SMOOTH",
"350 586 OFFCURVE",
"398 595 OFFCURVE",
"440 606 CURVE",
"443 556 OFFCURVE",
"453 518 OFFCURVE",
"463 476 CURVE",
"373 471 OFFCURVE",
"277 465 OFFCURVE",
"185 446 CURVE",
"182 483 OFFCURVE",
"172 519 OFFCURVE",
"156 557 CURVE"
);
},
{
closed = 1;
nodes = (
"505 567 OFFCURVE",
"553 575 OFFCURVE",
"600 585 CURVE SMOOTH",
"647 594 OFFCURVE",
"692 605 OFFCURVE",
"731 619 CURVE",
"734 565 OFFCURVE",
"743 525 OFFCURVE",
"754 480 CURVE",
"667 476 OFFCURVE",
"574 469 OFFCURVE",
"484 450 CURVE",
"481 487 OFFCURVE",
"474 523 OFFCURVE",
"463 562 CURVE"
);
},
{
closed = 1;
nodes = (
"482 444 LINE",
"576 444 OFFCURVE",
"665 444 OFFCURVE",
"751 454 CURVE",
"751 414 OFFCURVE",
"751 376 OFFCURVE",
"751 338 CURVE SMOOTH",
"751 262 OFFCURVE",
"752 189 OFFCURVE",
"755 114 CURVE SMOOTH",
"756 76 OFFCURVE",
"758 38 OFFCURVE",
"760 -1 CURVE",
"462 -12 LINE",
"467 38 LINE",
"408 -2 OFFCURVE",
"361 -12 OFFCURVE",
"315 -12 CURVE SMOOTH",
"258 -12 OFFCURVE",
"222 2 OFFCURVE",
"185 26 CURVE",
"159 90 OFFCURVE",
"153 152 OFFCURVE",
"153 242 CURVE SMOOTH",
"153 301 OFFCURVE",
"155 369 OFFCURVE",
"161 435 CURVE",
"196 434 OFFCURVE",
"233 433 OFFCURVE",
"268 433 CURVE SMOOTH",
"322 433 OFFCURVE",
"375 436 OFFCURVE",
"431 442 CURVE",
"425 395 OFFCURVE",
"424 350 OFFCURVE",
"424 317 CURVE SMOOTH",
"424 274 OFFCURVE",
"427 238 OFFCURVE",
"433 205 CURVE",
"454 205 OFFCURVE",
"474 214 OFFCURVE",
"493 231 CURVE"
);
}
);
width = 780;
}
);
unicode = 0171;
},
{
glyphname = uogonek;
lastChange = "2015-10-17 22:56:41 +0000";
layers = (
{
layerId = "7A0FC40B-77F8-4D14-AD08-D047673E78CB";
name = Regular;
paths = (
{
closed = 1;
nodes = (
"482 454 LINE",
"576 455 OFFCURVE",
"665 457 OFFCURVE",
"751 464 CURVE",
"751 293 OFFCURVE",
"751 136 OFFCURVE",
"760 -32 CURVE",
"462 -43 LINE",
"467 6 LINE",
"408 -33 OFFCURVE",
"361 -43 OFFCURVE",
"315 -43 CURVE SMOOTH",
"258 -43 OFFCURVE",
"222 -29 OFFCURVE",
"185 -5 CURVE",
"159 58 OFFCURVE",
"153 120 OFFCURVE",
"153 210 CURVE SMOOTH",
"153 229 OFFCURVE",
"153 250 OFFCURVE",
"153 272 CURVE SMOOTH",
"153 318 OFFCURVE",
"153 364 OFFCURVE",
"156 404 CURVE SMOOTH",
"157 424 OFFCURVE",
"158 440 OFFCURVE",
"161 453 CURVE",
"196 453 OFFCURVE",
"233 452 OFFCURVE",
"268 452 CURVE SMOOTH",
"321 452 OFFCURVE",
"375 453 OFFCURVE",
"431 460 CURVE",
"425 410 OFFCURVE",
"424 363 OFFCURVE",
"424 327 CURVE SMOOTH",
"424 268 OFFCURVE",
"427 218 OFFCURVE",
"433 174 CURVE",
"454 174 OFFCURVE",
"474 182 OFFCURVE",
"493 200 CURVE"
);
},
{
closed = 1;
nodes = (
"626 -135 OFFCURVE",
"643 -137 OFFCURVE",
"660 -137 CURVE SMOOTH",
"693 -137 OFFCURVE",
"716 -132 OFFCURVE",
"752 -116 CURVE",
"760 -166 LINE",
"710 -182 OFFCURVE",
"662 -192 OFFCURVE",
"599 -192 CURVE SMOOTH",
"553 -192 OFFCURVE",
"502 -187 OFFCURVE",
"455 -176 CURVE",
"439 -159 OFFCURVE",
"432 -134 OFFCURVE",
"432 -109 CURVE SMOOTH",
"432 -99 OFFCURVE",
"433 -89 OFFCURVE",
"434 -79 CURVE",
"477 -49 OFFCURVE",
"515 -30 OFFCURVE",
"581 -17 CURVE",
"743 -17 LINE",
"691 -40 OFFCURVE",
"653 -61 OFFCURVE",
"615 -93 CURVE",
"610 -104 OFFCURVE",
"609 -115 OFFCURVE",
"609 -129 CURVE"
);
}
);
width = 780;
}
);
unicode = 0173;
},
{
glyphname = iogonek;
lastChange = "2015-10-17 22:56:41 +0000";
layers = (
{
layerId = "7A0FC40B-77F8-4D14-AD08-D047673E78CB";
name = Regular;
paths = (
{
closed = 1;
nodes = (
"343 387 LINE",
"297 392 OFFCURVE",
"253 395 OFFCURVE",
"212 395 CURVE SMOOTH",
"169 395 OFFCURVE",
"131 393 OFFCURVE",
"92 391 CURVE",
"93 396 OFFCURVE",
"93 402 OFFCURVE",
"93 408 CURVE SMOOTH",
"93 413 OFFCURVE",
"93 418 OFFCURVE",
"93 423 CURVE SMOOTH",
"93 466 OFFCURVE",
"88 501 OFFCURVE",
"82 544 CURVE",
"380 555 LINE"
);
},
{
closed = 1;
nodes = (
"364 -33 LINE",
"275 -34 OFFCURVE",
"181 -36 OFFCURVE",
"99 -43 CURVE",
"99 90 OFFCURVE",
"99 222 OFFCURVE",
"93 355 CURVE",
"104 354 OFFCURVE",
"114 354 OFFCURVE",
"125 354 CURVE SMOOTH",
"136 354 OFFCURVE",
"146 354 OFFCURVE",
"157 354 CURVE SMOOTH",
"226 354 OFFCURVE",
"293 358 OFFCURVE",
"355 363 CURVE"
);
},
{
closed = 1;
nodes = (
"266 -135 OFFCURVE",
"283 -137 OFFCURVE",
"300 -137 CURVE SMOOTH",
"333 -137 OFFCURVE",
"356 -132 OFFCURVE",
"392 -116 CURVE",
"400 -166 LINE",
"350 -182 OFFCURVE",
"302 -192 OFFCURVE",
"239 -192 CURVE SMOOTH",
"193 -192 OFFCURVE",
"142 -187 OFFCURVE",
"95 -176 CURVE",
"79 -159 OFFCURVE",
"72 -134 OFFCURVE",
"72 -109 CURVE SMOOTH",
"72 -99 OFFCURVE",
"73 -89 OFFCURVE",
"74 -79 CURVE",
"117 -49 OFFCURVE",
"155 -30 OFFCURVE",
"221 -17 CURVE",
"383 -17 LINE",
"331 -40 OFFCURVE",
"293 -61 OFFCURVE",
"255 -93 CURVE",
"250 -104 OFFCURVE",
"249 -115 OFFCURVE",
"249 -129 CURVE"
);
}
);
width = 401;
}
);
unicode = 012F;
},
{
glyphname = Eogonek;
lastChange = "2015-10-17 22:56:41 +0000";
layers = (
{
layerId = "7A0FC40B-77F8-4D14-AD08-D047673E78CB";
name = Regular;
paths = (
{
closed = 1;
nodes = (
"693 99 LINE",
"681 -32 LINE",
"497 -35 OFFCURVE",
"317 -37 OFFCURVE",
"129 -43 CURVE",
"135 155 OFFCURVE",
"138 349 OFFCURVE",
"138 545 CURVE",
"322 548 OFFCURVE",
"503 551 OFFCURVE",
"682 555 CURVE",
"672 412 LINE",
"591 415 OFFCURVE",
"510 416 OFFCURVE",
"419 416 CURVE",
"419 333 LINE",
"491 334 OFFCURVE",
"562 335 OFFCURVE",
"637 338 CURVE",
"623 207 LINE",
"410 199 LINE",
"419 90 LINE"
);
},
{
closed = 1;
nodes = (
"559 -135 OFFCURVE",
"576 -137 OFFCURVE",
"593 -137 CURVE SMOOTH",
"626 -137 OFFCURVE",
"649 -132 OFFCURVE",
"685 -116 CURVE",
"693 -166 LINE",
"643 -182 OFFCURVE",
"595 -192 OFFCURVE",
"532 -192 CURVE SMOOTH",
"486 -192 OFFCURVE",
"435 -187 OFFCURVE",
"388 -176 CURVE",
"372 -159 OFFCURVE",
"365 -134 OFFCURVE",
"365 -109 CURVE SMOOTH",
"365 -99 OFFCURVE",
"366 -89 OFFCURVE",
"367 -79 CURVE",
"410 -49 OFFCURVE",
"448 -30 OFFCURVE",
"514 -17 CURVE",
"676 -17 LINE",
"624 -40 OFFCURVE",
"586 -61 OFFCURVE",
"548 -93 CURVE",
"543 -104 OFFCURVE",
"542 -115 OFFCURVE",
"542 -129 CURVE"
);
}
);
width = 708;
}
);
unicode = 0118;
},
{
glyphname = Iogonek;
lastChange = "2015-10-17 22:56:41 +0000";
layers = (
{
layerId = "7A0FC40B-77F8-4D14-AD08-D047673E78CB";
name = Regular;
paths = (
{
closed = 1;
nodes = (
"376 -32 LINE",
"74 -43 LINE",
"93 545 LINE",
"367 555 LINE"
);
},
{
closed = 1;
nodes = (
"243 -135 OFFCURVE",
"260 -137 OFFCURVE",
"277 -137 CURVE SMOOTH",
"310 -137 OFFCURVE",
"333 -132 OFFCURVE",
"369 -116 CURVE",
"377 -166 LINE",
"327 -182 OFFCURVE",
"279 -192 OFFCURVE",
"216 -192 CURVE SMOOTH",
"170 -192 OFFCURVE",
"119 -187 OFFCURVE",
"72 -176 CURVE",
"56 -159 OFFCURVE",
"49 -134 OFFCURVE",
"49 -109 CURVE SMOOTH",
"49 -99 OFFCURVE",
"50 -89 OFFCURVE",
"51 -79 CURVE",
"94 -49 OFFCURVE",
"132 -30 OFFCURVE",
"198 -17 CURVE",
"360 -17 LINE",
"308 -40 OFFCURVE",
"270 -61 OFFCURVE",
"232 -93 CURVE",
"227 -104 OFFCURVE",
"226 -115 OFFCURVE",
"226 -129 CURVE"
);
}
);
width = 386;
}
);
unicode = 012E;
},
{
glyphname = Uogonek;
lastChange = "2015-10-17 22:56:41 +0000";
layers = (
{
layerId = "7A0FC40B-77F8-4D14-AD08-D047673E78CB";
name = Regular;
paths = (
{
closed = 1;
nodes = (
"442 555 LINE",
"438 502 OFFCURVE",
"433 454 OFFCURVE",
"431 405 CURVE SMOOTH",
"428 355 OFFCURVE",
"427 304 OFFCURVE",
"427 247 CURVE SMOOTH",
"427 206 OFFCURVE",
"428 174 OFFCURVE",
"429 151 CURVE",
"430 127 OFFCURVE",
"433 110 OFFCURVE",
"436 99 CURVE",
"445 89 OFFCURVE",
"457 89 OFFCURVE",
"473 89 CURVE SMOOTH",
"490 89 OFFCURVE",
"506 92 OFFCURVE",
"519 98 CURVE",
"536 122 OFFCURVE",
"542 174 OFFCURVE",
"542 257 CURVE SMOOTH",
"542 357 OFFCURVE",
"536 444 OFFCURVE",
"528 545 CURVE",
"786 555 LINE",
"800 448 OFFCURVE",
"802 342 OFFCURVE",
"802 229 CURVE SMOOTH",
"802 127 OFFCURVE",
"780 55 OFFCURVE",
"739 6 CURVE",
"677 -27 OFFCURVE",
"585 -43 OFFCURVE",
"472 -43 CURVE SMOOTH",
"352 -43 OFFCURVE",
"262 -27 OFFCURVE",
"202 12 CURVE",
"169 62 OFFCURVE",
"152 134 OFFCURVE",
"152 236 CURVE SMOOTH",
"152 339 OFFCURVE",
"155 437 OFFCURVE",
"168 545 CURVE"
);
},
{
closed = 1;
nodes = (
"519 -135 OFFCURVE",
"537 -137 OFFCURVE",
"553 -137 CURVE SMOOTH",
"586 -137 OFFCURVE",
"609 -132 OFFCURVE",
"645 -116 CURVE",
"653 -166 LINE",
"604 -182 OFFCURVE",
"556 -192 OFFCURVE",
"492 -192 CURVE SMOOTH",
"446 -192 OFFCURVE",
"395 -187 OFFCURVE",
"348 -176 CURVE",
"332 -159 OFFCURVE",
"325 -134 OFFCURVE",
"325 -109 CURVE SMOOTH",
"325 -99 OFFCURVE",
"326 -89 OFFCURVE",
"328 -79 CURVE",
"371 -49 OFFCURVE",
"408 -30 OFFCURVE",
"474 -17 CURVE",
"637 -17 LINE",
"584 -40 OFFCURVE",
"546 -61 OFFCURVE",
"509 -93 CURVE",
"503 -104 OFFCURVE",
"502 -115 OFFCURVE",
"502 -129 CURVE"
);
}
);
width = 817;
}
);
unicode = 0172;
},
{
glyphname = hyphen;
lastChange = "2015-10-17 22:56:41 +0000";
layers = (
{
layerId = "7A0FC40B-77F8-4D14-AD08-D047673E78CB";
name = Regular;
paths = (
{
closed = 1;
nodes = (
"129 338 OFFCURVE",
"169 339 OFFCURVE",
"209 342 CURVE SMOOTH",
"249 344 OFFCURVE",
"287 346 OFFCURVE",
"319 349 CURVE",
"315 298 OFFCURVE",
"312 260 OFFCURVE",
"309 218 CURVE",
"240 224 OFFCURVE",
"177 225 OFFCURVE",
"105 225 CURVE",
"104 263 OFFCURVE",
"99 298 OFFCURVE",
"93 337 CURVE"
);
}
);
width = 364;
}
);
unicode = 002D;
},
{
glyphname = parenleft;
lastChange = "2015-10-17 22:56:41 +0000";
layers = (
{
layerId = "7A0FC40B-77F8-4D14-AD08-D047673E78CB";
name = Regular;
paths = (
{
closed = 1;
nodes = (
"319 -192 LINE",
"285 -192 OFFCURVE",
"258 -189 OFFCURVE",
"232 -180 CURVE SMOOTH",
"207 -172 OFFCURVE",
"184 -159 OFFCURVE",
"161 -137 CURVE",
"121 -56 OFFCURVE",
"98 59 OFFCURVE",
"98 201 CURVE SMOOTH",
"98 353 OFFCURVE",
"118 463 OFFCURVE",
"180 550 CURVE",
"224 572 OFFCURVE",
"275 587 OFFCURVE",
"335 587 CURVE",
"347 406 LINE",
"317 396 OFFCURVE",
"300 370 OFFCURVE",
"290 334 CURVE SMOOTH",
"280 298 OFFCURVE",
"279 253 OFFCURVE",
"279 203 CURVE SMOOTH",
"279 146 OFFCURVE",
"283 91 OFFCURVE",
"293 47 CURVE SMOOTH",
"303 2 OFFCURVE",
"321 -32 OFFCURVE",
"348 -48 CURVE"
);
}
);
width = 393;
}
);
unicode = 0028;
},
{
glyphname = parenright;
lastChange = "2015-10-17 22:56:41 +0000";
layers = (
{
layerId = "7A0FC40B-77F8-4D14-AD08-D047673E78CB";
name = Regular;
paths = (
{
closed = 1;
nodes = (
"127 587 LINE",
"160 587 OFFCURVE",
"188 584 OFFCURVE",
"213 576 CURVE SMOOTH",
"239 568 OFFCURVE",
"261 553 OFFCURVE",
"284 531 CURVE",
"325 451 OFFCURVE",
"348 335 OFFCURVE",
"348 193 CURVE SMOOTH",
"348 42 OFFCURVE",
"327 -69 OFFCURVE",
"265 -156 CURVE",
"222 -178 OFFCURVE",
"170 -192 OFFCURVE",
"111 -192 CURVE",
"98 -12 LINE",
"128 -1 OFFCURVE",
"146 25 OFFCURVE",
"155 61 CURVE SMOOTH",
"165 96 OFFCURVE",
"167 142 OFFCURVE",
"167 191 CURVE SMOOTH",
"167 248 OFFCURVE",
"163 304 OFFCURVE",
"153 348 CURVE SMOOTH",
"142 393 OFFCURVE",
"125 426 OFFCURVE",
"98 443 CURVE"
);
}
);
width = 393;
}
);
unicode = 0029;
},
{
glyphname = endash;
lastChange = "2015-10-17 22:56:41 +0000";
layers = (
{
layerId = "7A0FC40B-77F8-4D14-AD08-D047673E78CB";
name = Regular;
paths = (
{
closed = 1;
nodes = (
"252 338 OFFCURVE",
"365 339 OFFCURVE",
"476 342 CURVE SMOOTH",
"587 344 OFFCURVE",
"694 346 OFFCURVE",
"782 349 CURVE",
"778 298 OFFCURVE",
"775 260 OFFCURVE",
"772 218 CURVE",
"669 221 OFFCURVE",
"570 223 OFFCURVE",
"470 224 CURVE SMOOTH",
"370 225 OFFCURVE",
"270 225 OFFCURVE",
"163 225 CURVE",
"162 263 OFFCURVE",
"157 298 OFFCURVE",
"151 337 CURVE"
);
}
);
width = 827;
}
);
unicode = 2013;
},
{
glyphname = emdash;
lastChange = "2015-10-17 22:56:41 +0000";
layers = (
{
layerId = "7A0FC40B-77F8-4D14-AD08-D047673E78CB";
name = Regular;
paths = (
{
closed = 1;
nodes = (
"356 338 OFFCURVE",
"520 339 OFFCURVE",
"682 342 CURVE SMOOTH",
"843 344 OFFCURVE",
"1000 346 OFFCURVE",
"1132 349 CURVE",
"1126 298 OFFCURVE",
"1122 260 OFFCURVE",
"1122 218 CURVE",
"974 221 OFFCURVE",
"832 223 OFFCURVE",
"686 224 CURVE SMOOTH",
"539 225 OFFCURVE",
"388 225 OFFCURVE",
"224 225 CURVE",
"223 263 OFFCURVE",
"218 298 OFFCURVE",
"211 337 CURVE"
);
}
);
width = 1177;
}
);
unicode = 2014;
},
{
glyphname = minus;
lastChange = "2015-10-17 22:56:41 +0000";
layers = (
{
layerId = "7A0FC40B-77F8-4D14-AD08-D047673E78CB";
name = Regular;
paths = (
{
closed = 1;
nodes = (
"191 338 OFFCURVE",
"275 339 OFFCURVE",
"356 342 CURVE SMOOTH",
"438 344 OFFCURVE",
"517 346 OFFCURVE",
"582 349 CURVE",
"578 298 OFFCURVE",
"575 260 OFFCURVE",
"572 218 CURVE",
"421 224 OFFCURVE",
"284 225 OFFCURVE",
"128 225 CURVE",
"127 263 OFFCURVE",
"122 298 OFFCURVE",
"116 337 CURVE"
);
}
);
width = 627;
}
);
unicode = 2212;
},
{
glyphname = A.peq;
lastChange = "2015-10-17 22:56:41 +0000";
layers = (
{
layerId = "7A0FC40B-77F8-4D14-AD08-D047673E78CB";
name = Regular;
paths = (
{
closed = 1;
nodes = (
"151 8 LINE",
"187 83 OFFCURVE",
"218 154 OFFCURVE",
"245 226 CURVE SMOOTH",
"271 298 OFFCURVE",
"295 371 OFFCURVE",
"315 448 CURVE",
"376 448 OFFCURVE",
"447 449 OFFCURVE",
"516 452 CURVE SMOOTH",
"585 454 OFFCURVE",
"653 458 OFFCURVE",
"709 462 CURVE",
"738 306 OFFCURVE",
"780 159 OFFCURVE",
"845 3 CURVE",
"738 0 OFFCURVE",
"631 -5 OFFCURVE",
"519 -12 CURVE",
"509 48 LINE",
"376 48 LINE",
"367 -8 LINE"
);
},
{
closed = 1;
nodes = (
"443 256 LINE",
"406 167 LINE",
"499 173 LINE",
"471 258 LINE"
);
}
);
width = 850;
}
);
},
{
glyphname = Aacute;
lastChange = "2015-10-17 22:56:41 +0000";
layers = (
{
layerId = "7A0FC40B-77F8-4D14-AD08-D047673E78CB";
name = Regular;
paths = (
{
closed = 1;
nodes = (
"151 8 LINE",
"187 83 OFFCURVE",
"218 154 OFFCURVE",
"245 226 CURVE SMOOTH",
"271 298 OFFCURVE",
"295 371 OFFCURVE",
"315 448 CURVE",
"376 448 OFFCURVE",
"447 449 OFFCURVE",
"516 452 CURVE SMOOTH",
"585 454 OFFCURVE",
"653 458 OFFCURVE",
"709 462 CURVE",
"738 306 OFFCURVE",
"780 159 OFFCURVE",
"845 3 CURVE",
"738 0 OFFCURVE",
"631 -5 OFFCURVE",
"519 -12 CURVE",
"509 48 LINE",
"376 48 LINE",
"367 -8 LINE"
);
},
{
closed = 1;
nodes = (
"443 256 LINE",
"406 167 LINE",
"499 173 LINE",
"471 258 LINE"
);
},
{
closed = 1;
nodes = (
"360 587 OFFCURVE",
"426 595 OFFCURVE",
"490 605 CURVE SMOOTH",
"553 614 OFFCURVE",
"617 625 OFFCURVE",
"670 638 CURVE",
"673 585 OFFCURVE",
"682 545 OFFCURVE",
"693 500 CURVE",
"576 495 OFFCURVE",
"452 489 OFFCURVE",
"332 470 CURVE",
"329 507 OFFCURVE",
"319 543 OFFCURVE",
"303 581 CURVE"
);
}
);
width = 850;
}
);
unicode = 00C1;
},
{
glyphname = Abreve;
lastChange = "2015-10-17 22:56:41 +0000";
layers = (
{
layerId = "7A0FC40B-77F8-4D14-AD08-D047673E78CB";
name = Regular;
paths = (
{
closed = 1;
nodes = (
"622 479 OFFCURVE",
"562 470 OFFCURVE",
"498 470 CURVE SMOOTH",
"434 470 OFFCURVE",
"372 479 OFFCURVE",
"315 508 CURVE",
"325 543 OFFCURVE",
"334 576 OFFCURVE",
"338 618 CURVE",
"378 605 OFFCURVE",
"435 597 OFFCURVE",
"498 597 CURVE SMOOTH",
"564 597 OFFCURVE",
"623 616 OFFCURVE",
"666 638 CURVE",
"668 588 OFFCURVE",
"674 550 OFFCURVE",
"681 508 CURVE"
);
},
{
closed = 1;
nodes = (
"151 8 LINE",
"187 83 OFFCURVE",
"218 154 OFFCURVE",
"245 226 CURVE SMOOTH",
"271 298 OFFCURVE",
"295 371 OFFCURVE",
"315 448 CURVE",
"376 448 OFFCURVE",
"447 449 OFFCURVE",
"516 452 CURVE SMOOTH",
"585 454 OFFCURVE",
"653 458 OFFCURVE",
"709 462 CURVE",
"738 306 OFFCURVE",
"780 159 OFFCURVE",
"845 3 CURVE",
"738 0 OFFCURVE",
"631 -5 OFFCURVE",
"519 -12 CURVE",
"509 48 LINE",
"376 48 LINE",
"367 -8 LINE"
);
},
{
closed = 1;
nodes = (
"443 256 LINE",
"406 167 LINE",
"499 173 LINE",
"471 258 LINE"
);
}
);
width = 850;
}
);
unicode = 0102;
},
{
glyphname = Acircumflex;
lastChange = "2015-10-17 22:56:41 +0000";
layers = (
{
layerId = "7A0FC40B-77F8-4D14-AD08-D047673E78CB";
name = Regular;
paths = (
{
closed = 1;
nodes = (
"355 595 OFFCURVE",
"428 616 OFFCURVE",
"497 638 CURVE",
"576 624 OFFCURVE",
"643 601 OFFCURVE",
"703 576 CURVE",
"689 540 OFFCURVE",
"678 510 OFFCURVE",
"675 470 CURVE",
"623 483 OFFCURVE",
"555 493 OFFCURVE",
"498 500 CURVE",
"438 490 OFFCURVE",
"369 479 OFFCURVE",
"316 462 CURVE",
"314 482 OFFCURVE",
"311 500 OFFCURVE",
"307 517 CURVE",
"302 533 OFFCURVE",
"297 550 OFFCURVE",
"292 567 CURVE"
);
},
{
closed = 1;
nodes = (
"151 8 LINE",
"187 83 OFFCURVE",
"218 154 OFFCURVE",
"245 226 CURVE SMOOTH",
"271 298 OFFCURVE",
"295 371 OFFCURVE",
"315 448 CURVE",
"376 448 OFFCURVE",
"447 449 OFFCURVE",
"516 452 CURVE SMOOTH",
"585 454 OFFCURVE",
"653 458 OFFCURVE",
"709 462 CURVE",
"738 306 OFFCURVE",
"780 159 OFFCURVE",
"845 3 CURVE",
"738 0 OFFCURVE",
"631 -5 OFFCURVE",
"519 -12 CURVE",
"509 48 LINE",
"376 48 LINE",
"367 -8 LINE"
);
},
{
closed = 1;
nodes = (
"443 256 LINE",
"406 167 LINE",
"499 173 LINE",
"471 258 LINE"
);
}
);
width = 850;
}
);
unicode = 00C2;
},
{
glyphname = Agrave;
lastChange = "2015-10-17 22:56:41 +0000";
layers = (
{
layerId = "7A0FC40B-77F8-4D14-AD08-D047673E78CB";
name = Regular;
paths = (
{
closed = 1;
nodes = (
"677 543 OFFCURVE",
"666 507 OFFCURVE",
"664 470 CURVE",
"544 489 OFFCURVE",
"419 495 OFFCURVE",
"303 500 CURVE",
"314 545 OFFCURVE",
"323 585 OFFCURVE",
"326 638 CURVE",
"379 625 OFFCURVE",
"443 614 OFFCURVE",
"506 605 CURVE SMOOTH",
"570 595 OFFCURVE",
"636 587 OFFCURVE",
"693 581 CURVE"
);
},
{
closed = 1;
nodes = (
"151 8 LINE",
"187 83 OFFCURVE",
"218 154 OFFCURVE",
"245 226 CURVE SMOOTH",
"271 298 OFFCURVE",
"295 371 OFFCURVE",
"315 448 CURVE",
"376 448 OFFCURVE",
"447 449 OFFCURVE",
"516 452 CURVE SMOOTH",
"585 454 OFFCURVE",
"653 458 OFFCURVE",
"709 462 CURVE",
"738 306 OFFCURVE",
"780 159 OFFCURVE",
"845 3 CURVE",
"738 0 OFFCURVE",
"631 -5 OFFCURVE",
"519 -12 CURVE",
"509 48 LINE",
"376 48 LINE",
"367 -8 LINE"
);
},
{
closed = 1;
nodes = (
"443 256 LINE",
"406 167 LINE",
"499 173 LINE",
"471 258 LINE"
);
}
);
width = 850;
}
);
unicode = 00C0;
},
{
glyphname = Adieresis;
lastChange = "2015-10-17 22:56:41 +0000";
layers = (
{
layerId = "7A0FC40B-77F8-4D14-AD08-D047673E78CB";
name = Regular;
paths = (
{
closed = 1;
nodes = (
"515 611 LINE",
"575 614 OFFCURVE",
"632 615 OFFCURVE",
"681 618 CURVE",
"677 567 OFFCURVE",
"674 529 OFFCURVE",
"671 487 CURVE",
"647 488 OFFCURVE",
"623 490 OFFCURVE",
"599 490 CURVE SMOOTH",
"575 491 OFFCURVE",
"550 492 OFFCURVE",
"524 493 CURVE"
);
},
{
closed = 1;
nodes = (
"483 493 LINE",
"327 493 LINE",
"327 530 OFFCURVE",
"322 567 OFFCURVE",
"314 606 CURVE",
"364 607 OFFCURVE",
"418 609 OFFCURVE",
"474 611 CURVE"
);
},
{
closed = 1;
nodes = (
"151 8 LINE",
"187 83 OFFCURVE",
"218 154 OFFCURVE",
"245 226 CURVE SMOOTH",
"271 298 OFFCURVE",
"295 371 OFFCURVE",
"315 448 CURVE",
"376 448 OFFCURVE",
"447 449 OFFCURVE",
"516 452 CURVE SMOOTH",
"585 454 OFFCURVE",
"653 458 OFFCURVE",
"709 462 CURVE",
"738 306 OFFCURVE",
"780 159 OFFCURVE",
"845 3 CURVE",
"738 0 OFFCURVE",
"631 -5 OFFCURVE",
"519 -12 CURVE",
"509 48 LINE",
"376 48 LINE",
"367 -8 LINE"
);
},
{
closed = 1;
nodes = (
"443 256 LINE",
"406 167 LINE",
"499 173 LINE",
"471 258 LINE"
);
}
);
width = 850;
}
);
unicode = 00C4;
},
{
glyphname = Amacron;
lastChange = "2015-10-17 22:56:41 +0000";
layers = (
{
layerId = "7A0FC40B-77F8-4D14-AD08-D047673E78CB";
name = Regular;
paths = (
{
closed = 1;
nodes = (
"371 607 OFFCURVE",
"438 609 OFFCURVE",
"501 611 CURVE SMOOTH",
"565 614 OFFCURVE",
"628 615 OFFCURVE",
"681 618 CURVE",
"677 567 OFFCURVE",
"674 529 OFFCURVE",
"671 487 CURVE",
"559 493 OFFCURVE",
"443 494 OFFCURVE",
"327 495 CURVE",
"326 532 OFFCURVE",
"321 567 OFFCURVE",
"314 606 CURVE"
);
},
{
closed = 1;
nodes = (
"151 8 LINE",
"187 83 OFFCURVE",
"218 154 OFFCURVE",
"245 226 CURVE SMOOTH",
"271 298 OFFCURVE",
"295 371 OFFCURVE",
"315 448 CURVE",
"376 448 OFFCURVE",
"447 449 OFFCURVE",
"516 452 CURVE SMOOTH",
"585 454 OFFCURVE",
"653 458 OFFCURVE",
"709 462 CURVE",
"738 306 OFFCURVE",
"780 159 OFFCURVE",
"845 3 CURVE",
"738 0 OFFCURVE",
"631 -5 OFFCURVE",
"519 -12 CURVE",
"509 48 LINE",
"376 48 LINE",
"367 -8 LINE"
);
},
{
closed = 1;
nodes = (
"443 256 LINE",
"406 167 LINE",
"499 173 LINE",
"471 258 LINE"
);
}
);
width = 850;
}
);
unicode = 0100;
},
